<svg width="54" height="46" viewBox="0 0 54 46" fill="none" xmlns="http://www.w3.org/2000/svg">
<path fill-rule="evenodd" clip-rule="evenodd" d="M26.6704 0C5.93485 0 0 18.1525 0 29.1683C0 40.1833 11.9409 45.148 26.6704 45.148C41.3991 45.148 53.34 40.1841 53.34 29.1683C53.34 18.1525 47.406 0 26.6704 0Z" fill="#F9B902"/>
<path fill-rule="evenodd" clip-rule="evenodd" d="M26.2497 0.732817C0.858083 0.651764 -2.96367 33.3135 8.7865 27.0864C16.9302 22.7693 37.1991 23.6715 44.8983 27.0864C55.1863 31.6499 53.8313 0.820419 26.2497 0.732817Z" fill="#F9B902"/>
<path opacity="0.9545" fill-rule="evenodd" clip-rule="evenodd" d="M25.1861 0.964451C1.09383 1.29357 -2.10652 32.1042 8.96085 26.0547C16.6314 21.8605 35.8752 22.3861 43.2232 25.4784C53.0429 29.6096 51.3563 0.607492 25.1861 0.964451Z" fill="#F9BE02"/>
<path opacity="0.9091" fill-rule="evenodd" clip-rule="evenodd" d="M24.1225 1.19618C1.32788 1.9363 -1.25025 30.8959 9.1335 25.0224C16.3316 20.9509 34.5488 21.0999 41.5472 23.8688C50.9002 27.5694 48.8812 0.393022 24.1225 1.19618Z" fill="#FAC302"/>
<path opacity="0.8636" fill-rule="evenodd" clip-rule="evenodd" d="M23.0581 1.42788C1.56363 2.57817 -0.394729 29.6866 9.30703 23.99C16.0319 20.0413 33.2225 19.8145 39.8721 22.26C48.7576 25.5283 46.4062 0.179338 23.0581 1.42788Z" fill="#FAC702"/>
<path opacity="0.8182" fill-rule="evenodd" clip-rule="evenodd" d="M21.9939 1.6595C1.79868 3.21997 0.460896 28.4781 9.47985 22.9575C15.7315 19.1317 31.8962 18.5274 38.1954 20.6504C46.6142 23.4889 43.9313 -0.0352342 21.9939 1.6595Z" fill="#FBCC02"/>
<path opacity="0.7727" fill-rule="evenodd" clip-rule="evenodd" d="M20.9304 1.89119C2.03363 3.86102 1.31726 27.2689 9.65422 21.9251C15.4319 18.2213 30.5715 17.2413 36.5211 19.0424C44.4716 21.4486 41.4555 -0.248923 20.9304 1.89119Z" fill="#FBD102"/>
<path opacity="0.7273" fill-rule="evenodd" clip-rule="evenodd" d="M19.8661 2.12292C2.26867 4.50374 2.17288 26.0596 9.82622 20.8936C15.1315 17.3125 29.2445 15.9551 34.8445 17.4328C42.3283 19.4084 38.9806 -0.4634 19.8661 2.12292Z" fill="#FCD603"/>
<path opacity="0.6818" fill-rule="evenodd" clip-rule="evenodd" d="M18.8026 2.35462C2.50366 5.14561 3.02928 24.8512 9.99981 19.8612C14.8319 16.4029 27.9182 14.6689 33.1686 15.8241C40.185 17.3674 36.5057 -0.676263 18.8026 2.35462Z" fill="#FCDB03"/>
<path opacity="0.6364" fill-rule="evenodd" clip-rule="evenodd" d="M17.7374 2.58635C2.73856 5.78752 3.88475 23.642 10.1725 18.8296C14.5321 15.4934 26.5918 13.3836 31.4918 14.2154C38.0415 15.328 34.0298 -0.890727 17.7374 2.58635Z" fill="#FDE003"/>
<path opacity="0.5909" fill-rule="evenodd" clip-rule="evenodd" d="M16.6739 2.81799C2.97356 6.42934 4.74115 22.4327 10.3461 17.7972C14.2317 14.5845 25.2671 12.0981 29.8175 12.6065C35.8981 13.2877 31.5548 -1.10446 16.6739 2.81799Z" fill="#FDE403"/>
<path opacity="0.5455" fill-rule="evenodd" clip-rule="evenodd" d="M15.6096 3.04969C3.20851 7.07121 5.59669 21.2235 10.5188 16.7648C13.932 13.6741 23.94 10.8111 28.1408 10.9969C33.7555 11.2466 29.0799 -1.31897 15.6096 3.04969Z" fill="#FEE903"/>
<path opacity="0.5" fill-rule="evenodd" clip-rule="evenodd" d="M14.5452 3.28148C3.44347 7.714 6.45225 20.016 10.6924 15.7333C13.6324 12.7663 22.6145 9.52583 26.4649 9.3891C31.6121 9.20653 26.6049 -1.53255 14.5452 3.28148Z" fill="#FEEE03"/>
<path fill-rule="evenodd" clip-rule="evenodd" d="M26.6704 0C5.93485 0 0 18.1525 0 29.1683C0 29.7684 0.0384768 30.3489 0.107249 30.9146C0.987366 19.8685 7.50841 4.36865 26.6704 4.36865C45.8324 4.36865 52.3526 19.8685 53.2327 30.9146C53.3023 30.3489 53.34 29.7684 53.34 29.1683C53.34 18.1525 47.406 0 26.6704 0Z" fill="#FEEE03"/>
<path fill-rule="evenodd" clip-rule="evenodd" d="M26.6704 24.1742C14.7556 24.1742 5.09729 28.3324 5.09729 33.4625C5.09729 38.5926 14.7556 42.7516 26.6704 42.7516C38.5851 42.7516 48.2427 38.5926 48.2427 33.4625C48.2435 28.3324 38.5851 24.1742 26.6704 24.1742Z" fill="#F29E00"/>
<path fill-rule="evenodd" clip-rule="evenodd" d="M36.8241 18.8812H35.3095H30.9277V12.1375C30.9318 10.5033 30.3096 10.1185 29.2101 10.7014L14.831 21.5674C14.1195 22.3665 14.2227 23.1287 14.8818 23.8663L28.6763 34.2902C29.8757 34.9362 30.9105 35.1302 30.9277 32.5283V26.2668H35.3095H36.8241C38.0211 26.2668 39.0011 25.2876 39.0011 24.089V22.5744V22.5728V21.0582C39.0011 19.8604 38.0211 18.8812 36.8241 18.8812Z" stroke="#F29E00" stroke-width="1.9199" stroke-miterlimit="22.9256"/>
<path fill-rule="evenodd" clip-rule="evenodd" d="M36.8241 18.8812H35.3095H30.9277V12.1375C30.9318 10.5033 30.3096 10.1185 29.2101 10.7014L14.831 21.5674C14.1195 22.3665 14.2227 23.1287 14.8818 23.8663L28.6763 34.2902C29.8757 34.9362 30.9105 35.1302 30.9277 32.5283V26.2668H35.3095H36.8241C38.0211 26.2668 39.0011 25.2876 39.0011 24.089V22.5744V22.5728V21.0582C39.0011 19.8604 38.0211 18.8812 36.8241 18.8812Z" fill="#E6E6E6"/>
<path fill-rule="evenodd" clip-rule="evenodd" d="M36.824 18.8812H35.3094H30.9285V12.1375C30.9326 10.5033 30.3095 10.1185 29.21 10.7014L14.8309 21.5674C14.5427 21.8916 14.388 22.2093 14.3503 22.5212H39.001V21.0582C39.001 19.8604 38.021 18.8812 36.824 18.8812Z" fill="white"/>
<path opacity="0.2" fill-rule="evenodd" clip-rule="evenodd" d="M26.6704 0C5.93485 0 0 18.1525 0 29.1683C0 29.2772 0.00408417 29.3853 0.0057216 29.4942C19.812 40.4911 28.4118 19.0556 53.0895 25.1222C51.7779 14.217 45.0211 0 26.6704 0Z" fill="white"/>
<path opacity="0.1" fill-rule="evenodd" clip-rule="evenodd" d="M13.6103 4.14266C5.56639 8.88547 1.13305 16.2678 3.70545 20.6316C6.27948 24.9961 14.8858 24.6899 22.9289 19.9463C30.9727 15.2043 35.4069 7.82114 32.8336 3.45739C30.2604 -0.906351 21.6533 -0.599328 13.6103 4.14266Z" fill="white"/>
<path opacity="0.5" fill-rule="evenodd" clip-rule="evenodd" d="M50.247 28.646C49.0337 28.3636 47.7106 29.5916 47.2939 31.3871C46.8772 33.1833 47.5223 34.8674 48.7357 35.1499C49.9498 35.4315 51.2712 34.2043 51.6888 32.408C52.1055 30.6134 51.4603 28.9285 50.247 28.646Z" fill="white"/>
<path opacity="0.5" fill-rule="evenodd" clip-rule="evenodd" d="M15.6481 4.32031C12.1317 5.98721 10.0137 8.88464 10.9175 10.7931C11.8214 12.7007 15.4057 12.8963 18.9221 11.2303C22.4385 9.56335 24.5565 6.66674 23.6518 4.75832C22.7471 2.8499 19.1636 2.65422 15.6481 4.32031Z" fill="white"/>
<path opacity="0.5" fill-rule="evenodd" clip-rule="evenodd" d="M6.57754 13.4262C5.48619 14.9383 5.26677 16.6429 6.08631 17.2356C6.90666 17.8275 8.45649 17.0825 9.54701 15.572C10.6392 14.0598 10.8586 12.3544 10.0391 11.7625C9.21871 11.1698 7.6697 11.9148 6.57754 13.4262Z" fill="white"/>
</svg>
