<svg width="231" height="190" viewBox="0 0 231 190" fill="none" xmlns="http://www.w3.org/2000/svg">
<path fill-rule="evenodd" clip-rule="evenodd" d="M18.6971 11.3627H213.057C222.664 11.3627 230.349 19.0711 230.349 28.6606V161.494C230.349 179.408 212.039 182.923 201.203 177.111C190.367 171.299 183.046 190 166.619 190C150.192 190 137.242 178.792 114.34 178.792C91.4381 178.792 62.0804 187.749 46.1143 187.749C19.2159 187.749 -0.266233 163.899 0.00275131 137.844L1.15552 28.6606C1.25159 19.1482 8.97528 11.3627 18.4474 11.3627H18.6971ZM180.337 155.558C177.955 150.779 173.536 154.017 167.772 156.915C162.008 159.813 157.089 161.108 159.472 165.872C161.854 170.636 168.444 172.193 174.208 169.357C177.04 167.944 179.188 165.802 180.302 163.28C181.416 160.759 181.428 158.009 180.337 155.481V155.558ZM10.7237 139.262C7.24611 141.051 6.17018 145.892 8.32205 150.054C10.4739 154.217 15.0658 156.221 18.5434 154.387C22.021 152.552 19.7154 149.762 17.5636 145.491C15.4117 141.22 14.2205 137.489 10.7237 139.262Z" fill="#532B0F"/>
<path fill-rule="evenodd" clip-rule="evenodd" d="M111.977 0C132.016 0 230.426 2.03513 230.426 27.2574V160.091C230.426 178.005 212.116 181.52 201.28 175.708C190.444 169.896 183.123 188.597 166.696 188.597C150.269 188.597 137.319 177.389 114.417 177.389C91.5152 177.389 62.1575 186.346 46.1913 186.346C19.2929 186.346 -0.189206 162.496 0.0797777 136.456L1.23258 27.2574C1.48235 2.35889 92.8216 0 111.977 0ZM180.241 154.17C177.859 149.391 173.44 152.629 167.676 155.527C161.912 158.426 156.994 159.721 159.376 164.484C161.758 169.248 168.349 170.821 174.113 167.969C176.923 166.56 179.058 164.43 180.17 161.926C181.283 159.421 181.308 156.688 180.241 154.17ZM10.7239 137.875C7.2463 139.648 6.17036 144.489 8.32224 148.667C10.4741 152.845 15.066 154.833 18.5436 152.999C22.0212 151.164 19.7156 148.297 17.5638 144.103C15.4119 139.91 14.2207 136.086 10.7239 137.875Z" fill="#844517"/>
<path fill-rule="evenodd" clip-rule="evenodd" d="M46.1913 183.54C27.6507 183.54 12.5876 172.147 5.13286 156.514C4.38355 154.972 3.69188 153.292 3.09627 151.611C1.46708 147.023 0.49374 142.301 0.195068 137.536V136.549V138.769C0.398745 144.956 1.73224 151.085 4.15297 156.961C11.185 173.797 26.8053 186.346 46.2682 186.346C62.2343 186.346 91.592 177.389 114.494 177.389C137.396 177.389 150.327 188.597 166.773 188.597C183.22 188.597 190.54 169.911 201.357 175.708C201.703 175.893 202.029 176.063 202.375 176.217C212.635 180.981 228.409 177.898 230.311 163.128C230.448 162.104 230.512 161.074 230.503 160.045V157.794C230.478 159.572 230.227 161.344 229.754 163.082C226.526 174.737 213.519 177.512 204.027 174.059C203.101 173.718 202.208 173.321 201.357 172.871C190.54 167.059 183.2 185.745 166.773 185.745C150.346 185.745 137.396 174.552 114.494 174.552C91.592 174.552 62.1575 183.54 46.1913 183.54Z" fill="#9B511C"/>
</svg>
