<svg width="313" height="340" viewBox="0 0 313 340" fill="none" xmlns="http://www.w3.org/2000/svg">
<path fill-rule="evenodd" clip-rule="evenodd" d="M25.3887 20.3332H289.309C302.354 20.3332 312.79 34.1273 312.79 51.2873V288.989C312.79 321.047 287.927 327.337 273.212 316.936C258.498 306.535 248.558 340 226.251 340C203.945 340 186.361 319.943 155.262 319.943C124.163 319.943 84.2987 335.972 62.6184 335.972C26.0932 335.972 -0.361516 293.293 0.00373599 246.668L1.56908 51.2873C1.69953 34.2653 12.1875 20.3332 25.0496 20.3332H25.3887ZM244.879 278.367C241.644 269.815 235.643 275.609 227.817 280.795C219.99 285.982 213.311 288.299 216.546 296.824C219.781 305.349 228.73 308.135 236.557 303.059C240.401 300.532 243.319 296.698 244.831 292.186C246.343 287.674 246.36 282.753 244.879 278.23V278.367ZM14.5616 249.206C9.83946 252.407 8.37845 261.069 11.3005 268.518C14.2225 275.967 20.4578 279.554 25.18 276.271C29.9022 272.988 26.7715 267.994 23.8495 260.352C20.9275 252.71 19.3099 246.034 14.5616 249.206Z" fill="#532B0F"/>
<path fill-rule="evenodd" clip-rule="evenodd" d="M152.053 0C179.264 0 312.895 3.64182 312.895 48.7764V286.478C312.895 318.536 288.031 324.826 273.317 314.425C258.602 304.024 248.662 337.489 226.356 337.489C204.049 337.489 186.465 317.432 155.367 317.432C124.268 317.432 84.4032 333.461 62.7229 333.461C26.1977 333.461 -0.256963 290.782 0.108289 244.185L1.67367 48.7764C2.01283 4.22117 126.042 0 152.053 0ZM244.749 275.884C241.514 267.332 235.513 273.125 227.686 278.312C219.86 283.498 213.181 285.816 216.416 294.341C219.651 302.865 228.6 305.679 236.426 300.576C240.243 298.055 243.141 294.244 244.652 289.762C246.163 285.28 246.197 280.389 244.749 275.884ZM14.5619 246.723C9.83967 249.896 8.37866 258.559 11.3007 266.035C14.2227 273.512 20.458 277.07 25.1802 273.787C29.9024 270.504 26.7717 265.373 23.8497 257.869C20.9277 250.365 19.3101 243.523 14.5619 246.723Z" fill="#844517"/>
<path fill-rule="evenodd" clip-rule="evenodd" d="M62.7231 328.44C37.5468 328.44 17.0927 308.052 6.96996 280.078C5.95247 277.319 5.01326 274.312 4.20448 271.305C1.99221 263.094 0.670518 254.643 0.264954 246.116V244.351V248.323C0.541525 259.394 2.35227 270.363 5.63937 280.878C15.1881 311.004 36.3988 333.461 62.8274 333.461C84.5078 333.461 124.372 317.433 155.471 317.433C186.57 317.433 204.128 337.489 226.46 337.489C248.793 337.489 258.733 304.052 273.421 314.425C273.891 314.756 274.334 315.06 274.804 315.336C288.736 323.861 310.155 318.343 312.738 291.913C312.924 290.081 313.011 288.239 312.999 286.396V282.368C312.964 285.55 312.623 288.721 311.982 291.83C307.598 312.687 289.936 317.653 277.048 311.473C275.79 310.863 274.577 310.153 273.421 309.349C258.733 298.948 248.767 332.385 226.46 332.385C204.154 332.385 186.57 312.356 155.471 312.356C124.372 312.356 84.4034 328.44 62.7231 328.44Z" fill="#9B511C"/>
</svg>
