<svg width="164" height="69" viewBox="0 0 164 69" fill="none" xmlns="http://www.w3.org/2000/svg">
<path fill-rule="evenodd" clip-rule="evenodd" d="M81.9994 0C18.2445 0 0 27.6701 0 44.4644C0 61.2574 36.7137 68.8258 81.9994 68.8258C127.286 68.8258 164 61.2574 164 44.4644C164 27.6701 145.755 0 81.9994 0Z" fill="#F9B902"/>
<path fill-rule="evenodd" clip-rule="evenodd" d="M80.7076 1.11448C2.63593 0.99217 -9.11357 50.7821 27.0136 41.2904C52.054 34.7093 114.376 36.0834 138.047 41.2904C169.676 48.246 165.511 1.25052 80.7076 1.11448Z" fill="#F9B902"/>
<path opacity="0.9545" fill-rule="evenodd" clip-rule="evenodd" d="M77.4351 1.46887C3.3586 1.9706 -6.48133 48.9399 27.5465 39.7165C51.1329 33.3226 110.3 34.1251 132.895 38.8379C163.088 45.1382 157.902 0.923459 77.4351 1.46887Z" fill="#F9BE02"/>
<path opacity="0.9091" fill-rule="evenodd" clip-rule="evenodd" d="M74.165 1.82204C4.08116 2.94907 -3.84919 47.0964 28.0781 38.1426C50.2092 31.9359 106.221 32.1643 127.742 36.3841C156.499 42.0255 150.292 0.597668 74.165 1.82204Z" fill="#FAC302"/>
<path opacity="0.8636" fill-rule="evenodd" clip-rule="evenodd" d="M70.8925 2.17409C4.80254 3.92641 -1.21824 45.2543 28.6111 36.5701C49.2869 30.5494 102.143 30.2037 122.59 33.9317C149.909 38.9166 142.683 0.270759 70.8925 2.17409Z" fill="#FAC702"/>
<path opacity="0.8182" fill-rule="evenodd" clip-rule="evenodd" d="M67.6202 2.52728C5.52529 4.90613 1.41408 43.4109 29.1441 34.9975C48.3659 29.164 98.0685 28.2429 117.438 31.4804C143.32 35.8063 135.071 -0.055016 67.6202 2.52728Z" fill="#FBCC02"/>
<path opacity="0.7727" fill-rule="evenodd" clip-rule="evenodd" d="M64.3488 2.88181C6.24904 5.88471 4.04617 41.5675 29.6769 33.4225C47.4434 27.7749 93.9896 26.281 112.284 29.0268C136.73 32.6961 127.46 -0.380691 64.3488 2.88181Z" fill="#FBD102"/>
<path opacity="0.7273" fill-rule="evenodd" clip-rule="evenodd" d="M61.0776 3.23506C6.9705 6.86575 6.6772 39.7266 30.2086 31.85C46.5199 26.3908 89.9134 24.3228 107.132 26.5755C130.142 29.5847 119.85 -0.707651 61.0776 3.23506Z" fill="#FCD603"/>
<path opacity="0.6818" fill-rule="evenodd" clip-rule="evenodd" d="M57.8064 3.58816C7.69321 7.8429 9.30948 37.8819 30.7429 30.276C45.5989 25.0041 85.836 22.3607 101.98 24.1217C123.552 26.4756 112.241 -1.0335 57.8064 3.58816Z" fill="#FCDB03"/>
<path opacity="0.6364" fill-rule="evenodd" clip-rule="evenodd" d="M54.534 3.94133C8.41589 8.82136 11.9417 36.0397 31.2759 28.7034C44.6753 23.6187 81.7598 20.4011 96.8267 21.6692C116.963 23.3641 104.63 -1.35929 54.534 3.94133Z" fill="#FDE003"/>
<path opacity="0.5909" fill-rule="evenodd" clip-rule="evenodd" d="M51.2626 4.29334C9.13712 9.7999 14.5725 34.1975 31.8074 27.1309C43.7528 22.2321 77.6809 18.4417 91.6732 19.2167C110.373 20.2551 97.0187 -1.68625 51.2626 4.29334Z" fill="#FDE403"/>
<path opacity="0.5455" fill-rule="evenodd" clip-rule="evenodd" d="M47.9902 4.64782C9.85984 10.7784 17.2036 32.3529 32.3392 25.557C42.8306 20.8443 73.6034 16.4809 86.5211 16.7643C103.785 17.1437 89.4092 -2.01198 47.9902 4.64782Z" fill="#FEE903"/>
<path opacity="0.5" fill-rule="evenodd" clip-rule="evenodd" d="M44.719 5.00098C10.5825 11.7581 19.8346 30.5094 32.8709 23.9819C41.9071 19.4576 69.5247 14.5201 81.3679 14.3105C97.1936 14.0346 81.7972 -2.33778 44.719 5.00098Z" fill="#FEEE03"/>
<path fill-rule="evenodd" clip-rule="evenodd" d="M81.9994 0C18.2445 0 0 27.6701 0 44.4644C0 45.3792 0.113575 46.2654 0.326998 47.1253C3.03285 30.2861 23.0846 6.6573 81.9994 6.6573C140.917 6.6573 160.967 30.2861 163.673 47.1253C163.886 46.2641 164 45.378 164 44.4644C164 27.6701 145.755 0 81.9994 0Z" fill="#FEEE03"/>
<path opacity="0.5" fill-rule="evenodd" clip-rule="evenodd" d="M160.827 41.6711C158.976 41.2405 156.961 43.1127 156.324 45.8497C155.688 48.5868 156.673 51.1541 158.523 51.5847C160.373 52.014 162.389 50.1431 163.024 47.4061C163.661 44.669 162.677 42.1017 160.827 41.6711Z" fill="white"/>
<path opacity="0.5" fill-rule="evenodd" clip-rule="evenodd" d="M30.9026 10.3753C25.0791 11.5024 20.853 14.977 21.4646 18.1372C22.0774 21.2974 27.2932 22.9461 33.1167 21.8178C38.9403 20.6908 43.1663 17.2161 42.5548 14.056C41.9432 10.897 36.7275 9.24957 30.9026 10.3753Z" fill="white"/>
<path opacity="0.5" fill-rule="evenodd" clip-rule="evenodd" d="M14.0584 20.3799C11.873 22.1971 10.902 24.6321 11.888 25.8178C12.8739 27.0022 15.445 26.4905 17.6304 24.6733C19.8146 22.8561 20.7856 20.4211 19.8008 19.2366C18.8136 18.0509 16.2425 18.5627 14.0584 20.3799Z" fill="white"/>
</svg>
