<svg width="35" height="35" viewBox="0 0 35 35" fill="none" xmlns="http://www.w3.org/2000/svg">
<path fill-rule="evenodd" clip-rule="evenodd" d="M30.611 3.29019C27.6326 0.699553 23.7202 0.311873 21.7993 2.4443C21.5454 2.734 21.3374 3.06087 21.1825 3.41357C21.0415 4.66483 22.6628 7.11448 25.2358 9.37028C27.8088 11.6261 30.4347 12.8949 31.6508 12.6306C31.9785 12.4274 32.2752 12.1781 32.5319 11.8904C34.4529 9.7756 33.5717 5.89845 30.611 3.29019Z" stroke="#680500" stroke-width="2.13243" stroke-miterlimit="22.93"/>
<path fill-rule="evenodd" clip-rule="evenodd" d="M30.611 3.29019C27.6326 0.699553 23.7202 0.311873 21.7993 2.4443C21.5454 2.734 21.3374 3.06087 21.1825 3.41357C21.0415 4.66483 22.6628 7.11448 25.2358 9.37028C27.8088 11.6261 30.4347 12.8949 31.6508 12.6306C31.9785 12.4274 32.2752 12.1781 32.5319 11.8904C34.4529 9.7756 33.5717 5.89845 30.611 3.29019Z" fill="#C70D00"/>
<path fill-rule="evenodd" clip-rule="evenodd" d="M26.2405 10.1809C27.0389 10.8164 27.8943 11.3769 28.7959 11.8551C29.0847 11.9657 29.3961 12.0042 29.7032 11.9674C30.0102 11.9305 30.3037 11.8194 30.5582 11.6436C30.7858 11.3289 30.9918 10.9992 31.175 10.6567C32.5144 8.06608 33.0607 5.63407 30.5934 3.29016C28.1262 0.946249 27.7208 4.29464 25.1125 5.33442C22.5043 6.3742 24.7601 6.05699 24.6367 6.4447C24.6288 7.14485 24.7675 7.83889 25.0436 8.4823C25.3198 9.12571 25.7275 9.70428 26.2405 10.1809Z" fill="#E91300"/>
<path fill-rule="evenodd" clip-rule="evenodd" d="M28.32 5.89838C25.3593 3.30774 22.2752 1.96838 21.4469 2.93767C20.6186 3.90695 22.3105 6.77961 25.2712 9.37024C28.2319 11.9609 31.2984 13.3002 32.1443 12.331C32.9902 11.3617 31.2631 8.50664 28.32 5.89838Z" fill="#870600"/>
<path fill-rule="evenodd" clip-rule="evenodd" d="M28.1435 6.09229C25.5176 3.78363 22.8565 2.56762 22.0282 3.44879C21.1999 4.32996 22.8037 6.86772 25.4295 9.17639C28.0554 11.485 30.8047 12.7011 31.5449 11.8199C32.285 10.9387 30.7694 8.40096 28.1435 6.09229Z" fill="#680500"/>
<path fill-rule="evenodd" clip-rule="evenodd" d="M30.6109 3.29019C27.6325 0.699553 23.7201 0.311873 21.7992 2.4443L21.6405 2.63813C23.5791 0.699561 27.3681 1.12255 30.2584 3.66032C33.1486 6.19809 34.0474 9.89892 32.3732 12.0666L32.5318 11.8904C34.4527 9.7756 33.5716 5.89845 30.6109 3.29019Z" fill="white"/>
<path fill-rule="evenodd" clip-rule="evenodd" d="M31.3689 4.25948C30.4349 3.18445 29.3598 2.65578 28.9897 3.07874C28.6196 3.5017 29.0778 4.71768 30.0295 5.7927C30.9812 6.86773 32.0386 7.3964 32.4087 6.97344C32.7788 6.55048 32.3206 5.3345 31.3689 4.25948Z" fill="white"/>
<path fill-rule="evenodd" clip-rule="evenodd" d="M4.01755 3.29016C6.97828 0.699522 10.9083 0.311842 12.8292 2.44427C13.0831 2.73397 13.2912 3.06084 13.4461 3.41354C13.5871 4.6648 11.9657 7.11445 9.39271 9.37025C6.8197 11.626 4.19379 12.8949 2.97778 12.6305C2.65006 12.4274 2.3533 12.1781 2.09661 11.8904C0.158037 9.77557 1.0392 5.89842 4.01755 3.29016Z" stroke="#680500" stroke-width="2.13243" stroke-miterlimit="22.93"/>
<path fill-rule="evenodd" clip-rule="evenodd" d="M4.01755 3.29016C6.97828 0.699522 10.9083 0.311842 12.8292 2.44427C13.0831 2.73397 13.2912 3.06084 13.4461 3.41354C13.5871 4.6648 11.9657 7.11445 9.39271 9.37025C6.8197 11.626 4.19379 12.8949 2.97778 12.6305C2.65006 12.4274 2.3533 12.1781 2.09661 11.8904C0.158037 9.77557 1.0392 5.89842 4.01755 3.29016Z" fill="#C70D00"/>
<path fill-rule="evenodd" clip-rule="evenodd" d="M8.37032 10.1809C7.57191 10.8164 6.71651 11.3769 5.81496 11.8551C5.52613 11.9657 5.21467 12.0042 4.9076 11.9674C4.60053 11.9305 4.30709 11.8194 4.05262 11.6436C3.82471 11.3326 3.62423 11.0024 3.45343 10.6567C2.09643 8.06608 1.55009 5.63407 4.03498 3.29016C6.51988 0.946249 6.88998 4.29464 9.49824 5.33442C12.1065 6.3742 9.85069 6.05699 9.97405 6.4447C9.98192 7.14485 9.84332 7.83889 9.56714 8.4823C9.29095 9.12571 8.88329 9.70428 8.37032 10.1809Z" fill="#E91300"/>
<path fill-rule="evenodd" clip-rule="evenodd" d="M6.29051 5.89838C9.25124 3.30774 12.3353 1.96838 13.1636 2.93767C13.9919 3.90695 12.3001 6.77961 9.33937 9.37024C6.37864 11.9609 3.31219 13.3002 2.46626 12.331C1.62034 11.3617 3.3474 8.50664 6.29051 5.89838Z" fill="#870600"/>
<path fill-rule="evenodd" clip-rule="evenodd" d="M6.46711 6.09229C9.09299 3.78363 11.7541 2.56762 12.5824 3.44879C13.4107 4.32996 11.807 6.86772 9.18112 9.17639C6.55524 11.485 3.80599 12.7011 3.06581 11.8199C2.32563 10.9387 3.8236 8.40096 6.46711 6.09229Z" fill="#680500"/>
<path fill-rule="evenodd" clip-rule="evenodd" d="M4.01755 3.29016C6.97828 0.699522 10.9083 0.311842 12.8292 2.44427L12.9879 2.6381C11.0493 0.699531 7.26029 1.12252 4.38768 3.66029C1.51507 6.19806 0.580992 9.89889 2.25521 12.0666L2.09661 11.8904C0.158037 9.77557 1.0392 5.89842 4.01755 3.29016Z" fill="white"/>
<path fill-rule="evenodd" clip-rule="evenodd" d="M3.24195 4.25948C4.19361 3.18445 5.25097 2.65578 5.62106 3.07874C5.99115 3.5017 5.62109 4.71768 4.59893 5.7927C3.57677 6.86773 2.57221 7.3964 2.20212 6.97344C1.83203 6.55048 2.29029 5.3345 3.24195 4.25948Z" fill="white"/>
<path fill-rule="evenodd" clip-rule="evenodd" d="M8.72274 6.49769C10.1497 5.29701 11.8135 4.4101 13.6057 3.89473C15.398 3.37937 17.2788 3.24711 19.1256 3.50642C20.9724 3.76574 22.7439 4.41086 24.3249 5.39988C25.906 6.38891 27.2612 7.6997 28.3023 9.24693C30.5792 12.4583 31.5804 16.4017 31.1114 20.3103C30.6424 24.2189 28.7366 27.8134 25.7646 30.395C24.3399 31.5992 22.6772 32.4894 20.8852 33.0077C19.0932 33.526 17.2121 33.6607 15.3646 33.4029C13.517 33.1452 11.7446 32.5008 10.1629 31.5118C8.58116 30.5229 7.2257 29.2115 6.18497 27.6634C3.90305 24.4506 2.89883 20.5033 3.36796 16.5906C3.8371 12.6779 5.74599 9.07998 8.72274 6.49769Z" stroke="#680500" stroke-width="2.15005" stroke-miterlimit="22.93"/>
<path fill-rule="evenodd" clip-rule="evenodd" d="M8.72274 6.49769C10.1497 5.29701 11.8135 4.4101 13.6057 3.89473C15.398 3.37937 17.2788 3.24711 19.1256 3.50642C20.9724 3.76574 22.7439 4.41086 24.3249 5.39988C25.906 6.38891 27.2612 7.6997 28.3023 9.24693C30.5792 12.4583 31.5804 16.4017 31.1114 20.3103C30.6424 24.2189 28.7366 27.8134 25.7646 30.395C24.3399 31.5992 22.6772 32.4894 20.8852 33.0077C19.0932 33.526 17.2121 33.6607 15.3646 33.4029C13.517 33.1452 11.7446 32.5008 10.1629 31.5118C8.58116 30.5229 7.2257 29.2115 6.18497 27.6634C3.90305 24.4506 2.89883 20.5033 3.36796 16.5906C3.8371 12.6779 5.74599 9.07998 8.72274 6.49769Z" fill="#B90000"/>
<path fill-rule="evenodd" clip-rule="evenodd" d="M8.72266 6.49769C10.1496 5.29701 11.8134 4.4101 13.6057 3.89473C15.398 3.37937 17.2787 3.24711 19.1255 3.50642C20.9723 3.76574 22.7438 4.41086 24.3248 5.39988C25.9059 6.38891 27.2611 7.6997 28.3023 9.24693C29.7531 11.3059 30.6962 13.6789 31.0546 16.1722C31.4129 18.6654 31.1764 21.2081 30.3642 23.5924C29.8807 22.1469 29.1859 20.7809 28.3023 19.5389C27.2601 17.9921 25.9036 16.6823 24.3212 15.695C22.7388 14.7077 20.9661 14.065 19.1186 13.809C17.2711 13.5529 15.3904 13.6891 13.5992 14.2088C11.8079 14.7284 10.1462 15.6199 8.72266 16.825C6.58678 18.6171 4.98867 20.9654 4.10534 23.6099C3.08419 20.622 2.97813 17.3973 3.80072 14.3487C4.6233 11.3001 6.33708 8.56642 8.72266 6.49769Z" fill="#E91300"/>
<path fill-rule="evenodd" clip-rule="evenodd" d="M10.5909 7.37884C12.3002 6.06041 14.3622 5.27872 16.516 5.13278C18.6698 4.98684 20.8184 5.48319 22.6899 6.55898C24.5615 7.63477 26.0718 9.24164 27.0296 11.1762C27.9875 13.1107 28.3498 15.286 28.0709 17.4266C27.7919 19.5671 26.8841 21.5769 25.4624 23.2013C24.0406 24.8257 22.1689 25.9918 20.0841 26.5519C17.9994 27.112 15.7953 27.0411 13.7509 26.348C11.7065 25.6549 9.91368 24.3708 8.59941 22.6583C7.72635 21.5245 7.08532 20.2297 6.71288 18.848C6.34045 17.4663 6.24392 16.0249 6.42886 14.6059C6.6138 13.1869 7.0766 11.8183 7.79074 10.5782C8.50487 9.33818 9.45636 8.25099 10.5909 7.37884Z" fill="#870600"/>
<path fill-rule="evenodd" clip-rule="evenodd" d="M10.5908 8.01329C12.3006 6.69718 14.3622 5.91762 16.5151 5.77326C18.6679 5.6289 20.8152 6.12621 22.6853 7.20225C24.5555 8.2783 26.0646 9.88476 27.0217 11.8185C27.9789 13.7522 28.3411 15.9264 28.0625 18.066C27.784 20.2055 26.8772 22.2145 25.4569 23.8387C24.0366 25.463 22.1665 26.6295 20.0831 27.1909C17.9998 27.7522 15.7968 27.6833 13.7527 26.9925C11.7086 26.3018 9.91519 25.0204 8.59937 23.3104C7.72359 22.176 7.08031 20.8801 6.70635 19.4967C6.33238 18.1133 6.23511 16.6696 6.42012 15.2485C6.60512 13.8274 7.06871 12.4568 7.78441 11.2153C8.50011 9.97371 9.45381 8.88559 10.5908 8.01329Z" fill="#F3F3F3"/>
<path fill-rule="evenodd" clip-rule="evenodd" d="M10.5557 8.25999L10.9962 7.92514L11.9479 9.14116L11.5073 9.49365L10.5557 8.25999Z" fill="black"/>
<path fill-rule="evenodd" clip-rule="evenodd" d="M7.34814 12.7539L7.54198 12.2604L8.98711 12.842L8.77563 13.3532L7.34814 12.7539Z" fill="black"/>
<path fill-rule="evenodd" clip-rule="evenodd" d="M6.83679 18.2701V17.7237L8.38766 17.5123V18.0586L6.83679 18.2701Z" fill="black"/>
<path fill-rule="evenodd" clip-rule="evenodd" d="M9.11061 23.2927L8.77576 22.8521L10.0094 21.9181L10.3443 22.341L9.11061 23.2927Z" fill="black"/>
<path fill-rule="evenodd" clip-rule="evenodd" d="M13.6574 26.5001L13.1464 26.2887L13.7456 24.8435L14.239 25.055L13.6574 26.5001Z" fill="black"/>
<path fill-rule="evenodd" clip-rule="evenodd" d="M19.1561 27.0113H18.6098L18.4159 25.478H18.9622L19.1561 27.0113Z" fill="black"/>
<path fill-rule="evenodd" clip-rule="evenodd" d="M24.1785 24.7025L23.7555 25.0374L22.8038 23.8213L23.2444 23.4866L24.1785 24.7025Z" fill="black"/>
<path fill-rule="evenodd" clip-rule="evenodd" d="M27.3858 20.2086L27.1743 20.7021L25.7468 20.1205L25.9407 19.6095L27.3858 20.2086Z" fill="black"/>
<path fill-rule="evenodd" clip-rule="evenodd" d="M27.8972 14.6925V15.2388L26.3463 15.4503V14.9039L27.8972 14.6925Z" fill="black"/>
<path fill-rule="evenodd" clip-rule="evenodd" d="M25.6059 9.66986L25.9408 10.1104L24.7072 11.0621L24.3723 10.6215L25.6059 9.66986Z" fill="black"/>
<path fill-rule="evenodd" clip-rule="evenodd" d="M21.0944 6.46237L21.6055 6.67384L21.0063 8.11897L20.4952 7.9075L21.0944 6.46237Z" fill="black"/>
<path fill-rule="evenodd" clip-rule="evenodd" d="M15.578 5.95135H16.1243L16.3358 7.48458H15.7895L15.578 5.95135Z" fill="black"/>
<path fill-rule="evenodd" clip-rule="evenodd" d="M22.5397 10.2514C22.6227 10.2956 22.6961 10.3561 22.7554 10.4291C22.8147 10.5021 22.8588 10.5863 22.8851 10.6766C22.9113 10.7669 22.9193 10.8615 22.9084 10.955C22.8975 11.0484 22.868 11.1388 22.8217 11.2207L19.297 17.5299C19.2528 17.6129 19.1924 17.6861 19.1193 17.7454C19.0463 17.8047 18.9622 17.8489 18.8718 17.8751C18.7815 17.9014 18.6868 17.9094 18.5934 17.8985C18.4999 17.8876 18.4096 17.8581 18.3278 17.8118C18.2462 17.766 18.1746 17.7046 18.117 17.6309C18.0595 17.5572 18.0172 17.4727 17.9926 17.3825C17.968 17.2923 17.9616 17.1981 17.9738 17.1054C17.9859 17.0127 18.0163 16.9233 18.0634 16.8425L21.588 10.5333C21.6806 10.3737 21.8309 10.2555 22.0078 10.2031C22.1848 10.1507 22.3751 10.168 22.5397 10.2514Z" fill="black"/>
<path fill-rule="evenodd" clip-rule="evenodd" d="M18.9797 16.6311C19.3182 16.8206 19.5689 17.1354 19.6777 17.5079C19.7864 17.8803 19.7446 18.2806 19.5612 18.6225C19.4216 18.8755 19.2103 19.0815 18.9537 19.2145C18.6972 19.3475 18.4071 19.4015 18.1199 19.3698C17.8327 19.3381 17.5613 19.222 17.34 19.0362C17.1187 18.8505 16.9574 18.6033 16.8764 18.326C16.7954 18.0486 16.7984 17.7534 16.8849 17.4777C16.9714 17.2021 17.1377 16.9583 17.3627 16.777C17.5877 16.5957 17.8613 16.4851 18.1491 16.4591C18.4368 16.4331 18.7259 16.493 18.9797 16.6311Z" fill="black"/>
<path fill-rule="evenodd" clip-rule="evenodd" d="M18.5039 17.4947C18.5599 17.5242 18.6095 17.5647 18.6497 17.6136C18.6899 17.6626 18.7199 17.7192 18.738 17.7799C18.756 17.8407 18.7618 17.9044 18.7549 17.9674C18.748 18.0304 18.7285 18.0914 18.6977 18.1467C18.6522 18.2286 18.5836 18.2952 18.5004 18.3382C18.4172 18.3812 18.3231 18.3988 18.23 18.3885C18.1369 18.3783 18.0489 18.3409 17.977 18.2809C17.905 18.2209 17.8525 18.1409 17.8258 18.0511C17.7991 17.9613 17.7995 17.8657 17.8269 17.7762C17.8543 17.6866 17.9076 17.6071 17.98 17.5477C18.0524 17.4883 18.1407 17.4515 18.2339 17.4421C18.3271 17.4327 18.421 17.451 18.5039 17.4947Z" fill="white"/>
<path fill-rule="evenodd" clip-rule="evenodd" d="M8.72277 6.49769C10.1498 5.29702 11.8135 4.4101 13.6058 3.89473C15.3981 3.37937 17.2788 3.24711 19.1256 3.50642C20.9724 3.76574 22.7439 4.41086 24.325 5.39988C25.906 6.38891 27.2612 7.6997 28.3024 9.24693C30.2783 12.0397 31.2983 15.3965 31.2102 18.8164C31.1475 15.6539 30.1342 12.5835 28.3024 10.0047C27.2616 8.45657 25.9062 7.14525 24.3245 6.15628C22.7428 5.16731 20.9703 4.52294 19.1228 4.26519C17.2752 4.00743 15.3941 4.14208 13.6021 4.66038C11.8101 5.17867 10.1475 6.06894 8.72277 7.27312C7.04234 8.69967 5.68687 10.4695 4.74756 12.4637C3.80825 14.4578 3.30688 16.63 3.27715 18.8341C3.19892 16.5007 3.6479 14.1797 4.59073 12.0438C5.53356 9.90796 6.94596 8.01221 8.72277 6.49769Z" fill="white"/>
<path fill-rule="evenodd" clip-rule="evenodd" d="M25.6062 30.5183C23.0236 29.1746 20.1552 28.4729 17.2439 28.4729C14.3326 28.4729 11.4642 29.1746 8.88159 30.5183C11.2362 32.4592 14.1925 33.5206 17.2439 33.5206C20.2953 33.5206 23.2516 32.4592 25.6062 30.5183Z" fill="#870600"/>
</svg>
