<svg width="66" height="56" viewBox="0 0 66 56" fill="none" xmlns="http://www.w3.org/2000/svg">
<path fill-rule="evenodd" clip-rule="evenodd" d="M32.575 0C7.24698 0 0 22.172 0 35.626C0 49.082 14.584 55.145 32.575 55.145C50.566 55.145 65.15 49.082 65.15 35.626C65.15 22.172 57.903 0 32.575 0Z" fill="#F9B902"/>
<path fill-rule="evenodd" clip-rule="evenodd" d="M32.061 0.894959C1.04701 0.795959 -3.62101 40.69 10.731 33.084C20.679 27.811 45.436 28.913 54.839 33.084C67.405 38.658 65.75 1.00296 32.061 0.894959Z" fill="#F9B902"/>
<path opacity="0.9545" fill-rule="evenodd" clip-rule="evenodd" d="M30.762 1.17906C1.33398 1.58006 -2.57402 39.2131 10.943 31.8241C20.313 26.7011 43.817 27.343 52.793 31.12C64.788 36.167 62.727 0.74206 30.762 1.17906Z" fill="#F9BE02"/>
<path opacity="0.9091" fill-rule="evenodd" clip-rule="evenodd" d="M29.463 1.46099C1.621 2.36499 -1.52799 37.736 11.155 30.563C19.947 25.59 42.197 25.772 50.746 29.154C62.17 33.674 59.705 0.480992 29.463 1.46099Z" fill="#FAC302"/>
<path opacity="0.8636" fill-rule="evenodd" clip-rule="evenodd" d="M28.163 1.74405C1.90899 3.14805 -0.483006 36.26 11.366 29.302C19.58 24.478 40.578 24.2021 48.699 27.1891C59.552 31.1821 56.681 0.219047 28.163 1.74405Z" fill="#FAC702"/>
<path opacity="0.8182" fill-rule="evenodd" clip-rule="evenodd" d="M26.863 2.02702C2.19501 3.93202 0.562003 34.784 11.578 28.041C19.213 23.368 38.958 22.63 46.653 25.223C56.935 28.69 53.658 -0.0429815 26.863 2.02702Z" fill="#FBCC02"/>
<path opacity="0.7727" fill-rule="evenodd" clip-rule="evenodd" d="M25.564 2.31012C2.483 4.71612 1.60799 33.3071 11.791 26.7801C18.848 22.2561 37.34 21.0591 44.607 23.2591C54.318 26.1981 50.634 -0.303879 25.564 2.31012Z" fill="#FBD102"/>
<path opacity="0.7273" fill-rule="evenodd" clip-rule="evenodd" d="M24.264 2.59301C2.76897 5.50101 2.65298 31.83 12.001 25.52C18.481 21.146 35.718 19.488 42.558 21.293C51.7 23.706 47.611 -0.565988 24.264 2.59301Z" fill="#FCD603"/>
<path opacity="0.6818" fill-rule="evenodd" clip-rule="evenodd" d="M22.965 2.877C3.05798 6.285 3.69997 30.354 12.213 24.259C18.115 20.035 34.099 17.917 40.512 19.328C49.082 21.214 44.588 -0.825998 22.965 2.877Z" fill="#FCDB03"/>
<path opacity="0.6364" fill-rule="evenodd" clip-rule="evenodd" d="M21.664 3.15913C3.34399 7.06913 4.74397 28.8771 12.424 22.9991C17.748 18.9241 32.479 16.3461 38.464 17.3631C46.464 18.7221 41.564 -1.08787 21.664 3.15913Z" fill="#FDE003"/>
<path opacity="0.5909" fill-rule="evenodd" clip-rule="evenodd" d="M20.365 3.44213C3.63198 7.85313 5.78998 27.4002 12.636 21.7382C17.383 17.8132 30.861 14.7771 36.419 15.3981C43.846 16.2301 38.542 -1.34887 20.365 3.44213Z" fill="#FDE403"/>
<path opacity="0.5455" fill-rule="evenodd" clip-rule="evenodd" d="M19.065 3.72497C3.918 8.63697 6.83499 25.923 12.848 20.477C17.016 16.702 29.24 13.2049 34.372 13.4319C41.23 13.7369 35.518 -1.61103 19.065 3.72497Z" fill="#FEE903"/>
<path opacity="0.5" fill-rule="evenodd" clip-rule="evenodd" d="M17.765 4.00808C4.205 9.42208 7.88 24.4471 13.059 19.2171C16.65 15.5921 27.621 11.6351 32.325 11.4681C38.611 11.2461 32.495 -1.87192 17.765 4.00808Z" fill="#FEEE03"/>
<path fill-rule="evenodd" clip-rule="evenodd" d="M32.575 0C7.24698 0 0 22.172 0 35.626C0 36.36 0.0460049 37.069 0.130005 37.759C1.205 24.267 9.16998 5.33499 32.575 5.33499C55.98 5.33499 63.944 24.267 65.02 37.759C65.104 37.069 65.15 36.359 65.15 35.626C65.15 22.172 57.903 0 32.575 0Z" fill="#FEEE03"/>
<path fill-rule="evenodd" clip-rule="evenodd" d="M32.575 29.5271C18.022 29.5271 6.22598 34.6071 6.22598 40.8731C6.22598 47.1391 18.023 52.2181 32.575 52.2181C47.128 52.2181 58.924 47.1391 58.924 40.8731C58.925 34.6061 47.128 29.5271 32.575 29.5271Z" fill="#F29E00"/>
<path fill-rule="evenodd" clip-rule="evenodd" d="M46.844 17.3861L42.368 13.031C41.801 12.478 40.887 12.491 40.334 13.059L32.574 21.034L24.815 13.059C24.263 12.491 23.348 12.479 22.782 13.031L18.305 17.3861C17.736 17.9391 17.726 18.8531 18.276 19.4201L26.21 27.574L18.276 35.726C17.725 36.293 17.737 37.208 18.305 37.759L22.782 42.1151C23.349 42.6681 24.262 42.654 24.815 42.087L32.574 34.1131L40.334 42.087C40.887 42.654 41.8 42.6671 42.368 42.1151L46.844 37.759C47.412 37.207 47.424 36.293 46.873 35.726L38.94 27.574L46.873 19.4201C47.424 18.8531 47.413 17.9391 46.844 17.3861Z" stroke="#F29E00" stroke-width="2.2025" stroke-miterlimit="22.9256"/>
<path fill-rule="evenodd" clip-rule="evenodd" d="M46.844 17.3861L42.368 13.031C41.801 12.478 40.887 12.491 40.334 13.059L32.574 21.034L24.815 13.059C24.263 12.491 23.348 12.479 22.782 13.031L18.305 17.3861C17.736 17.9391 17.726 18.8531 18.276 19.4201L26.21 27.574L18.276 35.726C17.725 36.293 17.737 37.208 18.305 37.759L22.782 42.1151C23.349 42.6681 24.262 42.654 24.815 42.087L32.574 34.1131L40.334 42.087C40.887 42.654 41.8 42.6671 42.368 42.1151L46.844 37.759C47.412 37.207 47.424 36.293 46.873 35.726L38.94 27.574L46.873 19.4201C47.424 18.8531 47.413 17.9391 46.844 17.3861Z" fill="#E6E6E6"/>
<path fill-rule="evenodd" clip-rule="evenodd" d="M42.368 13.03C41.801 12.477 40.887 12.4901 40.334 13.0581L32.574 21.033L24.815 13.0581C24.263 12.4901 23.348 12.478 22.782 13.03L18.305 17.385C17.737 17.937 17.726 18.852 18.276 19.419L26.198 27.561H38.949L46.871 19.419C47.423 18.852 47.411 17.937 46.842 17.385L42.368 13.03Z" fill="white"/>
<path opacity="0.2" fill-rule="evenodd" clip-rule="evenodd" d="M32.575 0C7.24698 0 0 22.172 0 35.626C0 35.76 0.00398144 35.892 0.00598145 36.024C24.198 49.457 34.702 23.275 64.844 30.685C63.242 17.365 54.989 0 32.575 0Z" fill="white"/>
<path opacity="0.2" fill-rule="evenodd" clip-rule="evenodd" d="M16.623 5.06097C6.799 10.854 1.38301 19.871 4.52601 25.201C7.66901 30.533 18.181 30.158 28.006 24.365C37.83 18.573 43.246 9.55497 40.104 4.22497C36.96 -1.10703 26.448 -0.732033 16.623 5.06097Z" fill="white"/>
<path opacity="0.5" fill-rule="evenodd" clip-rule="evenodd" d="M61.372 34.99C59.889 34.645 58.274 36.145 57.765 38.338C57.255 40.532 58.044 42.589 59.526 42.934C61.009 43.278 62.623 41.779 63.133 39.586C63.643 37.392 62.855 35.335 61.372 34.99Z" fill="white"/>
<path opacity="0.5" fill-rule="evenodd" clip-rule="evenodd" d="M19.112 5.27706C14.817 7.31306 12.231 10.852 13.335 13.182C14.439 15.512 18.816 15.751 23.111 13.716C27.406 11.68 29.993 8.14106 28.888 5.81106C27.784 3.48106 23.406 3.24306 19.112 5.27706Z" fill="white"/>
<path opacity="0.5" fill-rule="evenodd" clip-rule="evenodd" d="M8.034 16.399C6.701 18.246 6.43199 20.328 7.43299 21.051C8.43499 21.775 10.328 20.865 11.66 19.019C12.993 17.173 13.263 15.0899 12.261 14.3669C11.26 13.6429 9.367 14.553 8.034 16.399Z" fill="white"/>
</svg>
