<svg width="95" height="81" viewBox="0 0 95 81" fill="none" xmlns="http://www.w3.org/2000/svg">
<path fill-rule="evenodd" clip-rule="evenodd" d="M47.3443 0C10.5339 0 0 32.2222 0 51.777C0 71.3319 21.1971 80.145 47.3443 80.145C73.4901 80.145 94.6872 71.3333 94.6872 51.777C94.6872 32.2222 84.1534 0 47.3443 0Z" fill="#F9B902"/>
<path fill-rule="evenodd" clip-rule="evenodd" d="M46.5972 1.30068C1.52302 1.1568 -5.26122 59.1353 15.5973 48.0826C30.0537 40.419 66.0343 42.0192 79.7016 48.0826C97.9644 56.1835 95.5591 1.45619 46.5972 1.30068Z" fill="#F9B902"/>
<path opacity="0.9545" fill-rule="evenodd" clip-rule="evenodd" d="M44.7078 1.71198C1.94009 2.29623 -3.74105 56.9902 15.9053 46.2499C29.5218 38.8044 63.6828 39.7374 76.7266 45.2268C94.1595 52.5618 91.1656 1.07832 44.7078 1.71198Z" fill="#F9BE02"/>
<path opacity="0.9091" fill-rule="evenodd" clip-rule="evenodd" d="M42.8214 2.12324C2.35717 3.43561 -2.21943 54.8435 16.2134 44.4186C28.9913 37.1897 61.3283 37.4542 73.753 42.3694C90.3561 48.9386 86.7721 0.697499 42.8214 2.12324Z" fill="#FAC302"/>
<path opacity="0.8636" fill-rule="evenodd" clip-rule="evenodd" d="M40.9306 2.53459C2.7743 4.57364 -0.702122 52.6984 16.5201 42.586C28.4579 35.575 58.9739 35.1725 70.778 39.5151C86.5512 45.3168 82.3786 0.316773 40.9306 2.53459Z" fill="#FAC702"/>
<path opacity="0.8182" fill-rule="evenodd" clip-rule="evenodd" d="M39.0428 2.94435C3.19298 5.71444 0.818213 50.5517 16.8283 40.7533C27.9261 33.9603 56.621 32.8877 67.8046 36.6577C82.7465 41.6965 77.9838 -0.0640836 39.0428 2.94435Z" fill="#FBCC02"/>
<path opacity="0.7727" fill-rule="evenodd" clip-rule="evenodd" d="M37.1534 3.35704C3.60858 6.8538 2.33689 48.4065 17.1349 38.9205C27.3912 32.3441 54.2665 30.6059 64.828 33.8018C78.9444 38.0732 73.5903 -0.442014 37.1534 3.35704Z" fill="#FBD102"/>
<path opacity="0.7273" fill-rule="evenodd" clip-rule="evenodd" d="M35.2655 3.76861C4.02716 7.99495 3.85712 46.2602 17.443 37.0881C26.8622 30.7312 51.9136 28.323 61.8545 30.9463C75.1396 34.4517 69.1968 -0.822522 35.2655 3.76861Z" fill="#FCD603"/>
<path opacity="0.6818" fill-rule="evenodd" clip-rule="evenodd" d="M33.3761 4.17969C4.44285 9.13416 5.37589 44.1134 17.7497 35.2567C26.3274 29.1177 49.5577 26.0395 58.8781 28.0902C71.3347 30.8298 64.8034 -1.20207 33.3761 4.17969Z" fill="#FCDB03"/>
<path opacity="0.6364" fill-rule="evenodd" clip-rule="evenodd" d="M31.4869 4.59106C4.86151 10.2722 6.8962 41.9669 18.0579 33.4255C25.797 27.5031 47.2049 23.7564 55.9046 25.233C67.53 27.2081 60.4086 -1.58277 31.4869 4.59106Z" fill="#FDE003"/>
<path opacity="0.5909" fill-rule="evenodd" clip-rule="evenodd" d="M29.5973 5.00237C5.27692 11.4131 8.41471 39.8218 18.3643 31.5929C25.2619 25.8885 44.8517 21.4746 52.9294 22.3772C63.7249 23.5864 56.0148 -1.96208 29.5973 5.00237Z" fill="#FDE403"/>
<path opacity="0.5455" fill-rule="evenodd" clip-rule="evenodd" d="M27.7094 5.41213C5.69552 12.5524 9.93494 37.6736 18.6725 29.7601C24.7315 24.2737 42.4973 19.1913 49.9544 19.5212C59.9215 19.9645 51.6214 -2.34294 27.7094 5.41213Z" fill="#FEE903"/>
<path opacity="0.5" fill-rule="evenodd" clip-rule="evenodd" d="M25.8202 5.82504C6.11273 13.6935 11.4538 35.5286 18.9792 27.929C24.1982 22.6592 40.1429 16.9097 46.978 16.6656C56.1167 16.3429 47.2266 -2.72212 25.8202 5.82504Z" fill="#FEEE03"/>
<path fill-rule="evenodd" clip-rule="evenodd" d="M47.3443 0C10.5339 0 0 32.2222 0 51.777C0 52.8438 0.0683082 53.8742 0.19039 54.8756C1.75274 35.2684 13.3287 7.75217 47.3443 7.75217C81.36 7.75217 92.9345 35.2684 94.4968 54.8756C94.6204 53.8728 94.6872 52.8423 94.6872 51.777C94.6872 32.2222 84.1534 0 47.3443 0Z" fill="#FEEE03"/>
<path fill-rule="evenodd" clip-rule="evenodd" d="M47.3442 42.9116C26.1936 42.9116 9.04846 50.2946 9.04846 59.4013C9.04846 68.508 26.1936 75.891 47.3442 75.891C68.4949 75.891 85.6386 68.508 85.6386 59.4013C85.64 50.2946 68.4949 42.9116 47.3442 42.9116Z" fill="#F29E00"/>
<path fill-rule="evenodd" clip-rule="evenodd" d="M56.1565 41.3071L28.0625 25.0881C25.9149 24.2204 24.6988 24.7925 24.7069 27.2329V57.6684C24.7422 61.5499 26.7609 61.2611 29.1091 60.2985L56.0562 44.7412C57.3442 43.6376 57.5448 42.5001 56.1565 41.3071Z" stroke="#F29E00" stroke-width="2.60292" stroke-miterlimit="22.9256"/>
<path fill-rule="evenodd" clip-rule="evenodd" d="M56.1565 41.3071L28.0625 25.0881C25.9149 24.2204 24.6988 24.7925 24.7069 27.2329V57.6684C24.7422 61.5499 26.7609 61.2611 29.1091 60.2985L56.0562 44.7412C57.3442 43.6376 57.5448 42.5001 56.1565 41.3071Z" fill="#E6E6E6"/>
<path fill-rule="evenodd" clip-rule="evenodd" d="M28.0625 25.0881C25.9149 24.2204 24.6988 24.7925 24.7069 27.2329V43.1604H57.1001C57.1828 42.5584 56.8927 41.9415 56.1565 41.3084L28.0625 25.0881Z" fill="white"/>
<path fill-rule="evenodd" clip-rule="evenodd" d="M78.977 41.3071L50.8829 25.0881C48.7354 24.2204 47.5192 24.7925 47.5274 27.2329V57.6684C47.5626 61.5499 49.5814 61.2611 51.9295 60.2985L78.8766 44.7412C80.1646 43.6376 80.3653 42.5001 78.977 41.3071Z" stroke="#F29E00" stroke-width="2.60292" stroke-miterlimit="22.9256"/>
<path fill-rule="evenodd" clip-rule="evenodd" d="M78.977 41.3071L50.8829 25.0881C48.7354 24.2204 47.5192 24.7925 47.5274 27.2329V57.6684C47.5626 61.5499 49.5814 61.2611 51.9295 60.2985L78.8766 44.7412C80.1646 43.6376 80.3653 42.5001 78.977 41.3071Z" fill="#E6E6E6"/>
<path fill-rule="evenodd" clip-rule="evenodd" d="M50.8829 25.0881C48.7354 24.2204 47.5192 24.7925 47.5274 27.2329V43.1604H79.9206C80.0033 42.5584 79.7131 41.9415 78.977 41.3084L50.8829 25.0881Z" fill="white"/>
<path opacity="0.2" fill-rule="evenodd" clip-rule="evenodd" d="M47.3443 0C10.5339 0 0 32.2222 0 51.777C0 51.9703 0.00726671 52.1636 0.0101734 52.3555C35.1696 71.8783 50.4342 33.8267 94.2425 44.596C91.9142 25.236 79.9197 0 47.3443 0Z" fill="white"/>
<path opacity="0.2" fill-rule="evenodd" clip-rule="evenodd" d="M24.1605 7.35392C9.88131 15.7732 2.01142 28.878 6.57785 36.6244C11.1472 44.3722 26.4248 43.8272 40.7025 35.408C54.9817 26.9887 62.853 13.8838 58.2851 6.13745C53.7173 -1.6089 38.4382 -1.06389 24.1605 7.35392Z" fill="white"/>
<path opacity="0.5" fill-rule="evenodd" clip-rule="evenodd" d="M89.195 50.8529C87.0411 50.3515 84.6925 52.5301 83.9527 55.7187C83.213 58.9059 84.3582 61.8969 86.5136 62.3969C88.6689 62.8983 91.0146 60.7197 91.7558 57.5296C92.4955 54.3424 91.3503 51.3529 89.195 50.8529Z" fill="white"/>
<path opacity="0.5" fill-rule="evenodd" clip-rule="evenodd" d="M27.7763 7.66938C21.5342 10.6284 17.7744 15.7704 19.3803 19.1567C20.9848 22.543 27.3476 22.8918 33.5883 19.9328C39.8304 16.9752 43.5902 11.8318 41.9857 8.44402C40.3798 5.05917 34.0185 4.71036 27.7763 7.66938Z" fill="white"/>
<path opacity="0.5" fill-rule="evenodd" clip-rule="evenodd" d="M11.6761 23.8321C9.7388 26.515 9.3493 29.5424 10.8041 30.5931C12.2604 31.6454 15.0116 30.3228 16.9474 27.6399C18.8862 24.957 19.2757 21.9297 17.8209 20.8775C16.3646 19.8267 13.6134 21.1507 11.6761 23.8321Z" fill="white"/>
</svg>
