<svg width="66" height="56" viewBox="0 0 66 56" fill="none" xmlns="http://www.w3.org/2000/svg">
<path fill-rule="evenodd" clip-rule="evenodd" d="M32.575 0C7.24701 0 0 22.171 0 35.626C0 49.081 14.584 55.145 32.575 55.145C50.566 55.145 65.15 49.082 65.15 35.626C65.15 22.171 57.903 0 32.575 0Z" fill="#F9B902"/>
<path fill-rule="evenodd" clip-rule="evenodd" d="M32.0609 0.89502C1.04695 0.79602 -3.62107 40.689 10.7309 33.084C20.6789 27.811 45.4359 28.912 54.8389 33.084C67.4049 38.658 65.7499 1.00202 32.0609 0.89502Z" fill="#F9B902"/>
<path opacity="0.9545" fill-rule="evenodd" clip-rule="evenodd" d="M30.762 1.178C1.33501 1.58 -2.57399 39.213 10.943 31.823C20.313 26.7 43.817 27.342 52.793 31.119C64.788 36.166 62.727 0.742004 30.762 1.178Z" fill="#F9BE02"/>
<path opacity="0.9091" fill-rule="evenodd" clip-rule="evenodd" d="M29.4631 1.46104C1.6221 2.36404 -1.52791 37.736 11.1551 30.563C19.9471 25.589 42.1971 25.771 50.7461 29.153C62.1701 33.673 59.7041 0.480035 29.4631 1.46104Z" fill="#FAC302"/>
<path opacity="0.8636" fill-rule="evenodd" clip-rule="evenodd" d="M28.163 1.744C1.90904 3.147 -0.483962 36.26 11.366 29.302C19.58 24.478 40.578 24.201 48.699 27.189C59.552 31.181 56.681 0.217995 28.163 1.744Z" fill="#FAC702"/>
<path opacity="0.8182" fill-rule="evenodd" clip-rule="evenodd" d="M26.8631 2.02604C2.19507 3.93204 0.562064 34.783 11.5781 28.041C19.2131 23.367 38.9581 22.629 46.6521 25.223C56.9351 28.69 53.6581 -0.0439616 26.8631 2.02604Z" fill="#FBCC02"/>
<path opacity="0.7727" fill-rule="evenodd" clip-rule="evenodd" d="M25.564 2.31001C2.483 4.71601 1.60799 33.307 11.791 26.78C18.848 22.255 37.34 21.059 44.607 23.258C54.318 26.197 50.634 -0.303995 25.564 2.31001Z" fill="#FBD102"/>
<path opacity="0.7273" fill-rule="evenodd" clip-rule="evenodd" d="M24.2641 2.59302C2.7691 5.50102 2.6531 31.83 12.0011 25.519C18.4811 21.145 35.7181 19.488 42.5581 21.293C51.7001 23.705 47.6111 -0.565978 24.2641 2.59302Z" fill="#FCD603"/>
<path opacity="0.6818" fill-rule="evenodd" clip-rule="evenodd" d="M22.964 2.87603C3.05702 6.28503 3.69903 30.353 12.212 24.259C18.114 20.035 34.098 17.917 40.511 19.328C49.082 21.213 44.588 -0.826975 22.964 2.87603Z" fill="#FCDB03"/>
<path opacity="0.6364" fill-rule="evenodd" clip-rule="evenodd" d="M21.664 3.15903C3.34403 7.06803 4.74404 28.876 12.424 22.999C17.748 18.924 32.479 16.346 38.464 17.362C46.464 18.721 41.564 -1.08897 21.664 3.15903Z" fill="#FDE003"/>
<path opacity="0.5909" fill-rule="evenodd" clip-rule="evenodd" d="M20.365 3.44202C3.63198 7.85302 5.78998 27.4 12.636 21.738C17.383 17.813 30.861 14.776 36.419 15.397C43.846 16.229 38.542 -1.34998 20.365 3.44202Z" fill="#FDE403"/>
<path opacity="0.5455" fill-rule="evenodd" clip-rule="evenodd" d="M19.0651 3.72399C3.91809 8.63699 6.83508 25.922 12.8481 20.477C17.0161 16.702 29.2401 13.205 34.3721 13.432C41.2291 13.737 35.5181 -1.61201 19.0651 3.72399Z" fill="#FEE903"/>
<path opacity="0.5" fill-rule="evenodd" clip-rule="evenodd" d="M17.764 4.00798C4.20402 9.42198 7.87903 24.446 13.058 19.217C16.648 15.591 27.62 11.635 32.324 11.467C38.61 11.245 32.495 -1.87302 17.764 4.00798Z" fill="#FEEE03"/>
<path fill-rule="evenodd" clip-rule="evenodd" d="M32.575 0C7.24701 0 0 22.171 0 35.626C0 36.36 0.0460049 37.069 0.130005 37.758C1.205 24.267 9.17001 5.334 32.575 5.334C55.98 5.334 63.944 24.267 65.02 37.758C65.104 37.068 65.15 36.359 65.15 35.626C65.15 22.171 57.903 0 32.575 0Z" fill="#FEEE03"/>
<path fill-rule="evenodd" clip-rule="evenodd" d="M32.5751 29.526C18.0221 29.526 6.22607 34.606 6.22607 40.872C6.22607 47.138 18.0231 52.218 32.5751 52.218C47.1281 52.218 58.9241 47.138 58.9241 40.872C58.9241 34.606 47.1281 29.526 32.5751 29.526Z" fill="#F29E00"/>
<path d="M42.0721 30.054H31.5601V39.375H42.0721V30.054Z" fill="#C80D00"/>
<path fill-rule="evenodd" clip-rule="evenodd" d="M35.813 30.5759H33.5581C33.2021 30.5759 32.9091 30.8679 32.9091 31.2239V33.4779C32.9091 33.8349 33.2021 34.1269 33.5581 34.1269H35.813C36.17 34.1269 36.4611 33.8349 36.4611 33.4779V31.2239C36.4611 30.8679 36.169 30.5759 35.813 30.5759Z" stroke="#F29E00" stroke-width="1.9828" stroke-miterlimit="22.9256"/>
<path fill-rule="evenodd" clip-rule="evenodd" d="M35.813 34.9089H33.5581C33.2021 34.9089 32.9091 35.2019 32.9091 35.5579V37.8119C32.9091 38.1689 33.2021 38.4609 33.5581 38.4609H35.813C36.17 38.4609 36.4611 38.1689 36.4611 37.8119V35.5579C36.4611 35.2019 36.169 34.9089 35.813 34.9089Z" stroke="#F29E00" stroke-width="1.9828" stroke-miterlimit="22.9256"/>
<path fill-rule="evenodd" clip-rule="evenodd" d="M40.3361 30.5759H38.0821C37.7251 30.5759 37.4331 30.8679 37.4331 31.2239V33.4779C37.4331 33.8349 37.7251 34.1269 38.0821 34.1269H40.3361C40.6911 34.1269 40.9851 33.8349 40.9851 33.4779V31.2239C40.9861 30.8679 40.6921 30.5759 40.3361 30.5759Z" stroke="#F29E00" stroke-width="1.9828" stroke-miterlimit="22.9256"/>
<path fill-rule="evenodd" clip-rule="evenodd" d="M40.3361 34.9089H38.0821C37.7251 34.9089 37.4331 35.2019 37.4331 35.5579V37.8119C37.4331 38.1689 37.7251 38.4609 38.0821 38.4609H40.3361C40.6911 38.4609 40.9851 38.1689 40.9851 37.8119V35.5579C40.9861 35.2019 40.6921 34.9089 40.3361 34.9089Z" stroke="#F29E00" stroke-width="1.9828" stroke-miterlimit="22.9256"/>
<path fill-rule="evenodd" clip-rule="evenodd" d="M33.913 13.311C32.851 12.562 31.839 12.671 30.857 13.366L17.008 27.908C16.149 29.174 15.894 30.264 19.349 30.284H21.457V40.797C21.457 41.653 22.155 42.352 23.012 42.352H42.137C42.992 42.352 43.691 41.653 43.691 40.797V30.284H46.441C48.613 30.288 49.122 29.631 48.349 28.472L33.913 13.311ZM36.461 37.812C36.461 38.169 36.169 38.461 35.813 38.461H33.558C33.202 38.461 32.909 38.169 32.909 37.812V35.558C32.909 35.202 33.202 34.909 33.558 34.909H35.813C36.17 34.909 36.461 35.202 36.461 35.558V37.812ZM36.461 33.479C36.461 33.836 36.169 34.128 35.813 34.128H33.558C33.202 34.128 32.909 33.836 32.909 33.479V31.224C32.909 30.868 33.202 30.576 33.558 30.576H35.813C36.17 30.576 36.461 30.868 36.461 31.224V33.479ZM40.986 37.812C40.986 38.169 40.692 38.461 40.337 38.461H38.083C37.726 38.461 37.434 38.169 37.434 37.812V35.558C37.434 35.202 37.726 34.909 38.083 34.909H40.337C40.692 34.909 40.986 35.202 40.986 35.558V37.812ZM40.986 33.479C40.986 33.836 40.692 34.128 40.337 34.128H38.083C37.726 34.128 37.434 33.836 37.434 33.479V31.224C37.434 30.868 37.726 30.576 38.083 30.576H40.337C40.692 30.576 40.986 30.868 40.986 31.224V33.479Z" stroke="#F29E00" stroke-width="1.9828" stroke-miterlimit="22.9256"/>
<path fill-rule="evenodd" clip-rule="evenodd" d="M33.558 38.461C33.202 38.461 32.909 38.169 32.909 37.812V35.558C32.909 35.202 33.202 34.909 33.558 34.909H34.686V34.128H33.558C33.202 34.128 32.909 33.836 32.909 33.479V31.224C32.909 30.868 33.202 30.576 33.558 30.576H34.686V14.121L33.914 13.31C32.852 12.561 31.84 12.67 30.858 13.365L17.009 27.907C16.15 29.173 15.895 30.263 19.35 30.283H21.458V40.796C21.458 41.652 22.156 42.351 23.013 42.351H34.685V38.46H33.558V38.461Z" fill="#E6E6E6"/>
<path fill-rule="evenodd" clip-rule="evenodd" d="M39.21 18.8719V30.576H40.337C40.692 30.576 40.986 30.868 40.986 31.224V33.478C40.986 33.835 40.692 34.127 40.337 34.127H39.21V34.908H40.337C40.692 34.908 40.986 35.2009 40.986 35.5569V37.811C40.986 38.168 40.692 38.4599 40.337 38.4599H39.21V42.351H42.138C42.993 42.351 43.692 41.652 43.692 40.796V30.283H46.442C48.614 30.287 49.123 29.6299 48.35 28.4709L39.21 18.8719Z" fill="#E6E6E6"/>
<path fill-rule="evenodd" clip-rule="evenodd" d="M38.0821 38.461C37.7251 38.461 37.4331 38.169 37.4331 37.812V35.558C37.4331 35.202 37.7251 34.909 38.0821 34.909H39.2101V34.128H38.0821C37.7251 34.128 37.4331 33.836 37.4331 33.479V31.224C37.4331 30.868 37.7251 30.576 38.0821 30.576H39.2101V18.872L34.6851 14.121V30.576H35.813C36.17 30.576 36.4611 30.868 36.4611 31.224V33.478C36.4611 33.835 36.169 34.127 35.813 34.127H34.6851V34.908H35.813C36.17 34.908 36.4611 35.201 36.4611 35.557V37.811C36.4611 38.168 36.169 38.46 35.813 38.46H34.6851V42.351H39.2101V38.46H38.0821V38.461Z" fill="#E6E6E6"/>
<path fill-rule="evenodd" clip-rule="evenodd" d="M17.009 27.907C16.15 29.173 15.894 30.263 19.35 30.282H21.458V40.795C21.458 41.652 22.156 42.351 23.012 42.351H32.576V12.798C31.99 12.762 31.42 12.967 30.857 13.365L17.009 27.907Z" fill="white"/>
<path opacity="0.2" fill-rule="evenodd" clip-rule="evenodd" d="M32.575 0C7.24701 0 0 22.171 0 35.626C0 35.759 0.00401196 35.892 0.00601196 36.024C24.198 49.457 34.702 23.275 64.844 30.685C63.242 17.364 54.989 0 32.575 0Z" fill="white"/>
<path opacity="0.2" fill-rule="evenodd" clip-rule="evenodd" d="M16.623 5.06C6.799 10.853 1.38301 19.87 4.52601 25.2C7.66901 30.531 18.181 30.156 28.006 24.363C37.83 18.57 43.246 9.553 40.104 4.223C36.96 -1.107 26.447 -0.731997 16.623 5.06Z" fill="white"/>
<path opacity="0.5" fill-rule="evenodd" clip-rule="evenodd" d="M61.372 34.9901C59.889 34.6451 58.274 36.1441 57.765 38.3381C57.255 40.5311 58.044 42.5891 59.526 42.9331C61.009 43.2781 62.623 41.7791 63.133 39.5841C63.642 37.3911 62.854 35.3341 61.372 34.9901Z" fill="white"/>
<path opacity="0.5" fill-rule="evenodd" clip-rule="evenodd" d="M19.112 5.27699C14.817 7.31299 12.231 10.851 13.335 13.181C14.439 15.511 18.816 15.751 23.111 13.715C27.406 11.68 29.993 8.14099 28.889 5.80999C27.784 3.48099 23.406 3.24099 19.112 5.27699Z" fill="white"/>
<path opacity="0.5" fill-rule="evenodd" clip-rule="evenodd" d="M8.03403 16.398C6.70003 18.244 6.43205 20.327 7.43305 21.05C8.43505 21.774 10.328 20.864 11.66 19.018C12.993 17.172 13.263 15.089 12.261 14.365C11.26 13.642 9.36603 14.553 8.03403 16.398Z" fill="white"/>
</svg>
