<svg width="54" height="46" viewBox="0 0 54 46" fill="none" xmlns="http://www.w3.org/2000/svg">
<path fill-rule="evenodd" clip-rule="evenodd" d="M26.668 0C5.93286 0 0 18.1506 0 29.1665C0 40.1824 11.9394 45.146 26.668 45.146C41.3965 45.146 53.3359 40.1824 53.3359 29.1665C53.3359 18.1506 47.4031 0 26.668 0Z" fill="#F9B902"/>
<path fill-rule="evenodd" clip-rule="evenodd" d="M26.2472 0.732572C0.85715 0.651525 -2.96438 33.3104 8.78507 27.0837C16.9291 22.7669 37.1968 23.6699 44.8947 27.0837C55.182 31.6477 53.8271 0.820988 26.2472 0.732572Z" fill="#F9B902"/>
<path opacity="0.9545" fill-rule="evenodd" clip-rule="evenodd" d="M25.1838 0.964466C1.093 1.29275 -2.10716 32.1023 8.95872 26.0524C16.6296 21.8584 35.8715 22.384 43.2198 25.4761C53.0396 29.6079 51.3524 0.60671 25.1838 0.964466Z" fill="#F9BE02"/>
<path opacity="0.9091" fill-rule="evenodd" clip-rule="evenodd" d="M24.1205 1.19618C1.32807 1.93543 -1.25073 30.8932 9.13238 25.0209C16.3301 20.9489 34.5453 21.0987 41.5441 23.8666C50.8965 27.5678 48.8777 0.39307 24.1205 1.19618Z" fill="#FAC302"/>
<path opacity="0.8636" fill-rule="evenodd" clip-rule="evenodd" d="M23.0562 1.42781C1.56299 2.57721 -0.396072 29.6848 9.30509 23.9885C16.0296 20.0393 33.2199 19.8125 39.8682 22.2579C48.7532 25.5276 46.4028 0.178527 23.0562 1.42781Z" fill="#FAC702"/>
<path opacity="0.8182" fill-rule="evenodd" clip-rule="evenodd" d="M21.9919 1.6595C1.79712 3.21987 0.460243 28.4764 9.47864 22.9562C15.7291 19.1306 31.8936 18.5264 38.1924 20.6492C46.6107 23.4867 43.928 -0.0351324 21.9919 1.6595Z" fill="#FBCC02"/>
<path opacity="0.7727" fill-rule="evenodd" clip-rule="evenodd" d="M20.9284 1.89119C2.03288 3.86089 1.31654 27.2673 9.65298 21.9239C15.4303 18.2203 30.569 17.2395 36.5182 19.0405C44.4683 21.4474 41.4523 -0.248801 20.9284 1.89119Z" fill="#FBD102"/>
<path opacity="0.7273" fill-rule="evenodd" clip-rule="evenodd" d="M19.8643 2.12376C2.2671 4.50362 2.17213 26.059 9.82499 20.8933C15.1299 17.3124 29.2412 15.9551 34.8409 17.4328C42.3251 19.4074 38.9776 -0.462392 19.8643 2.12376Z" fill="#FCD603"/>
<path opacity="0.6818" fill-rule="evenodd" clip-rule="evenodd" d="M18.7999 2.35458C2.50278 5.1454 3.02837 24.849 9.99765 19.8601C14.8294 16.402 27.9149 14.6681 33.165 15.8232C40.1818 17.3672 36.5027 -0.676111 18.7999 2.35458Z" fill="#FCDB03"/>
<path opacity="0.6364" fill-rule="evenodd" clip-rule="evenodd" d="M17.7357 2.5861C2.73776 5.78707 3.8839 23.6397 10.1712 18.8276C14.5298 15.4923 26.5895 13.3818 31.4892 14.2144C38.0385 15.3261 34.0271 -0.890766 17.7357 2.5861Z" fill="#FDE003"/>
<path opacity="0.5909" fill-rule="evenodd" clip-rule="evenodd" d="M16.6722 2.81869C2.97351 6.42981 4.74018 22.4322 10.3448 17.7961C14.2309 14.5837 25.2649 12.0966 29.815 12.6066C35.8952 13.2869 31.553 -1.10517 16.6722 2.81869Z" fill="#FDE403"/>
<path opacity="0.5455" fill-rule="evenodd" clip-rule="evenodd" d="M15.608 3.04951C3.20773 7.07078 5.59577 21.223 10.5184 16.7646C13.9306 13.6741 23.9379 10.8113 28.1393 10.9963C33.7529 11.246 29.0775 -1.31888 15.608 3.04951Z" fill="#FEE903"/>
<path opacity="0.5" fill-rule="evenodd" clip-rule="evenodd" d="M14.5428 3.28122C3.44173 7.71265 6.45032 20.0131 10.6902 15.7323C13.6292 12.7646 22.6115 9.52517 26.4625 9.38763C31.6087 9.20671 26.6025 -1.53252 14.5428 3.28122Z" fill="#FEEE03"/>
<path fill-rule="evenodd" clip-rule="evenodd" d="M26.668 0C5.93286 0 0 18.1506 0 29.1665C0 29.7666 0.0376625 30.3478 0.10643 30.9119C0.986493 19.8665 7.50715 4.36757 26.668 4.36757C45.8288 4.36757 52.3486 19.8665 53.2295 30.9119C53.2982 30.347 53.3359 29.7658 53.3359 29.1665C53.3359 18.1506 47.4031 0 26.668 0Z" fill="#FEEE03"/>
<path fill-rule="evenodd" clip-rule="evenodd" d="M26.6681 24.1726C14.7541 24.1726 5.09711 28.3314 5.09711 33.4612C5.09711 38.5909 14.7549 42.7489 26.6681 42.7489C38.5821 42.7489 48.239 38.5901 48.239 33.4612C48.239 28.3314 38.5821 24.1726 26.6681 24.1726Z" fill="#F29E00"/>
<path fill-rule="evenodd" clip-rule="evenodd" d="M26.6681 13.7002C25.0832 13.7002 23.7995 14.9847 23.7995 16.5696C23.7995 18.1537 25.0832 19.439 26.6681 19.439C28.253 19.439 29.5375 18.1537 29.5375 16.5696C29.5375 14.9847 28.253 13.7002 26.6681 13.7002Z" stroke="#F29E00" stroke-width="1.57175" stroke-miterlimit="22.9256"/>
<path fill-rule="evenodd" clip-rule="evenodd" d="M27.9369 20.7344H25.3983C24.8064 20.7344 24.3234 21.2166 24.3234 21.8093V30.3316C24.3234 30.9226 24.8064 31.4057 25.3983 31.4057H27.9369C28.528 31.4057 29.011 30.9226 29.011 30.3316V21.8093C29.0119 21.2174 28.528 20.7344 27.9369 20.7344Z" stroke="#F29E00" stroke-width="1.57175" stroke-miterlimit="22.9256"/>
<path fill-rule="evenodd" clip-rule="evenodd" d="M26.668 9.62256C19.5154 9.62256 13.7176 15.4203 13.7176 22.573C13.7176 29.7257 19.5154 35.5234 26.668 35.5234C33.8207 35.5234 39.6185 29.7257 39.6185 22.573C39.6185 15.4203 33.8207 9.62256 26.668 9.62256ZM26.668 32.4322C21.2231 32.4322 16.8097 28.0179 16.8097 22.573C16.8097 17.1273 21.2231 12.7138 26.668 12.7138C32.113 12.7138 36.5264 17.1281 36.5264 22.573C36.5264 28.0179 32.113 32.4322 26.668 32.4322Z" stroke="#F29E00" stroke-width="1.57175" stroke-miterlimit="22.9256"/>
<path fill-rule="evenodd" clip-rule="evenodd" d="M26.6681 12.7131C21.2231 12.7131 16.8097 17.1274 16.8097 22.5723C16.8097 28.018 21.2231 32.4315 26.6681 32.4315C32.113 32.4315 36.5264 28.0172 36.5264 22.5723C36.5264 17.1274 32.113 12.7131 26.6681 12.7131ZM29.0119 30.3324C29.0119 30.9235 28.5289 31.4065 27.9378 31.4065H25.3991C24.8072 31.4065 24.3242 30.9235 24.3242 30.3324V21.8101C24.3242 21.2174 24.8072 20.7352 25.3991 20.7352H27.9378C28.5289 20.7352 29.0119 21.2174 29.0119 21.8101V30.3324ZM26.6681 19.4401C25.0831 19.4401 23.7995 18.1548 23.7995 16.5707C23.7995 14.9857 25.0831 13.7013 26.6681 13.7013C28.253 13.7013 29.5374 14.9857 29.5374 16.5707C29.5374 18.1548 28.253 19.4401 26.6681 19.4401Z" stroke="#F29E00" stroke-width="1.57175" stroke-miterlimit="22.9256"/>
<path fill-rule="evenodd" clip-rule="evenodd" d="M29.5374 16.5696C29.5374 14.9847 28.2538 13.7002 26.668 13.7002V19.4398C28.253 19.4398 29.5374 18.1545 29.5374 16.5696Z" fill="#E6E6E6"/>
<path fill-rule="evenodd" clip-rule="evenodd" d="M25.3983 20.7344C24.8064 20.7344 24.3234 21.2166 24.3234 21.8093V30.3316C24.3234 30.9226 24.8064 31.4057 25.3983 31.4057H26.668V20.7344H25.3983Z" fill="#E6E6E6"/>
<path fill-rule="evenodd" clip-rule="evenodd" d="M27.9369 20.7344H26.668V31.4057H27.9369C28.528 31.4057 29.011 30.9226 29.011 30.3316V21.8093C29.0119 21.2174 28.528 20.7344 27.9369 20.7344Z" fill="#E6E6E6"/>
<path fill-rule="evenodd" clip-rule="evenodd" d="M26.6681 19.4398V13.7002C25.0832 13.7002 23.7995 14.9847 23.7995 16.5696C23.7995 18.1545 25.0832 19.4398 26.6681 19.4398Z" fill="#E6E6E6"/>
<path fill-rule="evenodd" clip-rule="evenodd" d="M26.668 9.62256V12.7138C32.113 12.7138 36.5264 17.1281 36.5264 22.573C36.5264 28.0188 32.113 32.4322 26.668 32.4322V35.5234C33.8207 35.5234 39.6185 29.7257 39.6185 22.573C39.6185 15.4203 33.8207 9.62256 26.668 9.62256Z" fill="#E6E6E6"/>
<path fill-rule="evenodd" clip-rule="evenodd" d="M16.8097 22.573C16.8097 17.1273 21.2231 12.7138 26.668 12.7138V9.62256C19.5154 9.62256 13.7176 15.4203 13.7176 22.573C13.7176 29.7257 19.5154 35.5234 26.668 35.5234V32.4322C21.2231 32.4322 16.8097 28.0179 16.8097 22.573Z" fill="#E6E6E6"/>
<path fill-rule="evenodd" clip-rule="evenodd" d="M24.3234 21.8092V30.3315C24.3234 30.8669 24.7196 31.3131 25.2337 31.3933V20.7466C24.7196 20.8268 24.3234 21.2738 24.3234 21.8092Z" fill="white"/>
<path fill-rule="evenodd" clip-rule="evenodd" d="M23.7995 16.5699C23.7995 17.6317 24.3766 18.5601 25.2346 19.0554V14.0845C24.3758 14.5806 23.7995 15.5073 23.7995 16.5699Z" fill="white"/>
<path fill-rule="evenodd" clip-rule="evenodd" d="M25.2338 19.0552C25.6554 19.2991 26.1449 19.4391 26.6681 19.4391V13.6995C26.1458 13.6995 25.6554 13.8386 25.2338 14.0834V19.0552Z" fill="white"/>
<path fill-rule="evenodd" clip-rule="evenodd" d="M25.2338 20.7467V31.3934C25.287 31.4024 25.3426 31.4065 25.3983 31.4065H26.6681V20.7344H25.3983C25.3426 20.7344 25.2878 20.7385 25.2338 20.7467Z" fill="white"/>
<path fill-rule="evenodd" clip-rule="evenodd" d="M26.6681 35.5226V32.4314C26.1802 32.4314 25.702 32.3953 25.2338 32.3274V35.4432C25.7045 35.4964 26.1834 35.5226 26.6681 35.5226Z" fill="white"/>
<path fill-rule="evenodd" clip-rule="evenodd" d="M25.2338 12.8178C25.702 12.7507 26.1802 12.7138 26.6681 12.7138V9.62256C26.1834 9.62256 25.7045 9.64957 25.2338 9.70197V12.8178Z" fill="white"/>
<path fill-rule="evenodd" clip-rule="evenodd" d="M13.7177 22.5732C13.7177 29.2412 18.7565 34.7311 25.2338 35.4442V32.3284C20.4692 31.6333 16.8097 27.5302 16.8097 22.5732C16.8097 17.6154 20.4692 13.513 25.2338 12.818V9.70215C18.7565 10.416 13.7177 15.9052 13.7177 22.5732Z" fill="white"/>
<path opacity="0.2" fill-rule="evenodd" clip-rule="evenodd" d="M26.668 0C5.93286 0 0 18.1506 0 29.1665C0 29.2762 0.00328445 29.3835 0.00492177 29.4924C19.81 40.4895 28.4092 19.0552 53.0854 25.1207C51.7739 14.2161 45.0175 0 26.668 0Z" fill="white"/>
<path opacity="0.2" fill-rule="evenodd" clip-rule="evenodd" d="M13.6087 4.14321C5.56616 8.8849 1.13229 16.2676 3.70535 20.6311C6.27841 24.9954 14.8842 24.6884 22.9276 19.9467C30.9701 15.2042 35.404 7.82228 32.8318 3.45881C30.2579 -0.906306 21.6513 -0.600128 13.6087 4.14321Z" fill="white"/>
<path opacity="0.5" fill-rule="evenodd" clip-rule="evenodd" d="M50.243 28.6452C49.029 28.3627 47.7068 29.5907 47.2901 31.386C46.8726 33.1814 47.5185 34.8654 48.7318 35.1478C49.9459 35.4294 51.2672 34.2022 51.6847 32.4069C52.1014 30.6116 51.4563 28.9276 50.243 28.6452Z" fill="white"/>
<path opacity="0.5" fill-rule="evenodd" clip-rule="evenodd" d="M15.6463 4.3208C12.1302 5.9876 10.0131 8.88485 10.9169 10.7923C11.8207 12.699 15.404 12.8955 18.9202 11.2295C22.4363 9.5627 24.5542 6.66545 23.6504 4.75797C22.7458 2.84966 19.1617 2.654 15.6463 4.3208Z" fill="white"/>
<path opacity="0.5" fill-rule="evenodd" clip-rule="evenodd" d="M6.57725 13.4245C5.48516 14.9365 5.26577 16.6418 6.08525 17.2337C6.90555 17.8264 8.45527 17.0814 9.54573 15.5702C10.637 14.0581 10.858 12.3537 10.0377 11.7609C9.21825 11.1682 7.66771 11.914 6.57725 13.4245Z" fill="white"/>
</svg>
