<svg width="65" height="63" viewBox="0 0 65 63" fill="none" xmlns="http://www.w3.org/2000/svg">
<path fill-rule="evenodd" clip-rule="evenodd" d="M32.3635 6.05029C57.4956 6.08831 64.6334 28.0813 64.6132 41.4404C64.593 54.7995 50.1302 60.7647 32.2808 60.7377C14.4314 60.7107 0.00913129 54.6795 0.029305 41.3428C0.0494787 28.006 7.25379 6.01231 32.3635 6.05029Z" fill="#FF4A11"/>
<path fill-rule="evenodd" clip-rule="evenodd" d="M10.6665 38.8345C-3.57525 46.3414 1.10886 6.80726 31.8704 6.94315C65.3798 6.99384 66.8423 44.4374 54.4075 38.9006C45.0758 34.7537 20.5038 33.6219 10.6665 38.8345Z" fill="#FF4A11"/>
<path opacity="0.95" fill-rule="evenodd" clip-rule="evenodd" d="M10.8696 37.5614C-2.54528 44.8685 1.39827 7.54489 30.5744 7.20925C62.275 6.81041 64.2547 41.9537 52.3776 36.9317C43.4698 33.1428 20.1705 32.5044 10.8696 37.5614Z" fill="#FF5019"/>
<path opacity="0.91" fill-rule="evenodd" clip-rule="evenodd" d="M11.095 36.333C-1.49291 43.418 1.6877 8.34953 29.2785 7.49768C59.2821 6.58246 61.6673 39.4924 50.3479 34.985C41.8862 31.6213 19.815 31.4092 11.095 36.333Z" fill="#FF5721"/>
<path opacity="0.86" fill-rule="evenodd" clip-rule="evenodd" d="M11.2977 35.0823C-0.463375 41.9675 1.95429 9.13184 28.0044 7.78618C56.2886 6.35455 59.0794 37.0088 48.3175 33.1501C40.2799 30.0551 19.4589 30.314 11.2977 35.0823Z" fill="#FF5D2A"/>
<path opacity="0.82" fill-rule="evenodd" clip-rule="evenodd" d="M11.5675 33.8317C0.633316 40.5171 2.28806 9.91423 26.7528 8.05237C53.3177 6.0373 56.5362 34.5476 46.3322 31.0919C38.6736 28.5112 19.0806 29.2188 11.5675 33.8317Z" fill="#FF6332"/>
<path opacity="0.77" fill-rule="evenodd" clip-rule="evenodd" d="M11.7261 32.581C1.61884 39.0442 2.53297 10.6966 25.4124 8.34084C50.2803 5.78705 53.8819 32.0639 44.2579 29.1452C37.0679 26.9451 18.7252 28.1013 11.7261 32.581Z" fill="#FF693A"/>
<path opacity="0.73" fill-rule="evenodd" clip-rule="evenodd" d="M11.9289 31.3302C2.62614 37.5489 2.82195 11.4788 24.1384 8.53983C47.287 5.4473 51.2941 29.5355 42.2502 27.1092C35.4615 25.3787 18.2799 27.0059 11.9289 31.3302Z" fill="#FF7042"/>
<path opacity="0.68" fill-rule="evenodd" clip-rule="evenodd" d="M12.1545 30.0795C3.70091 36.1208 3.08925 12.1941 22.8425 8.89536C44.2941 5.2641 48.7066 27.119 40.2204 25.2296C33.9227 23.835 18.0138 25.9109 12.1545 30.0795Z" fill="#FF764A"/>
<path opacity="0.64" fill-rule="evenodd" clip-rule="evenodd" d="M12.3574 28.8288C4.73077 34.648 3.44544 13.0212 21.5464 9.18384C41.2787 4.99149 46.0967 24.6353 38.1905 23.283C32.2497 22.2687 17.6357 24.7934 12.3574 28.8288Z" fill="#FF7C52"/>
<path opacity="0.59" fill-rule="evenodd" clip-rule="evenodd" d="M12.5603 27.5781C5.84992 33.1975 3.64528 13.8034 20.2726 9.44996C38.2855 4.71885 43.5313 22.1741 36.1605 21.3364C30.6435 20.7025 17.2799 23.6981 12.5603 27.5781Z" fill="#FF815B"/>
<path opacity="0.55" fill-rule="evenodd" clip-rule="evenodd" d="M12.7854 26.3944C6.81257 31.7916 3.86732 14.6526 18.9763 9.8054C35.2922 4.53558 40.9434 19.7574 34.1303 19.4567C29.0373 19.1586 16.924 22.6029 12.7854 26.3944Z" fill="#FF8863"/>
<path opacity="0.5" fill-rule="evenodd" clip-rule="evenodd" d="M12.9882 25.0767C7.84224 30.2518 4.22339 15.3681 17.68 10.0046C32.2989 4.19601 38.4003 17.2069 32.1001 17.4878C27.4533 17.5925 16.568 21.4855 12.9882 25.0767Z" fill="#FF8E6B"/>
<path fill-rule="evenodd" clip-rule="evenodd" d="M32.3634 6.05033C57.4955 6.08835 64.6333 28.0814 64.6131 41.4405C64.612 42.1553 64.6109 42.8702 64.6099 43.5404C63.5579 30.135 55.7226 11.3802 32.4671 11.345C9.21155 11.3098 1.34196 30.0632 0.249416 43.4431C0.25043 42.7729 0.251511 42.058 0.252593 41.3431C0.0494041 27.9837 7.25368 6.01235 32.3634 6.05033Z" fill="#FF8E6B"/>
<path fill-rule="evenodd" clip-rule="evenodd" d="M32.3193 35.3599C46.7506 35.3817 58.449 40.4258 58.4397 46.5692C58.4304 52.7126 46.7169 57.7213 32.2855 57.6995C17.8541 57.6777 6.17803 52.6336 6.18733 46.4902C6.19662 40.3468 17.9102 35.3381 32.3193 35.3599Z" fill="#D9231F"/>
<path opacity="0.2" fill-rule="evenodd" clip-rule="evenodd" d="M32.3635 6.05029C54.5914 6.08392 62.764 23.3202 64.3302 36.5253C34.4509 29.1303 24.0907 55.0957 0.0287305 41.7225L0.029305 41.3428C0.0495125 27.9837 7.25378 6.01231 32.3635 6.05029Z" fill="white"/>
<path opacity="0.2" fill-rule="evenodd" clip-rule="evenodd" d="M16.5391 11.0528C26.2879 5.32627 36.6541 4.96218 39.8406 10.2615C43.0272 15.5608 37.5851 24.4885 27.814 30.215C18.0429 35.9415 7.69912 36.3056 4.51256 31.0063C1.326 25.707 6.79038 16.7794 16.5391 11.0528Z" fill="white"/>
<path opacity="0.5" fill-rule="evenodd" clip-rule="evenodd" d="M60.8834 40.787C62.3349 41.1466 63.1137 43.1807 62.6191 45.2575C62.1245 47.3344 60.3796 48.9179 59.0398 48.5807C57.6999 48.2436 56.8094 46.187 57.2817 44.1101C57.754 42.0333 59.4095 40.4497 60.8834 40.787Z" fill="white"/>
<path opacity="0.5" fill-rule="evenodd" clip-rule="evenodd" d="M19.0184 11.2799C23.2884 9.25346 27.6219 9.50574 28.7131 11.8084C29.8042 14.111 27.2298 17.6368 22.9598 19.7079C18.6898 21.7791 14.3564 21.4821 13.2652 19.1571C12.1741 16.8321 14.7485 13.284 19.0184 11.2799Z" fill="white"/>
<path opacity="0.5" fill-rule="evenodd" clip-rule="evenodd" d="M8.01097 22.2767C9.33178 20.4468 11.2097 19.5561 12.2139 20.2725C13.2181 20.9889 12.9245 23.066 11.6037 24.8959C10.2829 26.7257 8.405 27.6165 7.42314 26.9001C6.44128 26.1838 6.69009 24.1512 8.01097 22.2767Z" fill="white"/>
<mask id="path-21-outside-1_1_1709" maskUnits="userSpaceOnUse" x="16" y="13" width="31" height="41" fill="black">
<rect fill="white" x="16" y="13" width="31" height="41"/>
<path d="M21.0258 52.2645C20.2146 52.2645 19.474 51.9471 18.8039 51.3123C18.169 50.6422 17.8516 49.8663 17.8516 48.9845C17.8516 48.4202 17.8869 47.8736 17.9574 47.3445C18.0279 46.8155 18.1867 46.3041 18.4335 45.8104C18.6804 45.3166 19.0507 44.8405 19.5445 44.382C21.1668 43.0418 22.8068 41.8074 24.4645 40.6788C26.1573 39.5502 27.7797 38.4745 29.3315 37.4517C30.8833 36.4289 32.2764 35.4061 33.5108 34.3833C34.7452 33.3253 35.7151 32.232 36.4205 31.1034C37.1259 29.9395 37.4786 28.6875 37.4786 27.3473C37.4786 26.2539 37.2493 25.2664 36.7908 24.3847C36.3676 23.503 35.6799 22.7976 34.7276 22.2686C33.7754 21.7396 32.5057 21.475 30.9186 21.475C29.8253 21.475 28.8554 21.6338 28.0089 21.9512C27.1978 22.2686 26.51 22.7271 25.9457 23.3266C25.4167 23.9262 24.9935 24.6669 24.6761 25.5486C24.3939 26.395 24.2528 27.3649 24.2528 28.4582C24.2528 29.0578 24.1999 29.5868 24.0941 30.0453C23.9883 30.5038 23.7062 30.8741 23.2477 31.1563C22.8245 31.4032 22.0838 31.5266 21.0258 31.5266C19.9677 31.5266 19.2094 31.3679 18.7509 31.0505C18.3277 30.733 18.0632 30.3098 17.9574 29.7808C17.8869 29.2165 17.8516 28.6346 17.8516 28.035C17.8516 26.2716 18.1337 24.614 18.698 23.0621C19.2976 21.475 20.1617 20.0996 21.2903 18.9357C22.4189 17.7366 23.7767 16.802 25.3638 16.1319C26.9862 15.4265 28.8201 15.0738 30.8657 15.0738C33.4403 15.0738 35.6975 15.6028 37.6373 16.6609C39.6123 17.7189 41.1465 19.2002 42.2398 21.1047C43.3684 23.0092 43.9327 25.2841 43.9327 27.9292C43.9327 29.3047 43.7211 30.592 43.2979 31.7911C42.8747 32.9902 42.2927 34.1188 41.5521 35.1769C40.8114 36.1997 39.9474 37.1519 38.9598 38.0336C38.0076 38.9154 36.9672 39.7618 35.8386 40.573C34.7452 41.3489 33.6343 42.0895 32.5057 42.7949C31.3771 43.465 30.2838 44.1175 29.2257 44.7523L27.2154 45.8104H42.2398C42.8394 45.8104 43.386 45.8809 43.8798 46.022C44.3736 46.1278 44.7439 46.4099 44.9908 46.8684C45.2729 47.3269 45.414 48.0676 45.414 49.0903C45.414 50.0779 45.2729 50.8009 44.9908 51.2594C44.7086 51.7179 44.3207 52 43.8269 52.1058C43.3331 52.2116 42.7688 52.2645 42.134 52.2645H21.0258Z"/>
</mask>
<path d="M21.0258 52.2645C20.2146 52.2645 19.474 51.9471 18.8039 51.3123C18.169 50.6422 17.8516 49.8663 17.8516 48.9845C17.8516 48.4202 17.8869 47.8736 17.9574 47.3445C18.0279 46.8155 18.1867 46.3041 18.4335 45.8104C18.6804 45.3166 19.0507 44.8405 19.5445 44.382C21.1668 43.0418 22.8068 41.8074 24.4645 40.6788C26.1573 39.5502 27.7797 38.4745 29.3315 37.4517C30.8833 36.4289 32.2764 35.4061 33.5108 34.3833C34.7452 33.3253 35.7151 32.232 36.4205 31.1034C37.1259 29.9395 37.4786 28.6875 37.4786 27.3473C37.4786 26.2539 37.2493 25.2664 36.7908 24.3847C36.3676 23.503 35.6799 22.7976 34.7276 22.2686C33.7754 21.7396 32.5057 21.475 30.9186 21.475C29.8253 21.475 28.8554 21.6338 28.0089 21.9512C27.1978 22.2686 26.51 22.7271 25.9457 23.3266C25.4167 23.9262 24.9935 24.6669 24.6761 25.5486C24.3939 26.395 24.2528 27.3649 24.2528 28.4582C24.2528 29.0578 24.1999 29.5868 24.0941 30.0453C23.9883 30.5038 23.7062 30.8741 23.2477 31.1563C22.8245 31.4032 22.0838 31.5266 21.0258 31.5266C19.9677 31.5266 19.2094 31.3679 18.7509 31.0505C18.3277 30.733 18.0632 30.3098 17.9574 29.7808C17.8869 29.2165 17.8516 28.6346 17.8516 28.035C17.8516 26.2716 18.1337 24.614 18.698 23.0621C19.2976 21.475 20.1617 20.0996 21.2903 18.9357C22.4189 17.7366 23.7767 16.802 25.3638 16.1319C26.9862 15.4265 28.8201 15.0738 30.8657 15.0738C33.4403 15.0738 35.6975 15.6028 37.6373 16.6609C39.6123 17.7189 41.1465 19.2002 42.2398 21.1047C43.3684 23.0092 43.9327 25.2841 43.9327 27.9292C43.9327 29.3047 43.7211 30.592 43.2979 31.7911C42.8747 32.9902 42.2927 34.1188 41.5521 35.1769C40.8114 36.1997 39.9474 37.1519 38.9598 38.0336C38.0076 38.9154 36.9672 39.7618 35.8386 40.573C34.7452 41.3489 33.6343 42.0895 32.5057 42.7949C31.3771 43.465 30.2838 44.1175 29.2257 44.7523L27.2154 45.8104H42.2398C42.8394 45.8104 43.386 45.8809 43.8798 46.022C44.3736 46.1278 44.7439 46.4099 44.9908 46.8684C45.2729 47.3269 45.414 48.0676 45.414 49.0903C45.414 50.0779 45.2729 50.8009 44.9908 51.2594C44.7086 51.7179 44.3207 52 43.8269 52.1058C43.3331 52.2116 42.7688 52.2645 42.134 52.2645H21.0258Z" fill="white"/>
<path d="M18.8039 51.3123L18.0015 52.0724L18.022 52.0941L18.0437 52.1146L18.8039 51.3123ZM18.4335 45.8104L19.4221 46.3047H19.4221L18.4335 45.8104ZM19.5445 44.382L18.8406 43.5299L18.8159 43.5503L18.7924 43.5721L19.5445 44.382ZM24.4645 40.6788L23.8513 39.7591L23.8424 39.7652L24.4645 40.6788ZM29.3315 37.4517L29.9398 38.3746L29.3315 37.4517ZM33.5108 34.3833L34.216 35.2344L34.2231 35.2285L34.2301 35.2225L33.5108 34.3833ZM36.4205 31.1034L37.3578 31.6892L37.3618 31.6827L37.3657 31.6762L36.4205 31.1034ZM36.7908 24.3847L35.7944 24.863L35.8021 24.8789L35.8102 24.8946L36.7908 24.3847ZM34.7276 22.2686L34.1908 23.2348L34.7276 22.2686ZM28.0089 21.9512L27.6209 20.9163L27.6135 20.919L27.6062 20.9219L28.0089 21.9512ZM25.9457 23.3266L25.1409 22.5691L25.1287 22.5821L25.117 22.5954L25.9457 23.3266ZM24.6761 25.5486L23.6361 25.1742L23.6317 25.1866L23.6275 25.1991L24.6761 25.5486ZM24.0941 30.0453L25.1711 30.2938V30.2938L24.0941 30.0453ZM23.2477 31.1563L23.8046 32.111L23.8159 32.1044L23.827 32.0976L23.2477 31.1563ZM18.7509 31.0505L18.0878 31.9347L18.1046 31.9473L18.1218 31.9592L18.7509 31.0505ZM17.9574 29.7808L16.8607 29.9179L16.8657 29.958L16.8736 29.9976L17.9574 29.7808ZM18.698 23.0621L17.664 22.6715L17.6593 22.6844L18.698 23.0621ZM21.2903 18.9357L22.0838 19.7051L22.0895 19.6992L22.0951 19.6932L21.2903 18.9357ZM25.3638 16.1319L25.7937 17.1501L25.8045 17.1455L25.3638 16.1319ZM37.6373 16.6609L37.108 17.6312L37.1153 17.6352L37.6373 16.6609ZM42.2398 21.1047L41.2813 21.655L41.2851 21.6616L41.289 21.6682L42.2398 21.1047ZM43.2979 31.7911L44.3401 32.159V32.159L43.2979 31.7911ZM41.5521 35.1769L42.4473 35.8251L42.4525 35.818L42.4575 35.8107L41.5521 35.1769ZM38.9598 38.0336L38.2237 37.2092L38.2163 37.2159L38.2089 37.2226L38.9598 38.0336ZM35.8386 40.573L36.4783 41.4743L36.4836 41.4705L35.8386 40.573ZM32.5057 42.7949L33.07 43.7453L33.0808 43.7388L33.0915 43.7322L32.5057 42.7949ZM29.2257 44.7523L29.7405 45.7304L29.7679 45.716L29.7944 45.7001L29.2257 44.7523ZM27.2154 45.8104L26.7006 44.8323L27.2154 46.9156V45.8104ZM43.8798 46.022L43.5762 47.0847L43.6119 47.0949L43.6482 47.1027L43.8798 46.022ZM44.9908 46.8684L44.0176 47.3924L44.0327 47.4205L44.0495 47.4477L44.9908 46.8684ZM44.9908 51.2594L44.0495 50.6801L44.9908 51.2594ZM43.8269 52.1058L43.5953 51.0251L43.8269 52.1058ZM21.0258 51.1593C20.5368 51.1593 20.0593 50.9792 19.564 50.5099L18.0437 52.1146C18.8886 52.915 19.8923 53.3698 21.0258 53.3698V51.1593ZM19.6062 50.5521C19.1558 50.0767 18.9569 49.5691 18.9569 48.9845H16.7463C16.7463 50.1634 17.1822 51.2076 18.0015 52.0724L19.6062 50.5521ZM18.9569 48.9845C18.9569 48.4663 18.9892 47.9686 19.053 47.4906L16.8618 47.1985C16.7845 47.7786 16.7463 48.3742 16.7463 48.9845H18.9569ZM19.053 47.4906C19.1068 47.0869 19.228 46.6929 19.4221 46.3047L17.445 45.3161C17.1453 45.9154 16.9491 46.5441 16.8618 47.1985L19.053 47.4906ZM19.4221 46.3047C19.5983 45.9524 19.8792 45.5795 20.2966 45.1919L18.7924 43.5721C18.2223 44.1015 17.7626 44.6808 17.445 45.3161L19.4221 46.3047ZM20.2484 45.2341C21.8457 43.9146 23.4584 42.7009 25.0865 41.5924L23.8424 39.7652C22.1552 40.9139 20.488 42.169 18.8406 43.5299L20.2484 45.2341ZM25.0775 41.5984C26.769 40.4708 28.3897 39.3962 29.9398 38.3746L28.7233 36.5289C27.1697 37.5528 25.5457 38.6296 23.8514 39.7592L25.0775 41.5984ZM29.9398 38.3746C31.52 37.333 32.9462 36.2865 34.216 35.2344L32.8057 33.5323C31.6067 34.5257 30.2467 35.5248 28.7233 36.5289L29.9398 38.3746ZM34.2301 35.2225C35.5315 34.1071 36.5816 32.9311 37.3578 31.6892L35.4832 30.5176C34.8487 31.5328 33.959 32.5435 32.7916 33.5442L34.2301 35.2225ZM37.3657 31.6762C38.1741 30.3424 38.5838 28.8927 38.5838 27.3473H36.3733C36.3733 28.4822 36.0777 29.5366 35.4753 30.5305L37.3657 31.6762ZM38.5838 27.3473C38.5838 26.0945 38.3198 24.9293 37.7714 23.8748L35.8102 24.8946C36.1788 25.6035 36.3733 26.4134 36.3733 27.3473H38.5838ZM37.7872 23.9064C37.2538 22.7952 36.3929 21.9294 35.2644 21.3024L34.1908 23.2348C34.9669 23.6659 35.4814 24.2108 35.7944 24.863L37.7872 23.9064ZM35.2644 21.3024C34.0898 20.6499 32.6134 20.3698 30.9186 20.3698V22.5803C32.3979 22.5803 33.4609 22.8292 34.1908 23.2348L35.2644 21.3024ZM30.9186 20.3698C29.7197 20.3698 28.6144 20.5437 27.6209 20.9163L28.397 22.9861C29.0964 22.7238 29.9309 22.5803 30.9186 22.5803V20.3698ZM27.6062 20.9219C26.6515 21.2955 25.8239 21.8434 25.1409 22.5691L26.7506 24.0842C27.1962 23.6107 27.744 23.2417 28.4117 22.9804L27.6062 20.9219ZM25.117 22.5954C24.4813 23.3159 23.9928 24.1835 23.6361 25.1742L25.716 25.9229C25.9942 25.1503 26.3522 24.5366 26.7745 24.0579L25.117 22.5954ZM23.6275 25.1991C23.3004 26.1803 23.1476 27.2719 23.1476 28.4582H25.3581C25.3581 27.4579 25.4874 26.6097 25.7246 25.8981L23.6275 25.1991ZM23.1476 28.4582C23.1476 28.9957 23.0999 29.4384 23.0172 29.7968L25.1711 30.2938C25.3 29.7352 25.3581 29.1198 25.3581 28.4582H23.1476ZM23.0172 29.7968C22.9876 29.9248 22.9145 30.0635 22.6684 30.215L23.827 32.0976C24.4978 31.6847 24.989 31.0828 25.1711 30.2938L23.0172 29.7968ZM22.6908 30.2016C22.543 30.2878 22.0664 30.4213 21.0258 30.4213V32.6319C22.1012 32.6319 23.106 32.5185 23.8046 32.111L22.6908 30.2016ZM21.0258 30.4213C20.0209 30.4213 19.5504 30.2596 19.3801 30.1417L18.1218 31.9592C18.8685 32.4761 19.9145 32.6319 21.0258 32.6319V30.4213ZM19.4141 30.1663C19.2131 30.0155 19.0948 29.8322 19.0412 29.564L16.8736 29.9976C17.0316 30.7874 17.4423 31.4506 18.0878 31.9347L19.4141 30.1663ZM19.0541 29.6437C18.9896 29.1273 18.9569 28.5912 18.9569 28.035H16.7463C16.7463 28.6779 16.7842 29.3057 16.8607 29.9179L19.0541 29.6437ZM18.9569 28.035C18.9569 26.3916 19.2194 24.8626 19.7368 23.4398L17.6593 22.6844C17.0481 24.3653 16.7463 26.1516 16.7463 28.035H18.9569ZM19.732 23.4527C20.2807 22.0003 21.0653 20.7555 22.0838 19.7051L20.4968 18.1663C19.2581 19.4437 18.3145 20.9498 17.6641 22.6715L19.732 23.4527ZM22.0951 19.6932C23.1134 18.6113 24.3417 17.7632 25.7937 17.1501L24.9339 15.1136C23.2117 15.8408 21.7244 16.8618 20.4854 18.1782L22.0951 19.6932ZM25.8045 17.1455C27.2677 16.5093 28.9482 16.1791 30.8657 16.1791V13.9685C28.692 13.9685 26.7046 14.3437 24.9231 15.1183L25.8045 17.1455ZM30.8657 16.1791C33.2861 16.1791 35.3556 16.6753 37.108 17.6312L38.1665 15.6906C36.0394 14.5303 33.5945 13.9685 30.8657 13.9685V16.1791ZM37.1153 17.6352C38.9119 18.5976 40.2931 19.9337 41.2813 21.655L43.1984 20.5545C41.9999 18.4667 40.3127 16.8403 38.1592 15.6866L37.1153 17.6352ZM41.289 21.6682C42.2984 23.3716 42.8274 25.4435 42.8274 27.9292H45.038C45.038 25.1246 44.4384 22.6469 43.1907 20.5413L41.289 21.6682ZM42.8274 27.9292C42.8274 29.1896 42.6339 30.3516 42.2556 31.4233L44.3401 32.159C44.8083 30.8324 45.038 29.4197 45.038 27.9292H42.8274ZM42.2556 31.4233C41.8663 32.5265 41.3307 33.5658 40.6466 34.5431L42.4575 35.8107C43.2547 34.6719 43.883 33.454 44.3401 32.159L42.2556 31.4233ZM40.6569 34.5286C39.965 35.4841 39.1549 36.3778 38.2237 37.2092L39.696 38.8581C40.7398 37.9261 41.6579 36.9152 42.4473 35.8251L40.6569 34.5286ZM38.2089 37.2226C37.2924 38.0713 36.2876 38.8891 35.1935 39.6755L36.4836 41.4705C37.6467 40.6345 38.7228 39.7594 39.7108 38.8446L38.2089 37.2226ZM35.1989 39.6716C34.1231 40.4351 33.0301 41.1638 31.9199 41.8576L33.0915 43.7322C34.2385 43.0153 35.3674 42.2626 36.4782 41.4743L35.1989 39.6716ZM31.9414 41.8445C30.8115 42.5155 29.7167 43.1688 28.6571 43.8046L29.7944 45.7001C30.8509 45.0662 31.9427 44.4146 33.07 43.7453L31.9414 41.8445ZM28.7109 43.7742L26.7006 44.8323L27.7302 46.7884L29.7405 45.7304L28.7109 43.7742ZM27.2154 46.9156H42.2398V44.7051H27.2154V46.9156ZM42.2398 46.9156C42.7534 46.9156 43.196 46.9761 43.5762 47.0847L44.1834 44.9592C43.576 44.7857 42.9253 44.7051 42.2398 44.7051V46.9156ZM43.6482 47.1027C43.8139 47.1382 43.9189 47.209 44.0176 47.3924L45.9639 46.3444C45.5689 45.6108 44.9332 45.1173 44.1114 44.9412L43.6482 47.1027ZM44.0495 47.4477C44.1651 47.6355 44.3087 48.1173 44.3087 49.0903H46.5193C46.5193 48.0178 46.3808 47.0183 45.9321 46.2892L44.0495 47.4477ZM44.3087 49.0903C44.3087 50.0192 44.1676 50.4882 44.0495 50.6801L45.9321 51.8386C46.3783 51.1135 46.5193 50.1366 46.5193 49.0903H44.3087ZM44.0495 50.6801C43.9138 50.9005 43.7729 50.987 43.5953 51.0251L44.0585 53.1865C44.8685 53.013 45.5034 52.5352 45.9321 51.8386L44.0495 50.6801ZM43.5953 51.0251C43.1942 51.111 42.7099 51.1593 42.134 51.1593V53.3698C42.8278 53.3698 43.4721 53.3122 44.0585 53.1865L43.5953 51.0251ZM42.134 51.1593H21.0258V53.3698H42.134V51.1593Z" fill="#9E0300" mask="url(#path-21-outside-1_1_1709)"/>
<path fill-rule="evenodd" clip-rule="evenodd" d="M32.3467 4C57.4673 4 64.6702 27.6409 64.6702 41.9841C64.6702 56.3272 50.1973 62.79 32.3467 62.79C14.496 62.79 0.000732422 56.3272 0.000732422 41.9841C0.000732422 27.6409 7.20364 4 32.3467 4Z" fill="#6C6C6C"/>
<path fill-rule="evenodd" clip-rule="evenodd" d="M10.6479 39.3893C-3.60125 47.5099 1.02918 4.98505 31.8316 5.08116C65.2736 5.20128 66.9066 45.3476 54.4469 39.3893C45.0966 34.8245 20.5351 33.6473 10.6479 39.3893Z" fill="#6C6C6C"/>
<path opacity="0.95" fill-rule="evenodd" clip-rule="evenodd" d="M10.8718 37.9238C-2.54972 45.8041 1.32014 5.68178 30.5344 5.27335C62.2763 4.79284 64.3119 42.5607 52.4115 37.179C43.4861 33.1668 20.155 32.47 10.8718 37.9238Z" fill="#6F6F6F"/>
<path opacity="0.91" fill-rule="evenodd" clip-rule="evenodd" d="M11.0733 36.5783C-1.52059 44.2424 1.61109 6.52264 29.2371 5.56163C59.2566 4.52854 61.7172 39.9179 50.376 35.0888C41.8981 31.485 19.7973 31.2928 11.0733 36.5783Z" fill="#727272"/>
<path opacity="0.86" fill-rule="evenodd" clip-rule="evenodd" d="M11.2746 35.2569C-0.469279 42.6567 1.90188 7.36352 27.962 5.87395C56.2591 4.24022 59.1224 37.251 48.3404 32.9985C40.2875 29.7791 19.4393 30.0915 11.2746 35.2569Z" fill="#767676"/>
<path opacity="0.82" fill-rule="evenodd" clip-rule="evenodd" d="M11.4978 33.9115C0.559294 41.1191 2.16988 8.2044 26.6642 6.16224C53.2612 3.95191 56.5271 34.5842 46.3044 30.9083C38.6765 28.1214 19.081 28.9142 11.4978 33.9115Z" fill="#797979"/>
<path opacity="0.77" fill-rule="evenodd" clip-rule="evenodd" d="M11.6995 32.5661C1.58861 39.5095 2.46101 9.04533 25.3671 6.47462C50.264 3.68768 53.9102 31.9415 44.2691 28.7941C37.0662 26.4637 18.7011 27.737 11.6995 32.5661Z" fill="#7C7C7C"/>
<path opacity="0.73" fill-rule="evenodd" clip-rule="evenodd" d="M11.9232 31.2207C2.63996 37.9478 2.75181 9.86219 24.0921 6.76293C47.2666 3.39938 51.3154 29.2747 42.2559 26.704C35.4556 24.7819 18.3432 26.5598 11.9232 31.2207Z" fill="#7F7F7F"/>
<path opacity="0.68" fill-rule="evenodd" clip-rule="evenodd" d="M12.1246 29.7792C3.66902 36.266 3.04269 10.5589 22.7947 6.97913C44.2692 3.03898 48.7206 26.5358 40.2203 24.5176C33.8451 23.1001 17.9853 25.3585 12.1246 29.7792Z" fill="#818181"/>
<path opacity="0.64" fill-rule="evenodd" clip-rule="evenodd" d="M12.3258 28.5298C4.72022 34.8004 3.37808 11.5439 21.4972 7.36352C41.2716 2.84676 46.1033 23.965 38.1846 22.5235C32.2344 21.4424 17.6273 24.1813 12.3258 28.5298Z" fill="#848484"/>
<path opacity="0.59" fill-rule="evenodd" clip-rule="evenodd" d="M12.6164 27.1844C5.9056 33.2148 3.66866 12.3848 20.289 7.67587C38.3186 2.55847 43.5978 21.2982 36.2159 20.4333C30.6236 19.7606 17.2468 23.004 12.6164 27.1844Z" fill="#888888"/>
<path opacity="0.55" fill-rule="evenodd" clip-rule="evenodd" d="M12.7508 25.839C6.77821 31.6531 3.80312 13.2257 18.9247 7.98817C35.2543 2.29417 40.936 18.6554 34.1134 18.3191C29.0356 18.0788 16.8891 21.8028 12.7508 25.839Z" fill="#8B8B8B"/>
<path opacity="0.5" fill-rule="evenodd" clip-rule="evenodd" d="M12.952 24.4936C7.82944 30.0675 4.18328 14.0426 17.6272 8.27652C32.2567 2.0059 38.3187 15.9886 32.0777 16.2289C27.4249 16.4211 16.5311 20.6255 12.952 24.4936Z" fill="#8E8E8E"/>
<path fill-rule="evenodd" clip-rule="evenodd" d="M32.3459 4C57.4666 4 64.6695 27.6409 64.6695 41.9841C64.6708 42.7472 64.6259 43.5096 64.5353 44.2664C63.4839 29.8512 55.5876 9.69399 32.3459 9.69399C9.10432 9.69399 1.20796 29.7792 0.134237 44.1944C0.0435652 43.4375 -0.00126203 42.6751 2.70247e-05 41.912C2.70247e-05 27.6409 7.20293 4 32.3459 4Z" fill="#8E8E8E"/>
<path fill-rule="evenodd" clip-rule="evenodd" d="M32.3465 35.4972C46.7746 35.4972 58.4961 40.9029 58.4961 47.5099C58.4961 54.1168 46.7746 59.5225 32.3465 59.5225C17.9183 59.5225 6.17444 54.1168 6.17444 47.5099C6.17444 40.9029 17.8959 35.4972 32.3465 35.4972Z" fill="#525252"/>
<path fill-rule="evenodd" clip-rule="evenodd" d="M21.9448 28.4097V22.2352C21.9565 20.6844 22.5354 19.2006 23.5564 18.1039C24.5775 17.0073 25.959 16.3856 27.4029 16.373H37.223C38.667 16.3856 40.0485 17.0073 41.0696 18.1039C42.0906 19.2006 42.6694 20.6844 42.6811 22.2352V28.4097H43.3969C43.6055 28.4097 43.812 28.4539 44.0047 28.5396C44.1974 28.6253 44.3725 28.751 44.52 28.9094C44.6674 29.0678 44.7844 29.2558 44.8643 29.4628C44.9441 29.6697 44.9852 29.8915 44.9852 30.1155V49.1436C44.9852 49.596 44.8178 50.0299 44.52 50.3498C44.2221 50.6697 43.8181 50.8494 43.3969 50.8494H21.1843C20.9757 50.8494 20.7692 50.8053 20.5765 50.7196C20.3838 50.6338 20.2087 50.5082 20.0613 50.3498C19.9138 50.1914 19.7968 50.0034 19.717 49.7964C19.6372 49.5894 19.5961 49.3676 19.5961 49.1436V30.1155C19.5961 29.8915 19.6372 29.6697 19.717 29.4628C19.7968 29.2558 19.9138 29.0678 20.0613 28.9094C20.2087 28.751 20.3838 28.6253 20.5765 28.5396C20.7692 28.4539 20.9757 28.4097 21.1843 28.4097H21.9448ZM34.5387 37.2991C34.5448 36.8086 34.4291 36.3251 34.2036 35.8984C33.9781 35.4718 33.6509 35.1173 33.2556 34.8714C32.8603 34.6256 32.4112 34.4972 31.9544 34.4995C31.4976 34.5018 31.0496 34.6347 30.6565 34.8846C30.2633 35.1344 29.9392 35.4922 29.7175 35.9211C29.4957 36.35 29.3843 36.8346 29.3947 37.3251C29.4051 37.8156 29.5368 38.2943 29.7765 38.712C30.0162 39.1296 30.355 39.4712 30.7583 39.7017V43.4256C30.7583 43.7139 30.8926 43.786 31.1162 43.786H32.7492C33.0624 43.786 33.1295 43.786 33.1295 43.4015V39.7497C33.5475 39.5249 33.9011 39.183 34.1531 38.7601C34.4051 38.3372 34.5461 37.849 34.5611 37.3472L34.5387 37.2991ZM39.6389 28.4097V22.2352C39.6347 21.5606 39.3859 20.9143 38.9455 20.4333C38.499 19.9581 37.8964 19.6906 37.2678 19.6886H27.4029C26.7744 19.6906 26.1717 19.9581 25.7253 20.4333C25.2848 20.9143 25.0361 21.5606 25.0318 22.2352V28.4097H39.6389Z" stroke="#525252" stroke-width="6.60527" stroke-miterlimit="22.93"/>
<path fill-rule="evenodd" clip-rule="evenodd" d="M31.9657 16.373H37.2225C38.6664 16.3856 40.0479 17.0072 41.069 18.1039C42.0901 19.2006 42.6689 20.6843 42.6806 22.2352V28.4097H43.3964C43.8176 28.4097 44.2216 28.5894 44.5194 28.9093C44.8173 29.2292 44.9846 29.6631 44.9846 30.1155V49.1436C44.9846 49.3676 44.9435 49.5894 44.8637 49.7964C44.7839 50.0033 44.6669 50.1913 44.5194 50.3497C44.3719 50.5081 44.1969 50.6338 44.0042 50.7195C43.8115 50.8053 43.6049 50.8494 43.3964 50.8494H31.921V43.834H32.7486C33.0618 43.834 33.1289 43.834 33.1289 43.4496V39.7977C33.6414 39.5129 34.0508 39.0527 34.2925 38.49C34.5342 37.9272 34.5944 37.2941 34.4636 36.6905C34.3327 36.0869 34.0182 35.5474 33.5699 35.1572C33.1216 34.7671 32.565 34.5485 31.9881 34.5362V28.4097H39.6607V22.2352C39.6565 21.5606 39.4077 20.9143 38.9673 20.4333C38.5208 19.9581 37.9182 19.6905 37.2896 19.6885H31.9881L31.9657 16.373ZM21.9443 28.3857V22.2112C21.956 20.6603 22.5348 19.1765 23.5559 18.0799C24.5769 16.9832 25.9584 16.3616 27.4024 16.349H31.8762V19.6645H27.4024C26.7738 19.6665 26.1712 19.934 25.7247 20.4093C25.2842 20.8903 25.0355 21.5366 25.0313 22.2112V28.3857H31.9657V34.5842C31.3881 34.5794 30.8258 34.7835 30.3694 35.1636C29.9129 35.5438 29.5889 36.0778 29.4494 36.6798C29.3099 37.2818 29.3631 37.9167 29.6005 38.4823C29.8378 39.0479 30.2454 39.5112 30.7578 39.7977V43.5216C30.7578 43.8099 30.892 43.882 31.1157 43.882H31.9657V50.8974H21.2285C20.8073 50.8974 20.4033 50.7177 20.1055 50.3978C19.8076 50.0779 19.6403 49.644 19.6403 49.1916V30.1636C19.6403 29.9396 19.6813 29.7177 19.7612 29.5108C19.841 29.3038 19.958 29.1158 20.1055 28.9574C20.2529 28.799 20.428 28.6733 20.6207 28.5876C20.8134 28.5019 21.0199 28.4578 21.2285 28.4578L21.9443 28.3857Z" fill="#E5E5E5"/>
<path fill-rule="evenodd" clip-rule="evenodd" d="M21.9443 28.4097V22.2352C21.956 20.6844 22.5348 19.2006 23.5559 18.1039C24.5769 17.0073 25.9584 16.3856 27.4024 16.373H31.8762V19.6886H27.4024C26.7738 19.6906 26.1712 19.9581 25.7247 20.4333C25.2842 20.9143 25.0355 21.5606 25.0313 22.2352V28.4097H31.921V34.5843C31.3491 34.5954 30.797 34.8108 30.3519 35.1966C29.9068 35.5824 29.5941 36.1166 29.4632 36.7146C29.3324 37.3126 29.3908 37.9404 29.6293 38.4988C29.8678 39.0571 30.2727 39.5142 30.7801 39.7977V43.5217C30.7801 43.81 30.7801 43.882 31.1157 43.882H31.921V50.8974H21.2285C20.8073 50.8974 20.4033 50.7177 20.1055 50.3978C19.8076 50.0779 19.6403 49.6441 19.6403 49.1917V30.1636C19.6403 29.9396 19.6813 29.7178 19.7612 29.5108C19.841 29.3038 19.958 29.1158 20.1055 28.9574C20.2529 28.799 20.428 28.6734 20.6207 28.5876C20.8134 28.5019 21.0199 28.4578 21.2285 28.4578L21.9443 28.4097Z" fill="white"/>
<path opacity="0.2" fill-rule="evenodd" clip-rule="evenodd" d="M32.3467 4C54.5817 4 62.7688 22.5235 64.3794 36.7225C34.4493 28.8182 24.1148 56.7356 0.000732422 42.4165V41.9841C0.000732422 27.6409 7.20364 4 32.3467 4Z" fill="white"/>
<path opacity="0.2" fill-rule="evenodd" clip-rule="evenodd" d="M16.5091 9.40572C26.262 3.23121 36.6414 2.82275 39.8178 8.51676C42.9942 14.2108 37.5808 23.7969 27.8055 29.9714C18.0301 36.1459 7.6732 36.5544 4.49677 30.8844C1.32034 25.2144 6.75607 15.5802 16.5091 9.40572Z" fill="white"/>
<path opacity="0.5" fill-rule="evenodd" clip-rule="evenodd" d="M60.9119 41.3113C62.3883 41.6717 63.1489 43.8821 62.6791 46.1164C62.2094 48.3508 60.554 50.0566 59.1 49.6722C57.646 49.2878 56.8631 47.1255 57.3329 44.8671C57.8026 42.6087 59.4579 40.951 60.9119 41.3113Z" fill="white"/>
<path opacity="0.5" fill-rule="evenodd" clip-rule="evenodd" d="M18.9693 9.6219C23.2418 7.45962 27.5815 7.72392 28.6776 10.1985C29.7737 12.6731 27.2012 16.4691 22.951 18.6314C18.7009 20.7937 14.3389 20.5534 13.2428 18.0548C12.1467 15.5561 14.7192 11.8082 18.9693 9.6219Z" fill="white"/>
<path opacity="0.5" fill-rule="evenodd" clip-rule="evenodd" d="M7.98622 21.4904C9.30601 19.5204 11.185 18.5593 12.1693 19.3281C13.1535 20.0969 12.9075 22.3073 11.5653 24.2774C10.2232 26.2475 8.36652 27.2085 7.38228 26.4397C6.39803 25.6708 6.64407 23.4605 7.98622 21.4904Z" fill="white"/>
</svg>
