<svg width="65" height="55" viewBox="0 0 65 55" fill="none" xmlns="http://www.w3.org/2000/svg">
<path fill-rule="evenodd" clip-rule="evenodd" d="M32.3635 0.0488292C57.4956 0.086845 64.6333 22.0799 64.6131 35.439C64.5929 48.7981 50.1301 54.7632 32.2808 54.7362C14.4314 54.7092 0.00909001 48.678 0.0292637 35.3413C0.0494374 22.0045 7.25374 0.0108472 32.3635 0.0488292Z" fill="#FF4A11"/>
<path fill-rule="evenodd" clip-rule="evenodd" d="M10.6664 32.833C-3.57529 40.3399 1.10882 0.8058 31.8704 0.941689C65.3798 0.992377 66.8422 38.4359 54.4074 32.8992C45.0757 28.7522 20.5038 27.6204 10.6664 32.833Z" fill="#FF4A11"/>
<path opacity="0.95" fill-rule="evenodd" clip-rule="evenodd" d="M10.8695 31.5599C-2.54533 38.8671 1.39823 1.54343 30.5744 1.20779C62.275 0.808944 64.2547 35.9523 52.3776 30.9302C43.4698 27.1413 20.1705 26.5029 10.8695 31.5599Z" fill="#FF5019"/>
<path opacity="0.91" fill-rule="evenodd" clip-rule="evenodd" d="M11.095 30.3316C-1.49295 37.4165 1.68766 2.34807 29.2784 1.49621C59.282 0.580993 61.6673 33.4909 50.3479 28.9836C41.8862 25.6198 19.8149 25.4077 11.095 30.3316Z" fill="#FF5721"/>
<path opacity="0.86" fill-rule="evenodd" clip-rule="evenodd" d="M11.2977 29.0809C-0.463416 35.966 1.95425 3.13037 28.0043 1.78472C56.2885 0.353082 59.0793 31.0073 48.3174 27.1486C40.2798 24.0536 19.4589 24.3125 11.2977 29.0809Z" fill="#FF5D2A"/>
<path opacity="0.82" fill-rule="evenodd" clip-rule="evenodd" d="M11.5675 27.8303C0.633275 34.5156 2.28802 3.91277 26.7528 2.0509C53.3177 0.0358333 56.5362 28.5461 46.3322 25.0904C38.6736 22.5097 19.0806 23.2173 11.5675 27.8303Z" fill="#FF6332"/>
<path opacity="0.77" fill-rule="evenodd" clip-rule="evenodd" d="M11.7261 26.5795C1.6188 33.0428 2.53293 4.69511 25.4123 2.33937C50.2802 -0.214416 53.8819 26.0625 44.2579 23.1438C37.0678 20.9436 18.7252 22.0999 11.7261 26.5795Z" fill="#FF693A"/>
<path opacity="0.73" fill-rule="evenodd" clip-rule="evenodd" d="M11.9288 25.3287C2.6261 31.5474 2.82191 5.4773 24.1384 2.53837C47.287 -0.55417 51.294 23.5341 42.2501 21.1077C35.4615 19.3773 18.2798 21.0044 11.9288 25.3287Z" fill="#FF7042"/>
<path opacity="0.68" fill-rule="evenodd" clip-rule="evenodd" d="M12.1544 24.0781C3.70087 30.1193 3.08921 6.19262 22.8425 2.89389C44.2941 -0.737366 48.7066 21.1175 40.2204 19.2281C33.9227 17.8335 18.0137 19.9094 12.1544 24.0781Z" fill="#FF764A"/>
<path opacity="0.64" fill-rule="evenodd" clip-rule="evenodd" d="M12.3574 22.8274C4.73073 28.6465 3.4454 7.01976 21.5463 3.18238C41.2786 -1.00997 46.0966 18.6339 38.1904 17.2815C32.2496 16.2673 17.6356 18.7919 12.3574 22.8274Z" fill="#FF7C52"/>
<path opacity="0.59" fill-rule="evenodd" clip-rule="evenodd" d="M12.5603 21.5766C5.84988 27.1961 3.64524 7.80192 20.2725 3.44849C38.2855 -1.28261 43.5312 16.1726 36.1604 15.3349C30.6435 14.701 17.2798 17.6967 12.5603 21.5766Z" fill="#FF815B"/>
<path opacity="0.55" fill-rule="evenodd" clip-rule="evenodd" d="M12.7854 20.393C6.81253 25.7901 3.86728 8.65113 18.9762 3.80394C35.2922 -1.46588 40.9434 13.756 34.1303 13.4553C29.0373 13.1571 16.924 16.6015 12.7854 20.393Z" fill="#FF8863"/>
<path opacity="0.5" fill-rule="evenodd" clip-rule="evenodd" d="M12.9881 19.0753C7.8422 24.2503 4.22335 9.3666 17.6799 4.00309C32.2989 -1.80545 38.4003 11.2055 32.1001 11.4863C27.4532 11.591 16.5679 15.484 12.9881 19.0753Z" fill="#FF8E6B"/>
<path fill-rule="evenodd" clip-rule="evenodd" d="M32.3634 0.0488651C57.4955 0.0868809 64.6332 22.0799 64.613 35.439C64.6119 36.1539 64.6109 36.8688 64.6098 37.5389C63.5578 24.1335 55.7226 5.37871 32.4671 5.34353C9.21151 5.30835 1.34192 24.0618 0.249375 37.4416C0.250389 36.7714 0.25147 36.0565 0.252552 35.3417C0.0493628 21.9822 7.25364 0.0108831 32.3634 0.0488651Z" fill="#FF8E6B"/>
<path fill-rule="evenodd" clip-rule="evenodd" d="M32.3192 29.3584C46.7506 29.3802 58.449 34.4244 58.4397 40.5678C58.4304 46.7112 46.7168 51.7199 32.2854 51.698C17.854 51.6762 6.17799 46.6321 6.18729 40.4887C6.19658 34.3453 17.9102 29.3366 32.3192 29.3584Z" fill="#D9231F"/>
<path opacity="0.2" fill-rule="evenodd" clip-rule="evenodd" d="M32.3635 0.0488292C54.5914 0.082452 62.764 17.3187 64.3301 30.5238C34.4508 23.1289 24.0906 49.0943 0.0286892 35.7211L0.0292637 35.3413C0.0494712 21.9822 7.25374 0.0108472 32.3635 0.0488292Z" fill="white"/>
<path opacity="0.2" fill-rule="evenodd" clip-rule="evenodd" d="M16.5391 5.05135C26.2879 -0.675198 36.654 -1.03928 39.8406 4.26004C43.0271 9.55936 37.5851 18.487 27.814 24.2135C18.0429 29.94 7.69908 30.3042 4.51252 25.0048C1.32596 19.7055 6.79034 10.7779 16.5391 5.05135Z" fill="white"/>
<path opacity="0.5" fill-rule="evenodd" clip-rule="evenodd" d="M60.8834 34.7855C62.3349 35.1451 63.1137 37.1792 62.6191 39.2561C62.1245 41.3329 60.3796 42.9164 59.0397 42.5793C57.6998 42.2421 56.8094 40.1855 57.2816 38.1087C57.7539 36.0318 59.4094 34.4482 60.8834 34.7855Z" fill="white"/>
<path opacity="0.5" fill-rule="evenodd" clip-rule="evenodd" d="M19.0184 5.27844C23.2884 3.25199 27.6219 3.50427 28.713 5.80691C29.8042 8.10955 27.2298 11.6353 22.9598 13.7065C18.6898 15.7776 14.3563 15.4806 13.2652 13.1556C12.1741 10.8307 14.7485 7.28256 19.0184 5.27844Z" fill="white"/>
<path opacity="0.5" fill-rule="evenodd" clip-rule="evenodd" d="M8.01093 16.2752C9.33174 14.4454 11.2096 13.5546 12.2138 14.271C13.218 14.9874 12.9245 17.0645 11.6037 18.8944C10.2828 20.7243 8.40496 21.615 7.4231 20.8986C6.44124 20.1823 6.69005 18.1498 8.01093 16.2752Z" fill="white"/>
</svg>
