<svg width="46" height="39" viewBox="0 0 46 39" fill="none" xmlns="http://www.w3.org/2000/svg">
<path fill-rule="evenodd" clip-rule="evenodd" d="M22.5337 0C5.01364 0 0 15.337 0 24.6442C0 33.9514 10.0888 38.146 22.5337 38.146C34.9779 38.146 45.0667 33.952 45.0667 24.6442C45.0667 15.3363 40.0531 0 22.5337 0Z" fill="#F9B902"/>
<path fill-rule="evenodd" clip-rule="evenodd" d="M22.1781 0.619085C0.724891 0.550604 -2.50409 28.1464 7.42358 22.8851C14.3042 19.2376 31.43 19.9999 37.9343 22.8851C46.6265 26.7408 45.4817 0.693791 22.1781 0.619085Z" fill="#F9B902"/>
<path opacity="0.9545" fill-rule="evenodd" clip-rule="evenodd" d="M21.2796 0.815549C0.924102 1.09293 -1.77987 27.1254 7.57091 22.0135C14.0517 18.4698 30.3108 18.9139 36.519 21.5266C44.8156 25.017 43.3913 0.513265 21.2796 0.815549Z" fill="#F9BE02"/>
<path opacity="0.9091" fill-rule="evenodd" clip-rule="evenodd" d="M20.3809 1.01061C1.12187 1.63593 -1.05638 26.1037 7.7168 21.1413C13.7985 17.7013 29.1901 17.8279 35.103 20.1666C43.0053 23.2932 41.2995 0.332025 20.3809 1.01061Z" fill="#FAC302"/>
<path opacity="0.8636" fill-rule="evenodd" clip-rule="evenodd" d="M19.4817 1.20637C1.32112 2.17756 -0.333495 25.082 7.86347 20.269C13.5453 16.9328 28.0695 16.7412 33.6877 18.8074C41.1951 21.5695 39.2084 0.151489 19.4817 1.20637Z" fill="#FAC702"/>
<path opacity="0.8182" fill-rule="evenodd" clip-rule="evenodd" d="M18.5826 1.40216C1.51972 2.72059 0.389431 24.0604 8.0095 19.3967C13.2915 16.1643 26.949 15.6538 32.2711 17.4475C39.3842 19.8457 37.1174 -0.0297158 18.5826 1.40216Z" fill="#FBCC02"/>
<path opacity="0.7727" fill-rule="evenodd" clip-rule="evenodd" d="M17.6839 1.59789C1.71881 3.26218 1.11285 23.0394 8.15671 18.5245C13.0382 15.3951 25.8297 14.5671 30.8564 16.0882C37.5738 18.1219 35.0255 -0.210288 17.6839 1.59789Z" fill="#FBD102"/>
<path opacity="0.7273" fill-rule="evenodd" clip-rule="evenodd" d="M16.7847 1.79365C1.91671 3.80519 1.83578 22.0177 8.30204 17.6529C12.7844 14.6273 24.7084 13.4804 29.4399 14.729C35.7629 16.3981 32.9351 -0.391519 16.7847 1.79365Z" fill="#FCD603"/>
<path opacity="0.6818" fill-rule="evenodd" clip-rule="evenodd" d="M15.8862 1.99008C2.11525 4.34817 2.55934 20.9967 8.44871 16.7813C12.5313 13.8587 23.5878 12.395 28.0239 13.3711C33.952 14.6743 30.8434 -0.571391 15.8862 1.99008Z" fill="#FCDB03"/>
<path opacity="0.6364" fill-rule="evenodd" clip-rule="evenodd" d="M14.9862 2.18517C2.31377 4.88983 3.28219 19.975 8.59466 15.909C12.2774 13.0903 22.4673 11.3077 26.6072 12.0105C32.1411 12.9505 28.7516 -0.752592 14.9862 2.18517Z" fill="#FDE003"/>
<path opacity="0.5909" fill-rule="evenodd" clip-rule="evenodd" d="M14.0876 2.38092C2.51221 5.43283 4.00564 18.9533 8.74121 15.0368C12.0241 12.3224 21.3479 10.2217 25.1926 10.6512C30.33 11.2267 26.6604 -0.933141 14.0876 2.38092Z" fill="#FDE403"/>
<path opacity="0.5455" fill-rule="evenodd" clip-rule="evenodd" d="M13.1885 2.5767C2.71087 5.97516 4.72865 17.9317 8.88732 14.1652C11.7711 11.5532 20.2268 9.13427 23.776 9.2913C28.5206 9.50227 24.5695 -1.11436 13.1885 2.5767Z" fill="#FEE903"/>
<path opacity="0.5" fill-rule="evenodd" clip-rule="evenodd" d="M12.2892 2.77245C2.90937 6.51746 5.45147 16.9113 9.03392 13.2929C11.5179 10.7854 19.1069 8.04824 22.36 7.93273C26.7089 7.77916 22.4783 -1.29422 12.2892 2.77245Z" fill="#FEEE03"/>
<path fill-rule="evenodd" clip-rule="evenodd" d="M22.5337 0C5.01364 0 0 15.337 0 24.6442C0 25.1512 0.0325089 25.6423 0.090614 26.1189C0.834221 16.7861 6.34383 3.69036 22.5337 3.69036C38.7236 3.69036 44.2325 16.7861 44.9761 26.1189C45.0349 25.6416 45.0667 25.1505 45.0667 24.6442C45.0667 15.337 40.0531 0 22.5337 0Z" fill="#FEEE03"/>
<path fill-rule="evenodd" clip-rule="evenodd" d="M22.5337 20.4247C12.467 20.4247 4.30664 23.9379 4.30664 28.273C4.30664 32.6073 12.467 36.1213 22.5337 36.1213C32.6004 36.1213 40.76 32.6073 40.76 28.273C40.7607 23.9379 32.6004 20.4247 22.5337 20.4247Z" fill="#F29E00"/>
<path fill-rule="evenodd" clip-rule="evenodd" d="M28.8235 9.37219H20.4059C20.3187 9.37219 20.2322 9.37705 20.1479 9.38674C19.0058 9.39158 18.0754 10.3261 18.0754 11.4681V11.7047V12.9325V14.7691V15.9242C18.0754 16.4334 18.4919 16.8505 19.0017 16.8505H20.1555H21.3093C21.8191 16.8505 22.2355 16.4334 22.2355 15.9242V14.7691V14.0351H26.4924V25.4957H22.2355V24.7756V23.6515C22.2355 23.1424 21.8191 22.7253 21.3093 22.7253H20.5041C20.3907 22.7052 20.2744 22.6963 20.1555 22.6963C20.0372 22.6963 19.921 22.7052 19.8075 22.7253H19.0017C18.4919 22.7253 18.0754 23.1424 18.0754 23.6515V24.7756V26.6426V27.8261V28.0779C18.0754 29.222 19.0107 30.1579 20.1555 30.1579L20.2793 30.1545L20.4066 30.1579H28.8242C30.1067 30.1579 31.1553 29.1086 31.1553 27.8261V11.704C31.1546 10.4209 30.1053 9.37219 28.8235 9.37219Z" stroke="#F29E00" stroke-width="1.2467" stroke-miterlimit="22.9256"/>
<path fill-rule="evenodd" clip-rule="evenodd" d="M19.2957 21.7147C19.8062 21.7147 20.2226 21.299 20.2226 20.7885V20.0829V20.0815V19.3752C20.2226 18.8654 19.8062 18.449 19.2957 18.449H18.5901H16.6533V15.4677C16.6547 14.7441 16.3794 14.5754 15.8931 14.8327L9.53541 19.636C9.22067 19.9895 9.26632 20.3271 9.55823 20.6543L15.6558 25.2619C16.1871 25.5475 16.6443 25.6326 16.6526 24.4837V21.7147H18.5894H19.2957Z" stroke="#F29E00" stroke-width="1.2467" stroke-miterlimit="22.9256"/>
<path fill-rule="evenodd" clip-rule="evenodd" d="M19.149 21.7147V18.449H18.5901H16.6533V15.4677C16.6547 14.7441 16.3794 14.5754 15.8931 14.8327L9.53541 19.636C9.22067 19.9895 9.26632 20.3271 9.55823 20.6543L15.6558 25.2619C16.1871 25.5475 16.6443 25.6326 16.6526 24.4837V21.7147H18.5894H19.149Z" fill="#E6E6E6"/>
<path fill-rule="evenodd" clip-rule="evenodd" d="M19.2957 21.7147C19.8062 21.7147 20.2226 21.299 20.2226 20.7885V20.0829V20.0815V19.3753C20.2226 18.8654 19.8062 18.449 19.2957 18.449H19.149V21.7147H19.2957Z" fill="#E6E6E6"/>
<path fill-rule="evenodd" clip-rule="evenodd" d="M19.0017 22.7246C18.4919 22.7246 18.0754 23.1417 18.0754 23.6508V24.7749V26.6419V27.8254V28.0772C18.0754 28.8575 18.5105 29.5395 19.149 29.8957V22.7239H19.0017V22.7246Z" fill="#E6E6E6"/>
<path fill-rule="evenodd" clip-rule="evenodd" d="M28.8235 9.37219H20.4059C20.3187 9.37219 20.2322 9.37705 20.1479 9.38674C19.7861 9.38881 19.4458 9.48358 19.149 9.6489V16.8498H20.1548H21.3086C21.8184 16.8498 22.2348 16.4327 22.2348 15.9235V14.7684V14.0344H26.4917V25.495H22.2348V24.7749V23.6508C22.2348 23.1417 21.8184 22.7246 21.3086 22.7246H20.5034C20.39 22.7046 20.2737 22.6956 20.1548 22.6956C20.0365 22.6956 19.9203 22.7046 19.8068 22.7246H19.1483V29.8965C19.4471 30.0625 19.7902 30.1579 20.1541 30.1579L20.2779 30.1545L20.4052 30.1579H28.8228C30.1053 30.1579 31.1539 29.1086 31.1539 27.8261V11.704C31.1546 10.4209 30.1053 9.37219 28.8235 9.37219Z" fill="#E6E6E6"/>
<path fill-rule="evenodd" clip-rule="evenodd" d="M18.0754 11.4674V11.704V12.9318V14.7684V15.9235C18.0754 16.4327 18.4919 16.8498 19.0017 16.8498H19.149V9.6489C18.5105 10.0038 18.0754 10.6872 18.0754 11.4674Z" fill="#E6E6E6"/>
<path fill-rule="evenodd" clip-rule="evenodd" d="M18.5902 18.449H16.6534V15.4684C16.6554 14.7442 16.3794 14.5754 15.8925 14.8327L9.53549 19.636C9.384 19.8062 9.31621 19.9722 9.31828 20.1362H19.1484V18.4483H18.5902V18.449Z" fill="white"/>
<path fill-rule="evenodd" clip-rule="evenodd" d="M19.2957 18.449H19.149V20.1369H20.2226V20.0829V20.0815V19.3753C20.2226 18.8654 19.8055 18.449 19.2957 18.449Z" fill="white"/>
<path fill-rule="evenodd" clip-rule="evenodd" d="M28.8235 9.37219H20.4059C20.3188 9.37219 20.2316 9.37704 20.1479 9.38741C19.7861 9.3888 19.4458 9.48427 19.149 9.6489V16.8498H20.1548H21.3093C21.8184 16.8498 22.2348 16.4327 22.2348 15.9235V14.7684V14.0338H26.4924V20.1369H31.154V11.704C31.1547 10.4209 30.1053 9.37219 28.8235 9.37219Z" fill="white"/>
<path fill-rule="evenodd" clip-rule="evenodd" d="M18.0754 11.4674V11.704V12.9311V14.7684V15.9235C18.0754 16.4327 18.4919 16.8498 19.0017 16.8498H19.149V9.6489C18.5092 10.0038 18.0754 10.6872 18.0754 11.4674Z" fill="white"/>
<path opacity="0.2" fill-rule="evenodd" clip-rule="evenodd" d="M22.5337 0C5.01364 0 0 15.337 0 24.6442C0 24.7369 0.00346125 24.8275 0.00484471 24.9195C16.7391 34.2108 24.0043 16.1 44.8551 21.2257C43.7476 12.0118 38.0388 0 22.5337 0Z" fill="white"/>
<path opacity="0.1" fill-rule="evenodd" clip-rule="evenodd" d="M11.4993 3.50014C4.70306 7.50732 0.957362 13.7446 3.13077 17.4322C5.30556 21.1198 12.577 20.8604 19.3725 16.8532C26.1687 12.8467 29.9151 6.60876 27.741 2.92185C25.5669 -0.765744 18.2955 -0.506347 11.4993 3.50014Z" fill="white"/>
<path opacity="0.5" fill-rule="evenodd" clip-rule="evenodd" d="M42.4534 24.2035C41.4283 23.9656 40.3104 25.0025 39.9583 26.5201C39.6063 28.0371 40.1513 29.4607 41.1765 29.6986C42.2023 29.9366 43.3187 28.8997 43.6722 27.382C44.0236 25.8651 43.4785 24.4415 42.4534 24.2035Z" fill="white"/>
<path opacity="0.5" fill-rule="evenodd" clip-rule="evenodd" d="M13.2209 3.65094C10.25 5.05861 8.46046 7.50663 9.22482 9.11905C9.98848 10.7308 13.0169 10.8968 15.9871 9.48843C18.9581 8.08007 20.7476 5.63274 19.9832 4.02032C19.2189 2.4086 16.1912 2.24258 13.2209 3.65094Z" fill="white"/>
<path opacity="0.5" fill-rule="evenodd" clip-rule="evenodd" d="M5.55728 11.3436C4.63521 12.6212 4.44983 14.0614 5.14225 14.5622C5.83536 15.0624 7.14479 14.4329 8.06618 13.1566C8.98894 11.879 9.17432 10.4382 8.4819 9.93805C7.78879 9.43724 6.48005 10.0667 5.55728 11.3436Z" fill="white"/>
</svg>
