<svg width="390" height="672" viewBox="0 0 390 672" fill="none" xmlns="http://www.w3.org/2000/svg">
<g filter="url(#filter0_d_1_77)">
<path fill-rule="evenodd" clip-rule="evenodd" d="M345.756 221.44C351.451 311.391 357.146 401.343 362.841 491.295C364.379 515.361 347.721 529.65 330.35 535.246C243.414 563.205 153.402 562.63 60.4569 535.246C43.0013 530.092 26.7416 515.339 27.966 491.295C32.4652 401.343 36.9739 311.391 41.492 221.44C45.2224 148.38 341.086 148.136 345.756 221.44Z" fill="#0471EF"/>
<path fill-rule="evenodd" clip-rule="evenodd" d="M325.253 233.694C330.208 304.077 335.144 374.461 340.06 444.844C341.399 463.69 327.019 474.86 312.012 479.24C236.921 501.116 159.182 500.674 78.9091 479.24C63.8454 475.214 49.8069 463.757 50.8605 444.844C54.7711 374.461 58.6628 304.077 62.5356 233.694C65.7248 176.515 321.238 176.316 325.253 233.694Z" fill="#0471EF"/>
<path fill-rule="evenodd" clip-rule="evenodd" d="M320.185 230.885L334.422 434.139C335.675 452.277 321.922 463.027 307.541 467.318C235.668 488.375 161.204 487.933 84.3482 467.318C69.9109 463.425 56.4704 452.365 57.4955 434.139L68.6865 230.885C71.648 175.852 316.312 175.675 320.185 230.885Z" fill="#0477F0"/>
<path fill-rule="evenodd" clip-rule="evenodd" d="M315.088 228.098C319.606 293.202 324.124 358.314 328.642 423.433C329.867 440.863 316.711 451.193 303.014 455.241C234.33 475.48 163.169 475.148 89.7304 455.241C75.9481 451.525 63.1055 440.885 64.1022 423.433C67.6901 358.314 71.2591 293.202 74.8091 228.098C77.5997 175.188 311.414 175.034 315.088 228.098Z" fill="#047DF1"/>
<path fill-rule="evenodd" clip-rule="evenodd" d="M310.019 225.311L322.918 412.749C324.086 429.472 311.528 439.293 298.429 443.274C232.935 462.695 165.106 462.297 95.0551 443.274C81.8993 439.691 69.6547 429.494 70.5659 412.749C73.9071 350.24 77.3052 287.761 80.7603 225.311C83.5225 174.547 306.488 174.436 310.019 225.311Z" fill="#0483F2"/>
<path fill-rule="evenodd" clip-rule="evenodd" d="M304.922 222.479L317.223 401.999C318.305 418.036 306.374 427.525 293.93 431.263C231.597 449.843 167.071 449.467 100.437 431.263C87.9079 427.835 76.2612 417.992 77.144 401.999C80.3902 342.174 83.627 282.334 86.8542 222.479C89.474 173.883 301.59 173.728 304.922 222.479Z" fill="#0489F3"/>
<path fill-rule="evenodd" clip-rule="evenodd" d="M299.853 219.692C303.65 276.893 307.532 334.093 311.5 391.294C312.553 406.622 301.22 415.625 289.402 419.252C230.287 436.948 169.035 436.682 105.819 419.252C93.9447 415.979 82.8961 406.644 83.7219 391.294C86.7783 334.093 89.8442 276.893 92.9196 219.692C95.5109 173.22 296.664 173.065 299.853 219.692Z" fill="#048FF4"/>
<path fill-rule="evenodd" clip-rule="evenodd" d="M294.841 216.883C298.505 271.444 302.188 326.005 305.89 380.566C306.858 395.187 296.151 403.835 284.96 407.242C229.034 424.207 171.057 423.853 111.258 407.242C100.01 404.123 89.5594 395.209 90.3283 380.566L99.0419 216.883C101.348 172.578 291.766 172.423 294.841 216.883Z" fill="#0395F5"/>
<path fill-rule="evenodd" clip-rule="evenodd" d="M289.659 214.096L300.081 369.882C301.021 383.795 290.912 392.002 280.347 395.253C227.61 411.4 172.965 411.068 116.583 395.253C105.99 392.289 96.1089 383.817 96.8493 369.882C99.583 317.946 102.326 266.018 105.079 214.096C107.3 171.915 286.84 171.782 289.659 214.096Z" fill="#039BF6"/>
<path fill-rule="evenodd" clip-rule="evenodd" d="M284.59 211.287C287.837 260.598 291.092 309.895 294.357 359.176C295.24 372.448 285.815 380.19 275.848 383.264C226.272 398.593 174.959 398.283 122.079 383.264C112.113 380.455 102.858 372.404 103.541 359.176C106.104 309.88 108.676 260.583 111.258 211.287C113.252 171.251 281.942 171.118 284.59 211.287Z" fill="#03A1F7"/>
<path fill-rule="evenodd" clip-rule="evenodd" d="M279.492 208.5C282.568 255.142 285.624 301.799 288.662 348.471C289.459 360.968 280.603 368.378 271.32 371.276C224.933 385.764 176.923 385.476 127.346 371.276C118.006 368.599 109.35 360.99 110.005 348.471C112.397 301.799 114.798 255.142 117.209 208.5C119.174 170.588 277.015 170.477 279.492 208.5Z" fill="#03A8F8"/>
<path fill-rule="evenodd" clip-rule="evenodd" d="M274.424 205.691C277.271 249.708 280.119 293.733 282.967 337.765C283.735 349.555 275.478 356.544 266.821 359.265C223.652 372.957 178.916 372.669 132.757 359.265C124.072 356.743 115.985 349.555 116.611 337.765C118.832 293.748 121.072 249.723 123.331 205.691C125.125 170.012 272.06 169.813 274.424 205.691Z" fill="#03AEF9"/>
<path fill-rule="evenodd" clip-rule="evenodd" d="M269.213 202.904C271.871 244.296 274.5 285.682 277.101 327.059C277.813 338.119 270.153 344.755 262.151 347.276C222.285 360.128 180.739 359.884 137.969 347.276C129.938 344.91 122.478 338.141 123.019 327.059L129.255 202.904C131.049 169.283 267.192 169.172 269.213 202.904Z" fill="#03B4FA"/>
<path fill-rule="evenodd" clip-rule="evenodd" d="M194.35 445.066C278.724 445.066 347.123 466.411 347.123 492.777C347.123 519.143 278.781 540.488 194.35 540.488C109.92 540.488 41.5779 519.121 41.5779 492.777C41.5779 466.433 109.977 445.066 194.35 445.066Z" fill="#0267EA"/>
<path opacity="0.2" fill-rule="evenodd" clip-rule="evenodd" d="M317.195 489.548C330.92 480.965 344.987 482.602 348.518 493.219C352.049 503.837 343.962 519.387 330.208 527.991C316.455 536.595 302.416 534.959 298.885 524.341C295.354 513.724 303.384 498.152 317.195 489.548Z" fill="white"/>
<path opacity="0.2" fill-rule="evenodd" clip-rule="evenodd" d="M345.756 221.44C351.451 311.392 357.146 401.343 362.841 491.295C363.65 500.135 361.357 508.98 356.206 516.887L339.947 249.642C338.836 231.526 320.64 217.923 293.844 208.788C296.921 213.451 298.541 218.611 298.571 223.851C298.571 251.301 253.295 273.553 197.397 273.553C141.499 273.553 96.2511 251.301 96.2511 223.851C96.3184 217.417 98.7271 211.129 103.199 205.713C71.0501 214.848 48.4973 229.491 47.5006 249.642L34.6295 516.71C29.6143 508.791 27.3376 499.994 28.0231 491.184C32.5223 401.233 37.0309 311.281 41.5491 221.329C45.2225 148.38 341.086 148.136 345.756 221.44Z" fill="white"/>
<path opacity="0.2" fill-rule="evenodd" clip-rule="evenodd" d="M345.756 221.44L353.872 349.179C285.986 307.771 224.535 418.788 33.8895 374.328L41.5495 221.396C45.2228 148.38 341.086 148.136 345.756 221.44Z" fill="white"/>
<path fill-rule="evenodd" clip-rule="evenodd" d="M311.67 123.23C368.394 145.128 360.079 189.964 344.987 213.366C329.895 236.768 290.598 234.711 250.334 219.161C210.069 203.612 184.127 180.453 199.077 157.05C214.027 133.648 254.975 101.443 311.67 123.23Z" fill="#0471EF"/>
<path fill-rule="evenodd" clip-rule="evenodd" d="M225.958 161.895C185.352 162.735 240.196 97.3728 309.535 124.292C384.853 153.578 346.553 220.533 324.741 199.962C308.31 184.655 254.092 161.32 225.958 161.895Z" fill="#0471EF"/>
<path opacity="0.95" fill-rule="evenodd" clip-rule="evenodd" d="M227.837 159.904C189.481 161.165 239.968 98.9874 306.231 123.717C378.303 150.592 343.506 213.986 322.235 194.852C306.431 180.519 254.519 159.085 227.837 159.904Z" fill="#0478F0"/>
<path opacity="0.91" fill-rule="evenodd" clip-rule="evenodd" d="M229.717 157.891C193.325 159.395 239.74 100.58 303.099 123.075C371.896 147.406 340.488 207.394 319.928 189.654C304.551 176.383 254.975 156.741 229.717 157.891Z" fill="#047EF1"/>
<path opacity="0.86" fill-rule="evenodd" clip-rule="evenodd" d="M231.596 155.878C197.425 157.736 239.513 102.195 299.938 122.456C365.433 144.443 337.498 200.803 317.622 184.39C302.672 172.224 255.345 154.529 231.596 155.878Z" fill="#0484F2"/>
<path opacity="0.82" fill-rule="evenodd" clip-rule="evenodd" d="M233.448 153.865C201.298 156.077 239.285 103.809 296.635 121.814C358.94 141.39 334.309 194.189 315.145 179.325C300.793 168.11 255.773 152.317 233.448 153.865Z" fill="#048AF3"/>
<path opacity="0.77" fill-rule="evenodd" clip-rule="evenodd" d="M235.327 151.852C205.257 154.396 239.057 105.402 293.418 121.195C352.476 138.315 331.234 187.553 312.753 174.082C298.914 163.974 256.171 150.105 235.327 151.852Z" fill="#0491F4"/>
<path opacity="0.73" fill-rule="evenodd" clip-rule="evenodd" d="M237.206 149.84C209.243 152.737 238.801 107.039 290.2 120.554C346.098 135.241 328.129 181.072 310.361 168.906C297.034 159.86 256.598 147.893 237.206 149.84Z" fill="#0397F5"/>
<path opacity="0.68" fill-rule="evenodd" clip-rule="evenodd" d="M239.085 147.893C213.229 151.145 238.573 108.72 286.953 120.001C339.519 132.188 325.054 174.436 307.94 163.708C295.154 155.723 256.997 145.681 239.085 147.893Z" fill="#039EF6"/>
<path opacity="0.64" fill-rule="evenodd" clip-rule="evenodd" d="M240.965 145.836C217.216 149.419 238.345 110.268 283.679 119.293C332.97 129.114 321.893 167.801 305.491 158.533C293.275 151.587 257.424 143.337 240.965 145.836Z" fill="#03A4F7"/>
<path opacity="0.59" fill-rule="evenodd" clip-rule="evenodd" d="M242.845 143.823C221.203 147.738 238.118 111.883 280.518 118.673C326.535 126.039 318.875 161.209 303.156 153.334C291.396 147.451 257.823 141.08 242.845 143.823Z" fill="#03ABF8"/>
<path opacity="0.55" fill-rule="evenodd" clip-rule="evenodd" d="M244.724 141.81C225.189 146.079 237.89 113.498 277.272 118.032C319.985 122.987 315.771 154.617 300.764 148.158C289.516 143.314 258.25 138.846 244.724 141.81Z" fill="#03B1F9"/>
<path opacity="0.5" fill-rule="evenodd" clip-rule="evenodd" d="M246.603 139.797C229.176 144.42 237.662 115.09 274.054 117.413C313.578 119.912 312.696 148.004 298.372 142.961C287.637 139.2 258.677 136.59 246.603 139.797Z" fill="#03B8FA"/>
<path fill-rule="evenodd" clip-rule="evenodd" d="M311.671 123.23C368.395 145.128 360.08 189.964 344.987 213.366C344.191 214.605 343.307 215.809 342.339 216.972C354.925 192.64 358.172 152.826 305.748 132.52C253.324 112.215 214.426 138.338 196.999 160.877C197.607 159.575 198.3 158.297 199.078 157.05C214.056 133.648 254.975 101.443 311.671 123.23Z" fill="#03B8FA"/>
<path fill-rule="evenodd" clip-rule="evenodd" d="M278.838 174.591C311.414 187.177 332.173 206.222 325.225 217.104C318.277 227.987 286.298 226.66 253.58 214.074C220.861 201.488 200.216 182.466 207.192 171.561C214.169 160.656 246.233 162.027 278.838 174.591Z" fill="#0267EA"/>
<path opacity="0.2" fill-rule="evenodd" clip-rule="evenodd" d="M311.67 123.23C361.873 142.607 361.047 179.944 349.799 204.496C290.541 165.589 237.89 202.019 198.65 157.758L199.077 157.05C214.055 133.648 254.975 101.443 311.67 123.23Z" fill="white"/>
<path opacity="0.2" fill-rule="evenodd" clip-rule="evenodd" d="M270.324 118.253C298.8 116.661 322.748 125.11 323.83 137.099C324.912 149.088 302.786 160.081 274.339 161.674C245.892 163.266 221.944 154.817 220.833 142.828C219.723 130.839 241.877 119.824 270.324 118.253Z" fill="white"/>
<path opacity="0.5" fill-rule="evenodd" clip-rule="evenodd" d="M337.242 208.987C340.089 210.867 339.662 215.136 336.074 218.52C332.486 221.904 327.19 223.099 324.257 221.219C321.324 219.338 321.865 215.069 325.424 211.707C328.984 208.345 334.309 207.106 337.242 208.987Z" fill="white"/>
<path opacity="0.5" fill-rule="evenodd" clip-rule="evenodd" d="M275.649 120.775C287.551 120.952 297.091 125.199 296.948 130.153C296.806 135.108 287.096 139.001 275.221 139.001C263.347 139.001 253.808 134.577 253.922 129.623C254.035 124.668 263.774 120.598 275.649 120.775Z" fill="white"/>
<path opacity="0.5" fill-rule="evenodd" clip-rule="evenodd" d="M238.488 130.552C243.528 128.494 248.767 128.539 250.22 130.662C251.672 132.786 248.71 136.192 243.67 138.249C238.63 140.306 233.39 140.24 231.967 138.116C230.543 135.993 233.447 132.609 238.488 130.552Z" fill="white"/>
<path fill-rule="evenodd" clip-rule="evenodd" d="M71.4484 123.23C14.7247 145.128 23.0397 189.964 38.1318 213.366C53.224 236.768 92.5206 234.711 132.814 219.161C173.107 203.612 199.02 180.453 184.07 157.05C169.12 133.648 128.172 101.443 71.4484 123.23Z" fill="#0471EF"/>
<path fill-rule="evenodd" clip-rule="evenodd" d="M157.189 161.895C197.796 162.735 142.951 97.3728 73.5844 124.292C-1.734 153.578 36.566 220.533 58.4069 199.962C74.8089 184.655 129.027 161.32 157.189 161.895Z" fill="#0471EF"/>
<path opacity="0.95" fill-rule="evenodd" clip-rule="evenodd" d="M155.31 159.904C193.809 161.076 143.179 98.9874 76.8304 123.717C4.75817 150.592 39.5556 213.986 60.7985 194.852C76.688 180.519 128.628 159.085 155.31 159.904Z" fill="#0478F0"/>
<path opacity="0.91" fill-rule="evenodd" clip-rule="evenodd" d="M153.43 157.891C189.822 159.395 143.407 100.58 80.0484 123.075C11.2224 147.406 42.6312 207.394 63.1907 189.654C78.5676 176.383 128.201 156.741 153.43 157.891Z" fill="#047EF1"/>
<path opacity="0.86" fill-rule="evenodd" clip-rule="evenodd" d="M151.551 155.878C185.722 157.736 143.635 102.195 83.2092 122.456C17.715 144.443 45.6782 200.803 65.5258 184.39C80.4471 172.224 127.802 154.529 151.551 155.878Z" fill="#0484F2"/>
<path opacity="0.82" fill-rule="evenodd" clip-rule="evenodd" d="M149.615 153.865C181.792 156.077 143.919 103.809 86.4268 121.814C24.1218 141.39 48.7534 194.189 67.9461 179.325C82.3263 168.11 127.375 152.317 149.615 153.865Z" fill="#048AF3"/>
<path opacity="0.77" fill-rule="evenodd" clip-rule="evenodd" d="M147.793 151.852C177.863 154.396 144.091 105.402 89.7304 121.195C30.6717 138.315 51.9146 187.553 70.3954 174.082C84.1207 163.974 126.834 150.105 147.793 151.852Z" fill="#0491F4"/>
<path opacity="0.73" fill-rule="evenodd" clip-rule="evenodd" d="M145.913 149.84C173.876 152.737 144.319 107.039 92.9483 120.554C37.1358 135.241 54.9901 181.072 72.7305 168.906C86.0856 159.86 126.55 147.893 145.913 149.84Z" fill="#0397F5"/>
<path opacity="0.68" fill-rule="evenodd" clip-rule="evenodd" d="M143.92 147.893C169.776 151.145 144.432 108.72 96.052 120.001C43.6281 132.188 58.0937 174.436 75.1792 163.708C87.9648 155.723 126.122 145.681 143.92 147.893Z" fill="#039EF6"/>
<path opacity="0.64" fill-rule="evenodd" clip-rule="evenodd" d="M142.154 145.836C165.903 149.419 144.774 110.268 99.4404 119.293C50.0919 129.114 61.169 167.801 77.5711 158.533C89.8157 151.587 125.724 143.337 142.154 145.836Z" fill="#03A4F7"/>
<path opacity="0.59" fill-rule="evenodd" clip-rule="evenodd" d="M140.303 143.823C161.916 147.738 145.002 111.883 102.63 118.673C56.5842 126.039 64.2727 161.209 79.8489 153.334C91.7233 147.451 125.296 141.08 140.303 143.823Z" fill="#03ABF8"/>
<path opacity="0.55" fill-rule="evenodd" clip-rule="evenodd" d="M138.424 141.81C157.93 146.079 145.23 113.498 105.848 118.032C63.1339 122.987 67.3483 154.617 82.3835 148.158C93.603 143.314 124.869 138.846 138.424 141.81Z" fill="#03B1F9"/>
<path opacity="0.5" fill-rule="evenodd" clip-rule="evenodd" d="M136.545 139.797C153.943 144.42 145.458 115.09 109.066 117.413C69.5411 119.912 70.4524 148.004 84.7757 142.961C95.511 139.2 124.471 136.59 136.545 139.797Z" fill="#03B8FA"/>
<path fill-rule="evenodd" clip-rule="evenodd" d="M71.4484 123.23C14.7247 145.128 23.0397 189.964 38.1318 213.366C38.9266 214.61 39.8206 215.814 40.8086 216.972C28.1938 192.64 24.976 152.826 77.3714 132.52C129.767 112.215 168.693 138.338 186.12 160.877C185.537 159.567 184.843 158.289 184.042 157.05C169.063 133.648 128.172 101.443 71.4484 123.23Z" fill="#03B8FA"/>
<path fill-rule="evenodd" clip-rule="evenodd" d="M104.31 174.591C71.7054 187.177 50.9465 206.222 57.9231 217.104C64.8997 227.987 96.9634 226.66 129.568 214.074C162.173 201.488 182.903 182.466 175.927 171.561C168.95 160.656 136.886 162.027 104.31 174.591Z" fill="#0267EA"/>
<path opacity="0.2" fill-rule="evenodd" clip-rule="evenodd" d="M71.4489 123.23C21.2461 142.607 22.1004 179.944 33.3199 204.496C92.6634 165.589 145.23 202.019 184.469 157.758L184.042 157.05C169.064 133.648 128.173 101.443 71.4489 123.23Z" fill="white"/>
<path opacity="0.2" fill-rule="evenodd" clip-rule="evenodd" d="M112.795 118.253C84.3196 116.661 60.3999 125.11 59.2894 137.099C58.1788 149.088 80.333 160.081 108.78 161.674C137.228 163.266 161.204 154.817 162.315 142.828C163.425 130.839 141.243 119.824 112.795 118.253Z" fill="white"/>
<path opacity="0.5" fill-rule="evenodd" clip-rule="evenodd" d="M45.9061 208.987C43.0586 210.867 43.4857 215.136 47.0736 218.52C50.6616 221.904 55.9297 223.099 58.8627 221.219C61.7957 219.338 61.2831 215.069 57.6951 211.707C54.1072 208.345 48.8391 207.106 45.9061 208.987Z" fill="white"/>
<path opacity="0.5" fill-rule="evenodd" clip-rule="evenodd" d="M107.471 120.775C95.5964 120.952 86.057 125.199 86.1709 130.153C86.2848 135.108 96.0236 139.001 107.898 139.001C119.772 139.001 129.312 134.577 129.198 129.623C129.084 124.668 119.345 120.598 107.471 120.775Z" fill="white"/>
<path opacity="0.5" fill-rule="evenodd" clip-rule="evenodd" d="M144.66 130.552C139.62 128.494 134.352 128.539 132.928 130.662C131.504 132.786 134.409 136.192 139.449 138.249C144.489 140.306 149.728 140.24 151.181 138.116C152.633 135.993 149.615 132.609 144.66 130.552Z" fill="white"/>
<path fill-rule="evenodd" clip-rule="evenodd" d="M73.6418 224.846H313.693C325.51 224.846 335.163 238.604 335.163 255.415V490.123C335.163 521.775 312.553 527.991 299.17 517.728C285.786 507.464 276.759 540.488 256.456 540.488C236.153 540.488 220.207 520.581 191.93 520.581C163.654 520.581 127.433 536.396 107.727 536.396C74.6099 536.396 50.4625 494.259 50.7757 448.229L52.171 255.304C52.171 238.494 61.8243 224.735 73.6133 224.735L73.6418 224.846ZM273.2 479.682C270.352 471.233 264.8 477.05 257.681 482.071C250.562 487.092 244.496 489.481 247.429 497.909C250.362 506.336 258.506 509.079 265.625 504.058C272.744 499.037 276.133 488.11 273.2 479.727V479.682ZM63.9315 450.927C59.6317 454.068 58.2364 462.628 61.0839 470.016C63.9315 477.404 69.3988 480.855 73.6987 477.692C77.9985 474.529 75.151 469.375 72.4742 461.965C69.7975 454.555 68.2598 447.698 63.9315 450.927Z" fill="#532B0F"/>
<path fill-rule="evenodd" clip-rule="evenodd" d="M188.94 204.784C213.657 204.784 335.163 208.367 335.163 252.938V487.645C335.163 519.298 312.553 525.514 299.17 515.25C285.786 504.987 276.759 538.011 256.456 538.011C236.153 538.011 220.207 518.104 191.93 518.104C163.654 518.104 127.433 533.941 107.727 533.941C74.6099 533.941 50.4625 491.782 50.7757 445.751L52.171 252.827C52.5127 208.832 165.248 204.673 188.855 204.673L188.94 204.784ZM273.2 477.161C270.352 468.733 264.8 474.529 257.681 479.55C250.562 484.571 244.496 486.96 247.429 495.387C250.362 503.815 258.506 506.579 265.625 501.536C272.744 496.493 276.133 485.588 273.2 477.205V477.161ZM63.9315 448.406C59.6317 451.569 58.2364 460.107 61.0839 467.495C63.9315 474.883 69.3988 478.333 73.6987 475.17C77.9985 472.007 75.151 466.853 72.4742 459.465C69.7975 452.078 68.2598 445.221 63.9315 448.384V448.406Z" fill="#844517"/>
<path fill-rule="evenodd" clip-rule="evenodd" d="M107.727 529.097C84.9466 529.097 66.2379 508.946 57.0402 481.319C56.1005 478.51 55.2463 475.612 54.5344 472.671C52.4956 464.462 51.2864 456.142 50.918 447.786C50.918 447.211 50.918 446.614 50.918 446.039V449.954C51.0794 456.473 51.7259 462.98 52.8543 469.441C53.6516 473.865 54.6198 478.023 55.7019 482.093C64.2446 511.866 83.6651 534.052 107.699 534.052C127.404 534.052 163.625 518.214 191.902 518.214C220.178 518.214 236.153 538.122 256.428 538.122C276.702 538.122 285.786 505.097 299.141 515.361C299.568 515.67 299.967 515.98 300.394 516.246C313.066 524.673 332.543 519.21 334.878 493.131C335.049 491.42 335.135 489.629 335.135 487.756V483.774C335.116 486.906 334.811 490.033 334.223 493.131C330.237 513.724 314.29 518.634 302.473 512.507C301.294 511.884 300.189 511.181 299.17 510.406C285.815 500.143 276.759 533.189 256.456 533.189C236.153 533.189 220.206 513.282 191.93 513.282C163.654 513.282 127.432 529.097 107.727 529.097Z" fill="#9B511C"/>
</g>
<defs>
<filter id="filter0_d_1_77" x="-89" y="0" width="568" height="672" filterUnits="userSpaceOnUse" color-interpolation-filters="sRGB">
<feFlood flood-opacity="0" result="BackgroundImageFix"/>
<feColorMatrix in="SourceAlpha" type="matrix" values="0 0 0 0 0 0 0 0 0 0 0 0 0 0 0 0 0 0 127 0" result="hardAlpha"/>
<feOffset/>
<feGaussianBlur stdDeviation="58"/>
<feComposite in2="hardAlpha" operator="out"/>
<feColorMatrix type="matrix" values="0 0 0 0 0 0 0 0 0 0.46383 0 0 0 0 1 0 0 0 0.33 0"/>
<feBlend mode="normal" in2="BackgroundImageFix" result="effect1_dropShadow_1_77"/>
<feBlend mode="normal" in="SourceGraphic" in2="effect1_dropShadow_1_77" result="shape"/>
</filter>
</defs>
</svg>
