<svg width="46" height="39" viewBox="0 0 46 39" fill="none" xmlns="http://www.w3.org/2000/svg">
<path fill-rule="evenodd" clip-rule="evenodd" d="M22.5337 0C5.01432 0 0 15.3363 0 24.6435C0 33.9507 10.0888 38.1453 22.5337 38.1453C34.9779 38.1453 45.0667 33.9514 45.0667 24.6435C45.0667 15.3363 40.0531 0 22.5337 0Z" fill="#F9B902"/>
<path fill-rule="evenodd" clip-rule="evenodd" d="M22.1781 0.619085C0.724891 0.550604 -2.50409 28.1457 7.42358 22.8851C14.3042 19.2376 31.4293 19.9992 37.9343 22.8851C46.6265 26.7408 45.4817 0.6931 22.1781 0.619085Z" fill="#F9B902"/>
<path opacity="0.9545" fill-rule="evenodd" clip-rule="evenodd" d="M21.2796 0.814847C0.924095 1.09292 -1.77986 27.1247 7.57091 22.0128C14.0517 18.4691 30.3108 18.9132 36.519 21.5259C44.8156 25.017 43.3906 0.512563 21.2796 0.814847Z" fill="#F9BE02"/>
<path opacity="0.9091" fill-rule="evenodd" clip-rule="evenodd" d="M20.3809 1.01061C1.12187 1.63524 -1.05638 26.103 7.7168 21.1406C13.7985 17.7006 29.1901 17.8272 35.103 20.1666C43.0053 23.2925 41.2995 0.332025 20.3809 1.01061Z" fill="#FAC302"/>
<path opacity="0.8636" fill-rule="evenodd" clip-rule="evenodd" d="M19.4817 1.20637C1.32111 2.17756 -0.333492 25.082 7.86348 20.269C13.5453 16.9321 28.0695 16.7398 33.6877 18.8074C41.195 21.5687 39.2084 0.15149 19.4817 1.20637Z" fill="#FAC702"/>
<path opacity="0.8182" fill-rule="evenodd" clip-rule="evenodd" d="M18.5824 1.40145C1.51959 2.71988 0.389309 24.0604 8.00938 19.3967C13.2914 16.1636 26.9489 15.6531 32.271 17.4474C39.3841 19.8457 37.1173 -0.0297348 18.5824 1.40145Z" fill="#FBCC02"/>
<path opacity="0.7727" fill-rule="evenodd" clip-rule="evenodd" d="M17.6839 1.59789C1.71818 3.26288 1.11292 23.0394 8.15678 18.5252C13.0383 15.3958 25.8297 14.5678 30.8565 16.0889C37.5739 18.1212 35.0255 -0.210978 17.6839 1.59789Z" fill="#FBD102"/>
<path opacity="0.7273" fill-rule="evenodd" clip-rule="evenodd" d="M16.7847 1.79365C1.91671 3.8052 1.83578 22.0177 8.30204 17.6522C12.7844 14.6266 24.7084 13.4804 29.4398 14.729C35.7629 16.3974 32.9345 -0.391512 16.7847 1.79365Z" fill="#FCD603"/>
<path opacity="0.6818" fill-rule="evenodd" clip-rule="evenodd" d="M15.8862 1.9894C2.11525 4.3475 2.55934 20.996 8.44871 16.7806C12.5313 13.8581 23.5879 12.3937 28.0239 13.3697C33.952 14.6736 30.8434 -0.572062 15.8862 1.9894Z" fill="#FCDB03"/>
<path opacity="0.6364" fill-rule="evenodd" clip-rule="evenodd" d="M14.9862 2.18516C2.31377 4.88912 3.28219 19.9743 8.59465 15.909C12.2781 13.0902 22.4673 11.3077 26.6072 12.0098C32.1411 12.9505 28.7516 -0.753302 14.9862 2.18516Z" fill="#FDE003"/>
<path opacity="0.5909" fill-rule="evenodd" clip-rule="evenodd" d="M14.0876 2.38093C2.51221 5.43214 4.00564 18.9533 8.74121 15.0368C12.0241 12.3224 21.3479 10.221 25.1926 10.6512C30.33 11.226 26.6604 -0.933827 14.0876 2.38093Z" fill="#FDE403"/>
<path opacity="0.5455" fill-rule="evenodd" clip-rule="evenodd" d="M13.1884 2.57599C2.71076 5.97444 4.72853 17.931 8.88719 14.1645C11.771 11.5525 20.2267 9.13425 23.7759 9.29127C28.5198 9.50225 24.5693 -1.11507 13.1884 2.57599Z" fill="#FEE903"/>
<path opacity="0.5" fill-rule="evenodd" clip-rule="evenodd" d="M12.2892 2.77245C2.90937 6.51747 5.45147 16.9107 9.03393 13.2929C11.5179 10.7854 19.1069 8.04826 22.3601 7.93205C26.7089 7.77848 22.4783 -1.2949 12.2892 2.77245Z" fill="#FEEE03"/>
<path fill-rule="evenodd" clip-rule="evenodd" d="M22.5337 0C5.01432 0 0 15.3363 0 24.6435C0 25.1505 0.0325089 25.6416 0.090614 26.1182C0.834221 16.7861 6.34382 3.68967 22.5337 3.68967C38.7236 3.68967 44.2325 16.7861 44.9761 26.1182C45.0349 25.6409 45.0667 25.1505 45.0667 24.6435C45.0667 15.3363 40.0531 0 22.5337 0Z" fill="#FEEE03"/>
<path fill-rule="evenodd" clip-rule="evenodd" d="M22.5337 20.424C12.4669 20.424 4.30664 23.9379 4.30664 28.2723C4.30664 32.6073 12.4669 36.1206 22.5337 36.1206C32.6004 36.1206 40.76 32.6066 40.76 28.2723C40.7607 23.9379 32.6004 20.424 22.5337 20.424Z" fill="#F29E00"/>
<path fill-rule="evenodd" clip-rule="evenodd" d="M19.7778 9.17575H17.7815C16.7411 9.17575 15.891 10.0259 15.891 11.0655V27.079C15.891 28.1187 16.7411 28.9695 17.7815 28.9695H19.7778C20.8182 28.9695 21.6683 28.1187 21.6683 27.079V11.0655C21.6676 10.0259 20.8175 9.17575 19.7778 9.17575Z" stroke="#F29E00" stroke-width="1.32805" stroke-miterlimit="22.9256"/>
<path fill-rule="evenodd" clip-rule="evenodd" d="M27.2859 9.17575H25.2888C24.2485 9.17575 23.399 10.0259 23.399 11.0655V27.079C23.399 28.1187 24.2492 28.9695 25.2888 28.9695H27.2859C28.3262 28.9695 29.1757 28.1187 29.1757 27.079V11.0655C29.1764 10.0259 28.3262 9.17575 27.2859 9.17575Z" stroke="#F29E00" stroke-width="1.32805" stroke-miterlimit="22.9256"/>
<path fill-rule="evenodd" clip-rule="evenodd" d="M19.7778 9.17575H17.7815C16.7411 9.17575 15.891 10.0259 15.891 11.0655V27.079C15.891 28.1187 16.7411 28.9695 17.7815 28.9695H19.7778C20.8182 28.9695 21.6683 28.1187 21.6683 27.079V11.0655C21.6676 10.0259 20.8175 9.17575 19.7778 9.17575Z" fill="#E6E6E6"/>
<path fill-rule="evenodd" clip-rule="evenodd" d="M27.2859 9.17575H25.2888C24.2485 9.17575 23.399 10.0259 23.399 11.0655V27.079C23.399 28.1187 24.2492 28.9695 25.2888 28.9695H27.2859C28.3262 28.9695 29.1757 28.1187 29.1757 27.079V11.0655C29.1764 10.0259 28.3262 9.17575 27.2859 9.17575Z" fill="#E6E6E6"/>
<path fill-rule="evenodd" clip-rule="evenodd" d="M19.7785 9.17575H17.7815C16.7411 9.17575 15.891 10.0259 15.891 11.0655V19.5205H21.6683V11.0655C21.6676 10.0259 20.8175 9.17575 19.7785 9.17575Z" fill="white"/>
<path fill-rule="evenodd" clip-rule="evenodd" d="M27.2859 9.17575H25.2888C24.2485 9.17575 23.399 10.0259 23.399 11.0655V19.5205H29.1763V11.0655C29.177 10.0259 28.3262 9.17575 27.2859 9.17575Z" fill="white"/>
<path opacity="0.2" fill-rule="evenodd" clip-rule="evenodd" d="M22.5337 0C5.01432 0 0 15.3363 0 24.6435C0 24.7355 0.0034507 24.8275 0.00483415 24.9188C16.7391 34.2108 24.005 16.1 44.8551 21.2257C43.7469 12.0112 38.0381 0 22.5337 0Z" fill="white"/>
<path opacity="0.1" fill-rule="evenodd" clip-rule="evenodd" d="M11.4992 3.50014C4.70295 7.50732 0.957239 13.7446 3.13065 17.4315C5.30544 21.1191 12.5769 20.8597 19.3724 16.8532C26.1686 12.8461 29.915 6.60876 27.7409 2.92186C25.5668 -0.765743 18.2947 -0.507038 11.4992 3.50014Z" fill="white"/>
<path opacity="0.5" fill-rule="evenodd" clip-rule="evenodd" d="M42.4534 24.2028C41.4283 23.9642 40.3104 25.0011 39.9583 26.5187C39.6062 28.0357 40.1513 29.4593 41.1765 29.6972C42.2023 29.9359 43.3187 28.899 43.6715 27.3813C44.0236 25.8644 43.4785 24.4415 42.4534 24.2028Z" fill="white"/>
<path opacity="0.5" fill-rule="evenodd" clip-rule="evenodd" d="M13.2209 3.65023C10.2499 5.05858 8.46039 7.50591 9.22405 9.11833C9.98772 10.7301 13.0161 10.8961 15.9871 9.48841C18.958 8.08005 20.7475 5.63203 19.9832 4.01962C19.2188 2.4072 16.1911 2.24187 13.2209 3.65023Z" fill="white"/>
<path opacity="0.5" fill-rule="evenodd" clip-rule="evenodd" d="M5.55729 11.3436C4.63522 12.6206 4.44983 14.0614 5.14225 14.5615C5.83536 15.0623 7.1448 14.4329 8.06618 13.156C8.98895 11.879 9.17433 10.4382 8.48191 9.93734C7.7888 9.43653 6.48005 10.0667 5.55729 11.3436Z" fill="white"/>
</svg>
