<svg width="321" height="385" viewBox="0 0 321 385" fill="none" xmlns="http://www.w3.org/2000/svg">
<path fill-rule="evenodd" clip-rule="evenodd" d="M304.272 106.682L320.655 331.013C322.106 351.044 306.221 362.918 289.612 367.563C206.564 390.812 120.547 390.359 31.7667 367.563C15.0892 363.28 -0.432693 351.067 0.722952 331.013C5.0283 256.191 9.34118 181.414 13.6616 106.682C17.2419 45.9087 299.808 45.7048 304.272 106.682Z" fill="#0471EF"/>
<path fill-rule="evenodd" clip-rule="evenodd" d="M284.626 116.856L298.766 292.514C300.035 308.195 286.303 317.44 271.96 321.111C200.242 339.238 125.963 338.944 49.2828 321.111C34.8712 317.78 21.4793 308.217 22.4763 292.514C26.1925 233.961 29.9163 175.409 33.6476 116.856C36.7293 69.3161 280.842 69.0895 284.626 116.856Z" fill="#0471EF"/>
<path fill-rule="evenodd" clip-rule="evenodd" d="M279.845 114.545C284.377 170.907 288.909 227.262 293.441 283.609C294.642 298.7 281.499 307.628 267.768 311.14C199.086 328.656 127.957 328.294 54.5397 311.14C40.7399 307.923 27.9145 298.723 28.8663 283.609C32.4163 227.262 35.9814 170.907 39.5616 114.545C42.4168 68.7496 276.152 68.6136 279.845 114.545Z" fill="#0477F0"/>
<path fill-rule="evenodd" clip-rule="evenodd" d="M274.974 112.143C279.294 166.3 283.614 220.464 287.935 274.636C289.091 289.138 276.605 297.726 263.395 301.102C197.681 317.938 129.702 317.599 59.6384 301.102C46.4505 297.998 34.1916 289.161 35.098 274.636C38.4969 220.449 41.9034 166.285 45.3175 112.143C48.082 68.2058 271.461 68.0699 274.974 112.143Z" fill="#047DF1"/>
<path fill-rule="evenodd" clip-rule="evenodd" d="M270.124 109.877C274.248 161.858 278.365 213.824 282.474 265.776C283.561 279.711 271.597 287.96 259.066 291.177C196.503 307.334 131.673 307.039 64.7592 291.177C52.2057 288.209 40.5133 279.711 41.3744 265.776C44.6223 213.824 47.8702 161.858 51.118 109.877C53.7692 67.6619 266.77 67.5259 270.124 109.877Z" fill="#0483F2"/>
<path fill-rule="evenodd" clip-rule="evenodd" d="M265.275 107.611C269.173 157.462 273.085 207.238 277.013 256.938C278.055 270.285 266.658 278.17 254.761 281.275C195.212 296.751 133.554 296.434 69.9033 281.275C57.939 278.42 46.8131 270.285 47.6515 256.938C50.6728 207.178 53.762 157.402 56.9193 107.611C59.4345 67.1179 262.08 66.9819 265.275 107.611Z" fill="#0489F3"/>
<path fill-rule="evenodd" clip-rule="evenodd" d="M260.403 105.345L271.552 248.101C272.549 260.859 261.74 268.495 250.433 271.35C193.942 286.147 135.435 285.852 75.0467 271.35C63.7169 268.631 53.1348 260.859 53.9279 248.101C56.9492 200.516 59.8799 152.93 62.7199 105.345C65.1218 66.5743 257.435 66.4383 260.403 105.345Z" fill="#048FF4"/>
<path fill-rule="evenodd" clip-rule="evenodd" d="M255.554 102.898L266.091 239.037C267.043 251.183 256.801 258.389 246.128 261.221C192.674 275.338 137.361 275.044 80.1908 261.221C69.4501 258.615 59.4572 251.206 60.205 239.037C62.9846 193.718 65.7642 148.33 68.5438 102.875C70.7871 66.0303 252.699 65.8944 255.554 102.898Z" fill="#0395F5"/>
<path fill-rule="evenodd" clip-rule="evenodd" d="M250.637 100.564L260.562 230.155C261.468 241.734 251.815 248.577 241.732 251.273C191.336 264.688 139.151 264.416 85.2663 251.273C75.1374 248.803 65.711 241.734 66.4134 230.155C69.0419 186.965 71.6629 143.768 74.2763 100.564C76.4517 65.4865 247.986 65.3732 250.637 100.564Z" fill="#039BF6"/>
<path fill-rule="evenodd" clip-rule="evenodd" d="M245.833 98.2298C249.036 139.229 252.148 180.235 255.169 221.249C255.985 232.239 246.921 238.743 237.449 241.281C190.113 254.038 141.077 253.766 90.4329 241.281C80.9385 239.015 72.0786 232.217 72.7357 221.249C75.1981 180.235 77.6604 139.229 80.1227 98.2298C82.1395 64.9427 243.295 64.8294 245.833 98.2298Z" fill="#03A1F7"/>
<path fill-rule="evenodd" clip-rule="evenodd" d="M240.984 95.9185C243.899 134.712 246.815 173.52 249.731 212.344C250.501 222.745 242.026 228.886 233.166 231.31C188.867 243.365 142.981 243.116 95.5992 231.31C86.694 229.044 78.4232 222.745 79.035 212.344C81.3463 173.535 83.6123 134.727 85.8329 95.9185C87.8043 64.3762 238.605 64.2856 240.984 95.9185Z" fill="#03A8F8"/>
<path fill-rule="evenodd" clip-rule="evenodd" d="M236.135 93.5846C238.824 130.203 241.536 166.821 244.27 203.439C244.995 213.25 237.087 219.051 228.839 221.317C187.575 232.647 144.862 232.489 100.743 221.317C92.4498 219.233 84.7455 213.25 85.312 203.439C87.4722 166.821 89.6174 130.203 91.7474 93.5846C93.4922 63.8324 233.914 63.7418 236.135 93.5846Z" fill="#03AEF9"/>
<path fill-rule="evenodd" clip-rule="evenodd" d="M231.263 91.2506L238.809 194.533C239.488 203.756 232.169 209.217 224.533 211.347C186.306 222.042 146.742 221.838 105.887 211.347C98.2052 209.376 91.0674 203.756 91.5885 194.533C93.5826 160.106 95.5691 125.678 97.548 91.2506C99.1569 63.2885 229.224 63.1978 231.263 91.2506Z" fill="#03B4FA"/>
<path fill-rule="evenodd" clip-rule="evenodd" d="M159.635 292.695C240.236 292.695 305.587 310.461 305.587 332.372C305.587 354.284 240.236 372.072 159.635 372.072C79.0349 372.072 13.6843 354.307 13.6843 332.372C13.6843 310.438 79.0349 292.695 159.635 292.695Z" fill="#0267EA"/>
<path opacity="0.2" fill-rule="evenodd" clip-rule="evenodd" d="M276.99 329.676C290.11 322.538 303.547 323.898 307.014 332.712C310.481 341.527 302.754 354.602 289.543 361.671C276.333 368.741 262.986 367.45 259.497 358.635C256.007 349.82 263.87 336.859 276.99 329.676Z" fill="white"/>
<path opacity="0.2" fill-rule="evenodd" clip-rule="evenodd" d="M304.273 106.682L320.656 331.013C321.335 338.656 319.065 346.268 314.311 352.291L298.721 130.271C297.656 115.225 280.276 103.895 254.671 96.2812C257.513 99.849 259.105 104.252 259.203 108.812C259.203 131.63 215.923 150.143 162.559 150.143C109.195 150.143 65.8926 131.63 65.8926 108.812C66.1046 103.115 68.4882 97.7158 72.5545 93.7206C41.828 101.244 20.2786 113.412 19.3495 130.248L7.04531 352.313C2.41379 346.246 0.164802 338.693 0.723268 331.081C5.02861 256.259 9.34149 181.482 13.6619 106.75C17.2422 45.9087 299.809 45.7048 304.273 106.682Z" fill="white"/>
<path opacity="0.2" fill-rule="evenodd" clip-rule="evenodd" d="M304.272 106.682L312.022 212.979C247.193 178.513 188.481 270.874 6.31995 233.871L13.6617 106.682C17.2419 45.9087 299.809 45.7047 304.272 106.682Z" fill="white"/>
<path fill-rule="evenodd" clip-rule="evenodd" d="M283.969 37.6377C329.108 60.0708 322.491 106.002 310.481 129.976C298.472 153.95 267.201 151.843 235.138 135.913C203.074 119.983 182.454 96.2583 194.35 72.2843C206.247 48.3103 238.831 15.2046 283.969 37.6377Z" fill="#0471EF"/>
<path fill-rule="evenodd" clip-rule="evenodd" d="M215.764 77.2469C183.451 78.108 227.094 11.1486 282.27 38.7254C342.205 68.7495 311.728 137.318 294.348 116.267C281.296 100.564 238.152 76.6578 215.764 77.2469Z" fill="#0471EF"/>
<path opacity="0.95" fill-rule="evenodd" clip-rule="evenodd" d="M217.259 75.1849C186.623 76.3859 226.912 12.7802 279.71 38.1364C337.061 65.6679 309.348 130.611 292.444 110.987C279.8 96.2811 238.492 74.3692 217.259 75.1849Z" fill="#0478F0"/>
<path opacity="0.91" fill-rule="evenodd" clip-rule="evenodd" d="M218.732 73.1455C189.796 74.6863 226.731 14.4342 277.126 37.4791C331.895 62.5181 306.901 123.858 290.541 105.685C278.304 92.0891 238.809 72.0578 218.732 73.1455Z" fill="#047EF1"/>
<path opacity="0.86" fill-rule="evenodd" clip-rule="evenodd" d="M220.228 71.0835C193.036 72.9869 226.55 16.0884 274.611 36.8447C326.729 59.3684 304.477 117.105 288.683 100.292C276.809 87.8517 239.149 69.7465 220.228 71.0835Z" fill="#0484F2"/>
<path opacity="0.82" fill-rule="evenodd" clip-rule="evenodd" d="M221.723 69.0895C196.118 71.3555 226.255 17.8106 272.005 36.2556C321.585 56.3095 301.984 110.398 286.734 95.1708C275.313 83.6144 239.466 67.458 221.723 69.0895Z" fill="#048AF3"/>
<path opacity="0.77" fill-rule="evenodd" clip-rule="evenodd" d="M223.218 66.9592C199.29 69.5651 226.164 19.3738 269.444 35.5529C316.44 53.0915 299.514 103.532 284.83 89.7322C273.818 79.3767 239.805 65.1464 223.218 66.9592Z" fill="#0491F4"/>
<path opacity="0.73" fill-rule="evenodd" clip-rule="evenodd" d="M224.714 64.8975C202.463 67.8659 225.983 21.0508 266.861 34.8959C311.274 49.942 297.067 96.825 282.905 84.4301C272.322 75.1623 240.146 62.8355 224.714 64.8975Z" fill="#0397F5"/>
<path opacity="0.68" fill-rule="evenodd" clip-rule="evenodd" d="M226.21 62.8354C205.635 66.1663 225.802 22.7051 264.301 34.2615C306.108 46.7923 294.597 90.0497 281.001 79.105C270.827 70.9249 240.463 60.5467 226.21 62.8354Z" fill="#039EF6"/>
<path opacity="0.64" fill-rule="evenodd" clip-rule="evenodd" d="M227.705 60.7731C208.807 64.444 225.621 24.359 261.695 33.5815C300.919 43.6424 292.104 83.2742 279.052 73.7798C269.331 66.6873 240.803 58.2352 227.705 60.7731Z" fill="#03A4F7"/>
<path opacity="0.59" fill-rule="evenodd" clip-rule="evenodd" d="M229.201 58.7113C211.98 62.7447 225.44 26.0134 259.18 32.9699C295.798 40.5156 289.703 76.5445 277.308 68.4776C267.836 62.4501 241.12 55.9241 229.201 58.7113Z" fill="#03ABF8"/>
<path opacity="0.55" fill-rule="evenodd" clip-rule="evenodd" d="M230.697 56.6719C215.152 61.0452 225.258 27.6448 256.597 32.3127C290.586 37.3658 287.232 69.7919 275.291 63.1752C266.34 58.2128 241.573 53.6355 230.697 56.6719Z" fill="#03B1F9"/>
<path opacity="0.5" fill-rule="evenodd" clip-rule="evenodd" d="M232.169 54.6098C218.324 59.3457 225.077 29.299 254.036 31.6782C285.488 34.2388 284.785 63.0166 273.365 57.8502C264.845 53.9753 241.777 51.3242 232.169 54.6098Z" fill="#03B8FA"/>
<path fill-rule="evenodd" clip-rule="evenodd" d="M283.969 37.6377C329.107 60.0708 322.491 106.002 310.481 129.976C309.849 131.25 309.137 132.484 308.351 133.67C318.389 108.744 320.95 67.9564 279.256 47.1548C237.562 26.3532 206.586 53.1143 192.719 76.2045C193.193 74.8666 193.745 73.5575 194.373 72.2843C206.292 48.3103 238.831 15.2046 283.969 37.6377Z" fill="#03B8FA"/>
<path fill-rule="evenodd" clip-rule="evenodd" d="M257.82 90.2536C283.765 103.147 300.284 122.634 294.732 133.805C289.181 144.977 263.666 143.572 237.743 130.701C211.821 117.83 195.279 98.3204 200.785 87.2171C206.292 76.1138 231.897 77.3828 257.82 90.2536Z" fill="#0267EA"/>
<path opacity="0.2" fill-rule="evenodd" clip-rule="evenodd" d="M283.97 37.6377C323.919 57.4876 323.262 95.7371 314.311 120.889C267.156 81.0083 225.258 118.352 194.033 73.0094L194.373 72.2843C206.292 48.3103 238.831 15.2046 283.97 37.6377Z" fill="white"/>
<path opacity="0.2" fill-rule="evenodd" clip-rule="evenodd" d="M251.068 32.5395C273.727 30.908 292.762 39.5414 293.645 51.8229C294.529 64.1045 276.9 75.389 254.263 77.0205C231.626 78.652 212.546 69.996 211.685 57.7144C210.824 45.4328 228.431 34.1483 251.068 32.5395Z" fill="white"/>
<path opacity="0.5" fill-rule="evenodd" clip-rule="evenodd" d="M304.318 125.49C306.584 127.416 306.221 131.789 303.389 135.233C300.556 138.678 296.319 139.946 293.985 138.02C291.651 136.094 292.059 131.721 294.914 128.254C297.769 124.787 301.984 123.473 304.318 125.49Z" fill="white"/>
<path opacity="0.5" fill-rule="evenodd" clip-rule="evenodd" d="M255.305 35.0998C264.777 35.2811 272.345 39.6317 272.255 44.7075C272.164 49.7833 264.414 53.7714 254.965 53.7714C245.516 53.7714 237.925 49.2395 238.016 44.1637C238.106 39.0879 245.856 34.9412 255.305 35.0998Z" fill="white"/>
<path opacity="0.5" fill-rule="evenodd" clip-rule="evenodd" d="M225.711 45.1381C229.722 43.0307 233.914 43.076 235.047 45.2513C236.18 47.4267 233.869 50.8937 229.858 53.001C225.847 55.1084 221.678 55.0631 220.522 53.001C219.367 50.939 221.7 47.2454 225.711 45.1381Z" fill="white"/>
<path fill-rule="evenodd" clip-rule="evenodd" d="M35.37 37.6377C-9.76811 60.0708 -3.15146 106.002 8.85818 129.976C20.8678 153.95 52.1382 151.843 84.2017 135.913C116.265 119.983 136.885 96.2583 124.989 72.2843C113.093 48.3103 80.3949 15.2046 35.37 37.6377Z" fill="#0471EF"/>
<path fill-rule="evenodd" clip-rule="evenodd" d="M103.485 77.2469C135.797 78.108 92.1548 11.1486 36.9784 38.7254C-22.9565 68.7495 7.5208 137.318 24.9008 116.267C37.9528 100.564 81.0969 76.6578 103.485 77.2469Z" fill="#0471EF"/>
<path opacity="0.95" fill-rule="evenodd" clip-rule="evenodd" d="M101.989 75.1849C132.625 76.3859 92.336 12.7802 39.5389 38.1364C-17.8128 65.6679 9.90003 130.611 26.8042 110.987C39.4483 96.2811 80.6889 74.3692 101.989 75.1849Z" fill="#0478F0"/>
<path opacity="0.91" fill-rule="evenodd" clip-rule="evenodd" d="M100.516 73.1455C129.453 74.6863 92.5172 14.4342 42.1221 37.4791C-12.6465 62.5181 12.3472 123.858 28.7075 105.685C40.9438 92.0891 80.4396 72.0578 100.516 73.1455Z" fill="#047EF1"/>
<path opacity="0.86" fill-rule="evenodd" clip-rule="evenodd" d="M99.0206 71.0835C126.212 72.9869 92.6986 16.0884 44.6373 36.8447C-7.47998 59.3684 14.7719 117.105 30.5657 100.292C42.4394 87.8517 80.0998 69.7465 99.0206 71.0835Z" fill="#0484F2"/>
<path opacity="0.82" fill-rule="evenodd" clip-rule="evenodd" d="M97.5254 69.0895C123.131 71.3555 92.9935 17.8106 47.2436 36.2556C-2.33585 56.3095 17.2648 110.398 32.5148 95.1708C43.9353 83.6144 79.7829 67.458 97.5254 69.0895Z" fill="#048AF3"/>
<path opacity="0.77" fill-rule="evenodd" clip-rule="evenodd" d="M96.03 66.9592C119.959 69.5651 93.0842 19.3738 49.8042 35.5529C2.83061 53.0915 19.7348 103.532 34.4183 89.7322C45.4309 79.3767 79.4431 65.1464 96.03 66.9592Z" fill="#0491F4"/>
<path opacity="0.73" fill-rule="evenodd" clip-rule="evenodd" d="M94.5345 64.8975C116.786 67.8659 93.2656 21.0508 52.3875 34.8959C7.97446 49.942 22.1821 96.825 36.3444 84.4301C46.9265 75.1623 79.1033 62.8355 94.5345 64.8975Z" fill="#0397F5"/>
<path opacity="0.68" fill-rule="evenodd" clip-rule="evenodd" d="M93.0387 62.8354C113.614 66.1663 93.4466 22.7051 54.9477 34.2615C13.1406 46.7923 24.6517 90.0497 38.2475 79.105C48.4217 70.9249 78.7857 60.5467 93.0387 62.8354Z" fill="#039EF6"/>
<path opacity="0.64" fill-rule="evenodd" clip-rule="evenodd" d="M91.5429 60.7731C110.441 64.444 93.6276 24.359 57.5534 33.5815C18.3294 43.6424 27.1441 83.2742 40.1961 73.7798C49.9171 66.6873 78.423 58.2352 91.5429 60.7731Z" fill="#03A4F7"/>
<path opacity="0.59" fill-rule="evenodd" clip-rule="evenodd" d="M90.0478 58.7113C107.269 62.7447 93.8092 26.0134 60.0689 32.9699C23.4509 40.5156 29.5463 76.5445 41.9412 68.4776C51.4129 62.4501 78.1287 55.9241 90.0478 58.7113Z" fill="#03ABF8"/>
<path opacity="0.55" fill-rule="evenodd" clip-rule="evenodd" d="M88.5522 56.6719C104.097 61.0452 93.9905 27.6448 62.6522 32.3127C28.6626 37.3658 32.0162 69.7919 43.9579 63.1752C52.9085 58.2128 77.7889 53.6355 88.5522 56.6719Z" fill="#03B1F9"/>
<path opacity="0.5" fill-rule="evenodd" clip-rule="evenodd" d="M87.0565 54.6098C100.924 59.3457 94.1717 29.299 65.2126 31.6782C33.7609 34.2388 34.4633 63.0166 45.8838 57.8502C54.4039 53.9753 77.4715 51.3242 87.0565 54.6098Z" fill="#03B8FA"/>
<path fill-rule="evenodd" clip-rule="evenodd" d="M35.37 37.6377C-9.76811 60.0708 -3.15146 106.002 8.85818 129.976C9.49066 131.25 10.202 132.484 10.9882 133.67C0.949948 108.744 -1.63326 67.9564 40.0833 47.1548C81.7998 26.3532 112.753 53.1143 126.621 76.2045C126.146 74.8666 125.594 73.5575 124.967 72.2843C112.957 48.3103 80.3949 15.2046 35.37 37.6377Z" fill="#03B8FA"/>
<path fill-rule="evenodd" clip-rule="evenodd" d="M61.406 90.2536C35.4833 103.147 18.9644 122.634 24.516 133.805C30.0677 144.977 55.5825 143.572 81.5052 130.701C107.428 117.83 123.969 98.3204 118.418 87.2171C112.866 76.1138 87.3514 77.3828 61.406 90.2536Z" fill="#0267EA"/>
<path opacity="0.2" fill-rule="evenodd" clip-rule="evenodd" d="M35.3699 37.6377C-4.57918 57.4876 -3.92204 95.7371 5.02854 120.889C52.1834 81.0083 94.0812 118.352 125.306 73.0094L124.966 72.2843C112.957 48.3103 80.3947 15.2046 35.3699 37.6377Z" fill="white"/>
<path opacity="0.2" fill-rule="evenodd" clip-rule="evenodd" d="M68.1812 32.5395C45.5215 30.908 26.4873 39.5414 25.6036 51.8229C24.7199 64.1045 42.3491 75.389 64.9862 77.0205C87.6232 78.652 106.703 69.996 107.564 57.7144C108.425 45.4328 90.8182 34.1483 68.1812 32.5395Z" fill="white"/>
<path opacity="0.5" fill-rule="evenodd" clip-rule="evenodd" d="M14.9759 125.49C12.71 127.416 13.0725 131.789 15.905 135.233C18.7375 138.678 22.9748 139.946 25.3088 138.02C27.6427 136.094 27.2348 131.721 24.3797 128.254C21.5246 124.787 17.2419 123.473 14.9759 125.49Z" fill="white"/>
<path opacity="0.5" fill-rule="evenodd" clip-rule="evenodd" d="M63.9438 35.0998C54.472 35.2811 46.9037 39.6317 46.9943 44.7075C47.085 49.7833 54.8346 53.7714 64.2837 53.7714C73.7328 53.7714 81.3238 49.2395 81.2332 44.1637C81.1425 39.0879 73.3929 34.9412 63.9438 35.0998Z" fill="white"/>
<path opacity="0.5" fill-rule="evenodd" clip-rule="evenodd" d="M93.5375 45.1381C89.5268 43.0307 85.3347 43.076 84.2018 45.2513C83.0688 47.4267 85.38 50.8937 89.3908 53.001C93.4016 55.1084 97.571 55.0631 98.7266 53.001C99.8823 50.939 97.5483 47.2454 93.5375 45.1381Z" fill="white"/>
<path fill-rule="evenodd" clip-rule="evenodd" d="M160.701 0C211.096 0 225.53 44.1184 225.53 70.8795C225.53 97.6406 196.503 109.718 160.701 109.718C124.898 109.718 95.8711 97.6633 95.8711 70.8795C95.8711 44.0957 110.305 0 160.701 0Z" fill="#0471EF"/>
<path fill-rule="evenodd" clip-rule="evenodd" d="M117.239 65.8264C88.6879 80.9631 97.9557 1.58612 159.681 1.7674C226.731 1.994 229.926 76.907 205 65.8264C186.306 57.533 137.021 55.335 117.239 65.8264Z" fill="#0471EF"/>
<path opacity="0.95" fill-rule="evenodd" clip-rule="evenodd" d="M117.647 63.3111C90.75 78.0172 98.545 3.12684 157.098 2.33375C220.703 1.47269 224.805 71.9671 200.944 61.9062C183.066 54.4058 136.296 53.2275 117.647 63.3111Z" fill="#0478F0"/>
<path opacity="0.91" fill-rule="evenodd" clip-rule="evenodd" d="M118.077 60.8186C92.8346 75.0942 99.1113 4.69052 154.514 2.90041C214.698 0.951673 219.593 67.0047 196.865 58.0088C179.848 51.2789 135.571 50.9616 118.077 60.8186Z" fill="#047EF1"/>
<path opacity="0.86" fill-rule="evenodd" clip-rule="evenodd" d="M118.508 58.3034C94.9193 72.1485 99.6778 6.18602 151.931 3.46686C208.58 0.430458 214.381 62.0423 192.719 54.0887C176.63 48.1519 134.846 48.6957 118.508 58.3034Z" fill="#0484F2"/>
<path opacity="0.82" fill-rule="evenodd" clip-rule="evenodd" d="M118.916 55.7883C97.004 69.2028 100.244 7.81763 149.348 4.03346C202.666 -0.0906079 209.17 57.0798 188.708 50.1913C173.413 45.0249 134.121 46.4298 118.916 55.7883Z" fill="#048AF3"/>
<path opacity="0.77" fill-rule="evenodd" clip-rule="evenodd" d="M119.346 53.2277C99.0886 66.2117 100.833 9.31316 146.742 4.5093C196.593 -0.67977 203.98 52.0947 184.652 46.2032C170.172 41.8979 133.395 44.2771 119.346 53.2277Z" fill="#0491F4"/>
<path opacity="0.73" fill-rule="evenodd" clip-rule="evenodd" d="M119.754 50.7802C101.151 63.3337 101.4 10.9446 144.159 5.14369C190.634 -1.13305 198.769 47.1548 180.573 42.3736C166.954 38.7707 132.648 42.0789 119.754 50.7802Z" fill="#0397F5"/>
<path opacity="0.68" fill-rule="evenodd" clip-rule="evenodd" d="M120.185 48.2652C103.236 60.3881 102.057 12.5082 141.576 5.71033C184.629 -1.65407 193.557 42.215 176.495 38.4535C163.737 35.6437 131.923 39.8584 120.185 48.2652Z" fill="#039EF6"/>
<path opacity="0.64" fill-rule="evenodd" clip-rule="evenodd" d="M120.616 45.7499C105.321 57.465 102.488 14.0264 138.993 6.27676C178.602 -2.17531 188.346 37.2525 172.416 34.5334C160.52 32.5166 131.198 37.6604 120.616 45.7499Z" fill="#03A4F7"/>
<path opacity="0.59" fill-rule="evenodd" clip-rule="evenodd" d="M121.024 43.2573C107.428 54.5871 103.1 15.6125 136.41 6.84323C172.665 -2.6965 183.134 32.2901 168.36 30.6359C157.279 29.3896 130.541 35.4397 121.024 43.2573Z" fill="#03ABF8"/>
<path opacity="0.55" fill-rule="evenodd" clip-rule="evenodd" d="M121.477 40.742C109.512 51.5734 103.711 17.176 133.849 7.4097C166.592 -3.21771 177.945 27.3275 164.304 26.7157C154.061 26.2625 129.747 33.2417 121.477 40.742Z" fill="#03B1F9"/>
<path opacity="0.5" fill-rule="evenodd" clip-rule="evenodd" d="M121.862 38.2269C111.552 48.6504 104.256 18.7396 131.243 7.97624C160.542 -3.73882 172.711 22.3651 160.202 22.8183C150.935 23.1356 129.023 31.0211 121.862 38.2269Z" fill="#03B8FA"/>
<path fill-rule="evenodd" clip-rule="evenodd" d="M160.701 0C211.096 0 225.53 44.1184 225.53 70.8795C225.533 72.3039 225.442 73.727 225.258 75.1395C223.128 48.2878 207.289 10.6047 160.701 10.6047C114.112 10.6047 98.273 48.2878 96.143 75.1395C95.9706 73.7259 95.8798 72.3035 95.8711 70.8795C95.8711 44.1637 110.305 0 160.701 0Z" fill="#03B8FA"/>
<path fill-rule="evenodd" clip-rule="evenodd" d="M160.701 58.7565C189.66 58.7565 213.135 68.8627 213.135 81.4162C213.135 93.9697 189.66 104.076 160.701 104.076C131.741 104.076 108.266 93.9697 108.266 81.4162C108.266 68.8627 131.741 58.7565 160.701 58.7565Z" fill="#0267EA"/>
<path opacity="0.2" fill-rule="evenodd" clip-rule="evenodd" d="M160.701 0C205.318 0 221.723 34.5561 224.918 61.0453C164.938 46.3164 144.046 98.4111 95.8938 71.6727C95.8938 71.4234 95.8938 71.1514 95.8938 70.8795C95.8712 44.1637 110.305 0 160.701 0Z" fill="white"/>
<path opacity="0.2" fill-rule="evenodd" clip-rule="evenodd" d="M128.954 10.1741C148.51 -1.35969 169.425 -2.10741 175.679 8.51999C181.933 19.1474 171.147 37.0712 151.614 48.5823C132.081 60.0935 111.144 60.8639 104.89 50.2591C98.6358 39.6544 109.422 21.504 128.954 10.1741Z" fill="white"/>
<path opacity="0.5" fill-rule="evenodd" clip-rule="evenodd" d="M218.007 69.6106C220.953 70.3131 222.539 74.3918 221.519 78.6745C220.5 82.9572 217.282 86.0162 214.336 85.3365C211.39 84.6567 209.804 80.5553 210.824 76.2726C211.844 71.9899 215.061 68.9308 218.007 69.6106Z" fill="white"/>
<path opacity="0.5" fill-rule="evenodd" clip-rule="evenodd" d="M133.917 10.4914C142.46 6.43534 151.161 6.91112 153.359 11.5564C155.557 16.2016 150.413 23.2261 141.871 27.2822C133.328 31.3383 124.627 30.8625 122.429 26.2173C120.231 21.572 125.374 14.5475 133.917 10.4914Z" fill="white"/>
<path opacity="0.5" fill-rule="evenodd" clip-rule="evenodd" d="M111.869 32.6298C114.52 28.9589 118.281 27.1462 120.275 28.5737C122.27 30.0013 121.748 34.1708 119.097 37.8416C116.446 41.5125 112.662 43.3252 110.668 41.875C108.674 40.4248 109.218 36.3007 111.869 32.6298Z" fill="white"/>
<path fill-rule="evenodd" clip-rule="evenodd" d="M44.4336 109.515H273.659C284.989 109.515 294.053 120.844 294.053 134.939V330.175C294.053 356.505 272.458 361.672 259.678 353.129C246.898 344.586 238.265 372.073 218.891 372.073C199.517 372.073 184.244 355.599 157.234 355.599C130.223 355.599 95.5992 368.764 76.769 368.764C45.0454 368.764 22.0685 333.71 22.3857 295.415L23.7453 134.939C23.8586 120.958 32.9678 109.515 44.139 109.515H44.4336ZM235.07 321.451C232.26 314.426 227.048 319.185 220.25 323.445C213.452 327.705 207.651 329.608 210.461 336.61C213.271 343.612 221.043 345.901 227.841 341.731C231.18 339.655 233.714 336.506 235.028 332.8C236.341 329.095 236.356 325.053 235.07 321.337V321.451ZM35.0298 297.499C30.9284 300.128 29.6595 307.243 32.1973 313.361C34.7352 319.479 40.1509 322.425 44.2523 319.729C48.3537 317.032 45.6346 312.931 43.0967 306.654C40.5588 300.377 39.1539 294.894 35.0298 297.499Z" fill="#532B0F"/>
<path fill-rule="evenodd" clip-rule="evenodd" d="M154.447 92.814C178.081 92.814 294.144 95.8052 294.144 132.877V328.112C294.144 354.443 272.549 359.609 259.769 351.067C246.989 342.524 238.356 370.01 218.982 370.01C199.607 370.01 184.335 353.537 157.324 353.537C130.314 353.537 95.69 366.702 76.8598 366.702C45.1362 366.702 22.1593 331.647 22.4765 293.375L23.8361 132.877C24.1307 96.2811 131.855 92.814 154.447 92.814ZM234.957 319.411C232.147 312.387 226.935 317.145 220.137 321.405C213.339 325.665 207.538 327.569 210.348 334.57C213.158 341.572 220.93 343.884 227.728 339.692C231.043 337.621 233.56 334.491 234.873 330.81C236.185 327.128 236.214 323.111 234.957 319.411ZM35.03 295.46C30.9286 298.066 29.6597 305.181 32.1975 311.322C34.7354 317.462 40.1511 320.386 44.2525 317.689C48.3539 314.993 45.6347 310.778 43.0969 304.614C40.559 298.451 39.1541 292.831 35.03 295.46Z" fill="#844517"/>
<path fill-rule="evenodd" clip-rule="evenodd" d="M76.8599 362.578C54.9933 362.578 37.2281 345.832 28.4361 322.856C27.5524 320.59 26.7366 318.12 26.0342 315.65C24.1127 308.906 22.9648 301.965 22.6125 294.961V293.511V296.774C22.8528 305.867 24.4255 314.876 27.2804 323.513C35.5739 348.257 53.9963 366.702 76.9506 366.702C95.7808 366.702 130.405 353.537 157.415 353.537C184.425 353.537 199.676 370.01 219.072 370.01C238.469 370.01 247.102 342.547 259.86 351.067C260.268 351.339 260.653 351.588 261.061 351.815C273.161 358.817 291.765 354.285 294.008 332.577C294.169 331.071 294.245 329.558 294.234 328.045V324.736C294.204 327.35 293.908 329.955 293.351 332.509C289.544 349.639 274.203 353.718 263.009 348.642C261.917 348.141 260.864 347.558 259.86 346.897C247.102 338.355 238.446 365.818 219.072 365.818C199.698 365.818 184.425 349.367 157.415 349.367C130.405 349.367 95.6901 362.578 76.8599 362.578Z" fill="#9B511C"/>
</svg>
