<svg width="66" height="56" viewBox="0 0 66 56" fill="none" xmlns="http://www.w3.org/2000/svg">
<path fill-rule="evenodd" clip-rule="evenodd" d="M32.575 0C7.24698 0 0 22.172 0 35.626C0 49.082 14.584 55.145 32.575 55.145C50.566 55.145 65.15 49.082 65.15 35.626C65.15 22.171 57.903 0 32.575 0Z" fill="#F9B902"/>
<path fill-rule="evenodd" clip-rule="evenodd" d="M32.061 0.894963C1.04701 0.794963 -3.62101 40.69 10.731 33.084C20.679 27.811 45.436 28.913 54.839 33.084C67.405 38.658 65.75 1.00196 32.061 0.894963Z" fill="#F9B902"/>
<path opacity="0.9545" fill-rule="evenodd" clip-rule="evenodd" d="M30.762 1.17796C1.33401 1.57996 -2.57399 39.213 10.943 31.824C20.313 26.701 43.817 27.344 52.793 31.12C64.788 36.166 62.727 0.740961 30.762 1.17796Z" fill="#F9BE02"/>
<path opacity="0.9091" fill-rule="evenodd" clip-rule="evenodd" d="M29.463 1.45995C1.62103 2.36395 -1.52796 37.7359 11.155 30.5619C19.947 25.5889 42.197 25.7709 50.746 29.1529C62.17 33.6729 59.705 0.479955 29.463 1.45995Z" fill="#FAC302"/>
<path opacity="0.8636" fill-rule="evenodd" clip-rule="evenodd" d="M28.163 1.744C1.90902 3.148 -0.482975 36.261 11.366 29.302C19.58 24.478 40.578 24.201 48.699 27.189C59.552 31.181 56.681 0.217995 28.163 1.744Z" fill="#FAC702"/>
<path opacity="0.8182" fill-rule="evenodd" clip-rule="evenodd" d="M26.8631 2.02696C2.19507 3.93296 0.562064 34.784 11.5781 28.042C19.2131 23.368 38.958 22.631 46.653 25.224C56.935 28.689 53.6581 -0.0430392 26.8631 2.02696Z" fill="#FBCC02"/>
<path opacity="0.7727" fill-rule="evenodd" clip-rule="evenodd" d="M25.564 2.30896C2.483 4.71496 1.60799 33.306 11.791 26.78C18.848 22.256 37.34 21.059 44.607 23.258C54.318 26.197 50.634 -0.305039 25.564 2.30896Z" fill="#FBD102"/>
<path opacity="0.7273" fill-rule="evenodd" clip-rule="evenodd" d="M24.264 2.59296C2.76897 5.50096 2.65298 31.83 12.001 25.52C18.481 21.146 35.718 19.488 42.558 21.293C51.7 23.705 47.611 -0.566039 24.264 2.59296Z" fill="#FCD603"/>
<path opacity="0.6818" fill-rule="evenodd" clip-rule="evenodd" d="M22.965 2.8759C3.05801 6.2849 3.7 30.3529 12.213 24.2589C18.115 20.0349 34.099 17.9169 40.512 19.3279C49.082 21.2129 44.588 -0.827097 22.965 2.8759Z" fill="#FCDB03"/>
<path opacity="0.6364" fill-rule="evenodd" clip-rule="evenodd" d="M21.6641 3.15901C3.34405 7.06901 4.74403 28.877 12.424 22.999C17.748 18.924 32.479 16.347 38.464 17.363C46.464 18.722 41.564 -1.08799 21.6641 3.15901Z" fill="#FDE003"/>
<path opacity="0.5909" fill-rule="evenodd" clip-rule="evenodd" d="M20.365 3.44196C3.63198 7.85296 5.78998 27.4 12.636 21.7379C17.383 17.8139 30.861 14.776 36.419 15.398C43.846 16.229 38.542 -1.35004 20.365 3.44196Z" fill="#FDE403"/>
<path opacity="0.5455" fill-rule="evenodd" clip-rule="evenodd" d="M19.065 3.7249C3.91803 8.6369 6.83502 25.9229 12.848 20.4769C17.016 16.7019 29.24 13.2049 34.372 13.4319C41.23 13.7359 35.518 -1.6111 19.065 3.7249Z" fill="#FEE903"/>
<path opacity="0.5" fill-rule="evenodd" clip-rule="evenodd" d="M17.765 4.00804C4.205 9.42204 7.88 24.447 13.059 19.217C16.65 15.593 27.621 11.635 32.325 11.468C38.611 11.245 32.495 -1.87296 17.765 4.00804Z" fill="#FEEE03"/>
<path fill-rule="evenodd" clip-rule="evenodd" d="M32.575 0C7.24698 0 0 22.172 0 35.626C0 36.359 0.0460049 37.069 0.130005 37.759C1.205 24.267 9.16998 5.33398 32.575 5.33398C55.98 5.33398 63.944 24.266 65.02 37.759C65.104 37.068 65.15 36.359 65.15 35.626C65.15 22.171 57.903 0 32.575 0Z" fill="#FEEE03"/>
<path d="M32.575 52.217C47.1271 52.217 58.924 47.1376 58.924 40.872C58.924 34.6063 47.1271 29.527 32.575 29.527C18.0228 29.527 6.22595 34.6063 6.22595 40.872C6.22595 47.1376 18.0228 52.217 32.575 52.217Z" fill="#F29E00"/>
<path fill-rule="evenodd" clip-rule="evenodd" d="M23.158 31.811C21.544 27.677 22.936 22.555 26.186 19.843C29.588 17.005 33.291 16.834 36.77 18.131C37.211 18.295 37.437 18.399 37.176 18.617L35.93 19.657C35.382 20.113 35.489 20.506 36.032 20.606L43.898 22.067C44.75 22.225 45.122 22.023 45.121 21.101L45.09 12.872C45.089 12.337 44.763 12.284 44.381 12.603L42.291 14.348C41.875 14.695 41.687 14.529 41.348 14.311C35.713 10.684 28.338 10.906 22.673 15.632C17.326 20.093 15.521 27.886 18.23 34.239L18.227 33.382C18.224 31.268 18.909 31.028 20.719 31.358L23.158 31.811Z" stroke="#F29E00" stroke-width="2.054" stroke-miterlimit="22.9256"/>
<path fill-rule="evenodd" clip-rule="evenodd" d="M46.9251 21.764C46.9281 23.878 46.243 24.118 44.433 23.788L41.9921 23.335C43.6061 27.469 42.2141 32.591 38.9641 35.303C35.5631 38.141 31.8591 38.312 28.3801 37.016C27.9391 36.851 27.7131 36.747 27.9741 36.53L29.2201 35.49C29.7681 35.034 29.6611 34.642 29.1171 34.542L21.252 33.08C20.4 32.922 20.0281 33.124 20.0291 34.046L20.0591 42.276C20.0611 42.81 20.387 42.864 20.769 42.544L22.859 40.799C23.275 40.452 23.4641 40.617 23.8021 40.836C29.4371 44.463 36.811 44.241 42.476 39.514C47.824 35.054 49.629 27.261 46.92 20.907L46.9251 21.764Z" stroke="#F29E00" stroke-width="2.054" stroke-miterlimit="22.9256"/>
<path fill-rule="evenodd" clip-rule="evenodd" d="M23.158 31.811C21.544 27.677 22.936 22.555 26.186 19.843C28.244 18.126 30.412 17.386 32.575 17.355V11.817C29.136 11.896 25.665 13.135 22.671 15.632C17.324 20.093 15.519 27.886 18.228 34.239L18.225 33.382C18.222 31.268 18.907 31.028 20.717 31.358L23.158 31.811Z" fill="#E6E6E6"/>
<path fill-rule="evenodd" clip-rule="evenodd" d="M36.77 18.13C37.211 18.294 37.437 18.398 37.176 18.616L35.93 19.656C35.382 20.112 35.489 20.505 36.032 20.605L43.898 22.066C44.75 22.224 45.122 22.022 45.121 21.1L45.09 12.871C45.089 12.336 44.763 12.283 44.381 12.602L42.291 14.347C41.875 14.694 41.687 14.528 41.348 14.31C38.691 12.599 35.647 11.745 32.577 11.816V17.354C33.987 17.335 35.395 17.618 36.77 18.13Z" fill="#E6E6E6"/>
<path fill-rule="evenodd" clip-rule="evenodd" d="M46.925 21.764C46.928 23.878 46.243 24.118 44.433 23.788L41.992 23.335C43.606 27.469 42.214 32.591 38.964 35.303C36.906 37.02 34.738 37.761 32.575 37.79V43.329C36.014 43.25 39.485 42.011 42.478 39.513C47.826 35.053 49.631 27.26 46.922 20.906L46.925 21.764Z" fill="#E6E6E6"/>
<path fill-rule="evenodd" clip-rule="evenodd" d="M28.3801 37.016C27.9391 36.851 27.7131 36.747 27.9741 36.53L29.2201 35.49C29.7681 35.034 29.6611 34.642 29.1171 34.542L21.252 33.08C20.4 32.922 20.0281 33.124 20.0291 34.046L20.0591 42.276C20.0611 42.81 20.387 42.864 20.769 42.544L22.859 40.799C23.275 40.452 23.4641 40.617 23.8021 40.836C26.4591 42.546 29.5031 43.4 32.5731 43.33V37.791C31.1641 37.81 29.7551 37.527 28.3801 37.016Z" fill="#E6E6E6"/>
<path fill-rule="evenodd" clip-rule="evenodd" d="M43.899 22.066C44.75 22.224 45.123 22.021 45.12 21.1L45.089 12.8701C45.088 12.3361 44.763 12.2821 44.381 12.6031L43.556 13.291V22.002L43.899 22.066Z" fill="white"/>
<path fill-rule="evenodd" clip-rule="evenodd" d="M46.925 21.764C46.928 23.878 46.243 24.118 44.433 23.788L43.556 23.625V27.627H48.159C48.233 25.345 47.833 23.044 46.922 20.907L46.925 21.764Z" fill="white"/>
<path fill-rule="evenodd" clip-rule="evenodd" d="M43.556 13.291L42.29 14.347C41.874 14.694 41.686 14.528 41.346 14.31C35.713 10.682 28.337 10.905 22.672 15.632C19.097 18.614 17.105 23.089 16.988 27.627H22.497C22.634 24.63 23.982 21.682 26.186 19.843C29.588 17.004 33.291 16.834 36.771 18.131C37.212 18.295 37.438 18.399 37.177 18.617L35.931 19.656C35.383 20.113 35.49 20.505 36.033 20.605L43.557 22.002V13.291H43.556Z" fill="white"/>
<path fill-rule="evenodd" clip-rule="evenodd" d="M41.9921 23.335C42.5251 24.699 42.73 26.17 42.649 27.627H43.5561V23.625L41.9921 23.335Z" fill="white"/>
<path opacity="0.2" fill-rule="evenodd" clip-rule="evenodd" d="M32.575 0C7.24698 0 0 22.172 0 35.626C0 35.76 0.00398144 35.892 0.00598145 36.024C24.198 49.457 34.702 23.275 64.844 30.685C63.242 17.365 54.989 0 32.575 0Z" fill="white"/>
<path opacity="0.2" fill-rule="evenodd" clip-rule="evenodd" d="M16.623 5.05996C6.799 10.853 1.38301 19.87 4.52601 25.201C7.66901 30.532 18.181 30.1569 28.006 24.3639C37.83 18.5719 43.246 9.55396 40.104 4.22396C36.96 -1.10704 26.448 -0.733038 16.623 5.05996Z" fill="white"/>
<path opacity="0.5" fill-rule="evenodd" clip-rule="evenodd" d="M61.372 34.989C59.889 34.644 58.274 36.143 57.765 38.337C57.255 40.53 58.044 42.588 59.526 42.932C61.009 43.277 62.623 41.778 63.133 39.584C63.643 37.391 62.855 35.334 61.372 34.989Z" fill="white"/>
<path opacity="0.5" fill-rule="evenodd" clip-rule="evenodd" d="M19.112 5.27698C14.817 7.31298 12.231 10.852 13.335 13.182C14.439 15.513 18.816 15.752 23.111 13.716C27.406 11.68 29.993 8.14098 28.888 5.81098C27.784 3.48098 23.406 3.24198 19.112 5.27698Z" fill="white"/>
<path opacity="0.5" fill-rule="evenodd" clip-rule="evenodd" d="M8.034 16.398C6.701 18.244 6.43199 20.327 7.43299 21.051C8.43499 21.774 10.328 20.8639 11.66 19.0179C12.993 17.1719 13.263 15.089 12.261 14.366C11.26 13.642 9.367 14.552 8.034 16.398Z" fill="white"/>
</svg>
