<svg width="360" height="132" viewBox="0 0 360 132" fill="none" xmlns="http://www.w3.org/2000/svg">
<path opacity="0.2" fill-rule="evenodd" clip-rule="evenodd" d="M11.3414 67.049C30.8573 56.9456 51.1807 48.4851 72.1009 41.7552L74.3311 41.0752C73.7328 36.778 73.1072 32.4808 72.4817 28.2108C108.138 19.0996 143.767 12.273 179.45 12.0282C215.133 11.7834 250.762 18.2836 286.445 26.9597C285.874 31.6105 285.276 36.2613 284.705 40.9393L287.425 41.7552C308.336 48.4853 328.65 56.9458 348.157 67.049C341.442 67.6318 334.773 68.6585 328.194 70.1223C321.503 71.591 314.867 73.386 308.176 75.5618C316.744 84.5914 325.311 93.9202 333.796 103.222C342.282 112.523 350.877 122.07 359.389 131.263C338.984 122.562 318.099 115.034 296.835 108.716C276.265 103.129 255.375 98.7967 234.28 95.7425L232.73 82.1437C197.576 76.7849 161.813 76.7849 126.659 82.1437C126.115 86.6222 125.599 91.1552 125.109 95.7425C104.014 98.795 83.1239 103.127 62.5546 108.716C41.2923 115.039 20.407 122.567 0 131.263C8.54005 122.07 17.0529 112.578 25.6202 103.222C34.1874 93.8658 42.6731 84.5914 51.2404 75.5618C44.5497 73.4041 37.8773 71.591 31.2229 70.1223C24.6699 68.6652 18.0285 67.6386 11.3414 67.049Z" fill="black"/>
<path fill-rule="evenodd" clip-rule="evenodd" d="M11.6131 55.0274C31.1202 44.9328 51.4346 36.4813 72.3454 29.7608C92.3097 23.9448 112.671 19.5907 133.268 16.7332C131.963 27.9114 130.548 39.0624 129.379 50.2406C128.209 61.4189 126.795 72.5155 125.517 83.6121C104.424 86.6794 83.535 91.0117 62.9623 96.5854C41.7035 102.93 20.8189 110.466 0.407715 119.159C8.94777 109.939 17.4334 100.475 26.0007 91.0915C34.5679 81.7083 43.0808 72.4611 51.648 63.4587C44.9574 61.3191 38.2849 59.506 31.6306 58.0191C25.0286 56.5969 18.3425 55.5976 11.6131 55.0274Z" fill="#FF6698"/>
<mask id="mask0_1_139" style="mask-type:luminance" maskUnits="userSpaceOnUse" x="0" y="16" width="134" height="104">
<path d="M11.6131 55.0274C31.1202 44.9328 51.4346 36.4813 72.3454 29.7608C92.3097 23.9448 112.671 19.5907 133.268 16.7332C131.963 27.9114 130.548 39.0624 129.379 50.2406C128.209 61.4189 126.795 72.5155 125.517 83.6121C104.424 86.6794 83.535 91.0117 62.9623 96.5854C41.7035 102.93 20.8189 110.466 0.407715 119.159C8.94777 109.939 17.4334 100.475 26.0007 91.0915C34.5679 81.7083 43.0808 72.4611 51.648 63.4587C44.9574 61.3191 38.2849 59.506 31.6306 58.0191C25.0286 56.5969 18.3425 55.5976 11.6131 55.0274Z" fill="white"/>
</mask>
<g mask="url(#mask0_1_139)">
<path fill-rule="evenodd" clip-rule="evenodd" d="M-37.0162 16.9233H-21.2144L22.3834 125.279H6.58155L-37.0162 16.9233Z" fill="#FF4783"/>
<path fill-rule="evenodd" clip-rule="evenodd" d="M-6.90833 16.9233H8.89349L52.5185 125.279H36.6895L-6.90833 16.9233Z" fill="#FF4783"/>
<path fill-rule="evenodd" clip-rule="evenodd" d="M23.1993 16.9233H39.0012L82.6261 125.279H66.7972L23.1993 16.9233Z" fill="#FF4783"/>
<path fill-rule="evenodd" clip-rule="evenodd" d="M53.3073 16.9233H69.1091L112.734 125.279H96.905L53.3073 16.9233Z" fill="#FF4783"/>
<path fill-rule="evenodd" clip-rule="evenodd" d="M83.4149 16.9233H99.2167L142.842 125.279H127.04L83.4149 16.9233Z" fill="#FF4783"/>
<path fill-rule="evenodd" clip-rule="evenodd" d="M113.523 16.9233H129.325L172.95 125.279H157.148L113.523 16.9233Z" fill="#FF4783"/>
</g>
<path fill-rule="evenodd" clip-rule="evenodd" d="M133.269 16.7332C124.701 26.7147 116.08 36.5874 107.567 46.8137C99.054 57.04 90.4324 67.4839 81.8651 78.1726C96.4158 79.4237 110.939 81.1643 125.517 83.6121C126.796 72.5155 128.237 61.3373 129.379 50.2406C130.522 39.144 131.963 27.993 133.269 16.7332Z" fill="#FF0F5F"/>
<path opacity="0.2" fill-rule="evenodd" clip-rule="evenodd" d="M54.2052 62.5342L101.094 53.6133C102.943 51.3559 104.82 49.1257 106.669 46.8955C114.693 37.322 122.798 28.0204 130.848 18.6372C111.541 21.3015 92.452 25.3647 73.7331 30.7945C54.0721 37.1305 34.9687 45.0812 16.618 54.5653C22.9303 55.1527 29.1985 56.1429 35.3844 57.5298C41.5311 58.8353 47.8953 60.5215 54.2052 62.5342Z" fill="white"/>
<path fill-rule="evenodd" clip-rule="evenodd" d="M348.592 55.0274C329.085 44.9328 308.77 36.4813 287.86 29.7608C267.931 23.9499 247.606 19.5959 227.046 16.7332C228.351 27.9114 229.766 39.0624 230.935 50.2406C232.105 61.4189 233.519 72.5155 234.797 83.6121C255.89 86.6794 276.779 91.0117 297.352 96.5854C318.612 102.925 339.497 110.462 359.906 119.159C351.366 109.939 342.88 100.475 334.313 91.0915C325.746 81.7083 317.233 72.4611 308.666 63.4587C315.356 61.3191 322.029 59.506 328.683 58.0191C335.249 56.6015 341.899 55.6022 348.592 55.0274Z" fill="#FF6698"/>
<mask id="mask1_1_139" style="mask-type:luminance" maskUnits="userSpaceOnUse" x="227" y="16" width="133" height="104">
<path d="M348.592 55.0274C329.085 44.9328 308.77 36.4813 287.86 29.7608C267.931 23.9499 247.606 19.5959 227.046 16.7332C228.351 27.9114 229.766 39.0624 230.935 50.2406C232.105 61.4189 233.519 72.5155 234.797 83.6121C255.89 86.6794 276.779 91.0117 297.352 96.5854C318.612 102.925 339.497 110.462 359.906 119.159C351.366 109.939 342.88 100.475 334.313 91.0915C325.746 81.7083 317.233 72.4611 308.666 63.4587C315.356 61.3191 322.029 59.506 328.683 58.0191C335.249 56.6015 341.899 55.6022 348.592 55.0274Z" fill="white"/>
</mask>
<g mask="url(#mask1_1_139)">
<path fill-rule="evenodd" clip-rule="evenodd" d="M187.364 16.9233H203.193L246.791 125.279H230.989L187.364 16.9233Z" fill="#FF4783"/>
<path fill-rule="evenodd" clip-rule="evenodd" d="M217.472 16.9233H233.274L276.899 125.279H261.097L217.472 16.9233Z" fill="#FF4783"/>
<path fill-rule="evenodd" clip-rule="evenodd" d="M247.58 16.9233H263.409L307.007 125.279H291.205L247.58 16.9233Z" fill="#FF4783"/>
<path fill-rule="evenodd" clip-rule="evenodd" d="M277.688 16.9233H293.517L337.114 125.279H321.313L277.688 16.9233Z" fill="#FF4783"/>
<path fill-rule="evenodd" clip-rule="evenodd" d="M307.822 16.9233H323.624L367.222 125.279H351.42L307.822 16.9233Z" fill="#FF4783"/>
<path fill-rule="evenodd" clip-rule="evenodd" d="M337.93 16.9233H353.732L397.33 125.279H381.528L337.93 16.9233Z" fill="#FF4783"/>
</g>
<path fill-rule="evenodd" clip-rule="evenodd" d="M227.046 16.7332C235.613 26.7147 244.235 36.5874 252.748 46.8137C261.26 57.04 269.882 67.4839 278.449 78.1726C263.926 79.4237 249.375 81.1643 234.797 83.6121C233.519 72.5155 232.077 61.3373 230.935 50.2406C229.793 39.144 228.351 27.993 227.046 16.7332Z" fill="#FF0F5F"/>
<path opacity="0.2" fill-rule="evenodd" clip-rule="evenodd" d="M306.109 62.5342L259.112 53.6133C257.263 51.3559 255.386 49.1257 253.537 46.8955C245.513 37.322 237.435 28.0204 229.358 18.6372C248.665 21.3015 267.754 25.3647 286.473 30.7945C306.134 37.1305 325.237 45.0812 343.588 54.5653C337.312 55.1573 331.08 56.1474 324.93 57.5298C318.675 58.8353 312.419 60.5215 306.109 62.5342Z" fill="white"/>
<path fill-rule="evenodd" clip-rule="evenodd" d="M72.8625 16.1893C108.491 7.10527 144.148 0.251469 179.831 0.00668987C215.514 -0.238089 251.143 6.26215 286.826 14.9382C285.521 25.4365 284.107 35.962 282.937 46.5146L279.102 78.3087C246.22 71.5909 213.365 66.2057 180.456 66.1785C147.547 66.1513 114.72 71.6181 81.865 78.2543C80.3419 67.8648 78.7917 57.5025 77.323 47.1402C75.8543 36.7779 74.3312 26.4972 72.8625 16.1893Z" fill="#FF6698"/>
<mask id="mask2_1_139" style="mask-type:luminance" maskUnits="userSpaceOnUse" x="72" y="0" width="215" height="79">
<path d="M72.8625 16.1893C108.491 7.10527 144.148 0.251469 179.831 0.00668987C215.514 -0.238089 251.143 6.26215 286.826 14.9382C285.521 25.4365 284.107 35.962 282.937 46.5146L279.102 78.3087C246.22 71.5909 213.365 66.2057 180.456 66.1785C147.547 66.1513 114.72 71.6181 81.865 78.2543C80.3419 67.8648 78.7917 57.5025 77.323 47.1402C75.8543 36.7779 74.3312 26.4972 72.8625 16.1893Z" fill="white"/>
</mask>
<g mask="url(#mask2_1_139)">
<path fill-rule="evenodd" clip-rule="evenodd" d="M44.7403 -22.2952H60.5693L104.167 86.0602H88.3653L44.7403 -22.2952Z" fill="#FF4783"/>
<path fill-rule="evenodd" clip-rule="evenodd" d="M74.8478 -22.2952H90.6769L134.275 86.0602H118.473L74.8478 -22.2952Z" fill="#FF4783"/>
<path fill-rule="evenodd" clip-rule="evenodd" d="M104.983 -22.2952H120.785L164.41 86.0602H148.581L104.983 -22.2952Z" fill="#FF4783"/>
<path fill-rule="evenodd" clip-rule="evenodd" d="M135.091 -22.2952H150.893L194.518 86.0602H178.688L135.091 -22.2952Z" fill="#FF4783"/>
<path fill-rule="evenodd" clip-rule="evenodd" d="M165.199 -22.2952H181L224.625 86.0602H208.796L165.199 -22.2952Z" fill="#FF4783"/>
<path fill-rule="evenodd" clip-rule="evenodd" d="M195.306 -22.2952H211.108L254.733 86.0602H238.904L195.306 -22.2952Z" fill="#FF4783"/>
<path fill-rule="evenodd" clip-rule="evenodd" d="M225.414 -22.2952H241.216L284.841 86.0602H269.039L225.414 -22.2952Z" fill="#FF4783"/>
<path fill-rule="evenodd" clip-rule="evenodd" d="M255.522 -22.2952H271.324L314.949 86.0602H299.147L255.522 -22.2952Z" fill="#FF4783"/>
</g>
<path opacity="0.2" fill-rule="evenodd" clip-rule="evenodd" d="M181.98 31.0393C198.085 31.0229 214.163 32.3786 230.038 35.0917C235.351 36.0165 240.563 37.0772 245.677 38.2739C257.793 41.1017 269.67 44.8756 281.197 49.5609L281.523 46.8411C282.23 40.8939 282.955 34.9557 283.699 29.0267C284.243 24.7566 284.76 20.5138 285.304 16.2438C250.735 7.83971 216.194 1.55706 181.653 1.80184C147.112 2.04661 109.743 9.49877 75.2291 18.3108L77.024 30.7673L79.5535 48.2826L79.8798 50.4856C92.7128 45.3643 105.914 41.2184 119.371 38.0835C124.348 36.9412 129.407 35.9077 134.574 35.0373C150.237 32.3853 166.094 31.048 181.98 31.0393Z" fill="white"/>
</svg>
