<svg width="390" height="719" viewBox="0 0 390 719" fill="none" xmlns="http://www.w3.org/2000/svg">
<g filter="url(#filter0_d_1_2501)">
<path fill-rule="evenodd" clip-rule="evenodd" d="M351.937 184.65C357.903 297.13 363.868 409.61 369.834 522.09C371.444 552.183 353.995 570.05 335.801 577.048C244.739 612.009 150.456 611.29 53.1007 577.048C34.8168 570.604 17.7856 552.155 19.0681 522.09C23.7808 409.61 28.5034 297.13 33.2359 184.65C37.1433 93.292 347.046 92.9878 351.937 184.65Z" fill="#0471EF"/>
<path fill-rule="evenodd" clip-rule="evenodd" d="M330.462 199.973C335.652 287.984 340.822 375.995 345.972 464.006C347.374 487.571 332.311 501.539 316.592 507.016C237.938 534.37 156.511 533.817 72.4285 507.016C56.65 501.982 41.9453 487.654 43.0489 464.006C47.1451 375.995 51.2215 287.984 55.278 199.973C58.6186 128.474 326.256 128.225 330.462 199.973Z" fill="#0471EF"/>
<path fill-rule="evenodd" clip-rule="evenodd" d="M325.153 196.46L340.066 450.619C341.379 473.299 326.972 486.742 311.91 492.108C236.626 518.439 158.629 517.886 78.1257 492.108C63.0034 487.24 48.9251 473.41 49.9989 450.619L61.7209 196.46C64.8229 127.645 321.096 127.423 325.153 196.46Z" fill="#0477F0"/>
<path fill-rule="evenodd" clip-rule="evenodd" d="M319.814 192.975C324.547 274.385 329.279 355.804 334.012 437.232C335.294 459.027 321.514 471.944 307.167 477.006C235.225 502.314 160.687 501.899 83.7633 477.006C69.327 472.359 55.875 459.055 56.919 437.232C60.6772 355.804 64.4155 274.385 68.134 192.975C71.057 126.815 315.966 126.621 319.814 192.975Z" fill="#047DF1"/>
<path fill-rule="evenodd" clip-rule="evenodd" d="M314.505 189.49L328.016 423.873C329.239 444.783 316.086 457.063 302.365 462.042C233.763 486.327 162.715 485.829 89.3406 462.042C75.5606 457.561 62.7349 444.81 63.6894 423.873C67.1891 345.708 70.7485 267.581 74.3675 189.49C77.2607 126.013 310.806 125.874 314.505 189.49Z" fill="#0483F2"/>
<path fill-rule="evenodd" clip-rule="evenodd" d="M309.166 185.95L322.051 410.43C323.185 430.483 310.687 442.349 297.653 447.023C232.361 470.257 164.773 469.786 94.9782 447.023C81.8544 442.736 69.655 430.428 70.5797 410.43C73.98 335.622 77.3703 260.795 80.7507 185.95C83.4948 125.183 305.676 124.989 309.166 185.95Z" fill="#0489F3"/>
<path fill-rule="evenodd" clip-rule="evenodd" d="M303.857 182.465C307.834 253.991 311.9 325.517 316.056 397.043C317.159 416.211 305.288 427.468 292.91 432.004C230.989 454.131 166.831 453.8 100.615 432.004C88.1776 427.911 76.6047 416.239 77.4697 397.043C80.6711 325.517 83.8825 253.991 87.1038 182.465C89.8181 124.353 300.516 124.159 303.857 182.465Z" fill="#048FF4"/>
<path fill-rule="evenodd" clip-rule="evenodd" d="M298.607 178.952C302.445 247.178 306.302 315.403 310.18 383.629C311.194 401.911 299.979 412.726 288.257 416.985C229.677 438.2 168.949 437.757 106.312 416.985C94.5307 413.086 83.5842 401.939 84.3895 383.629L93.5166 178.952C95.9325 123.551 295.386 123.357 298.607 178.952Z" fill="#0395F5"/>
<path fill-rule="evenodd" clip-rule="evenodd" d="M293.179 175.467L304.095 370.269C305.08 387.667 294.491 397.928 283.425 401.994C228.186 422.185 170.948 421.771 111.89 401.994C100.795 398.288 90.4446 387.695 91.2201 370.269C94.0835 305.326 96.9567 240.392 99.84 175.467C102.167 122.721 290.226 122.555 293.179 175.467Z" fill="#039BF6"/>
<path fill-rule="evenodd" clip-rule="evenodd" d="M287.87 171.954C291.27 233.615 294.68 295.258 298.1 356.882C299.025 373.478 289.152 383.158 278.713 387.003C226.784 406.171 173.036 405.783 117.647 387.003C107.207 383.49 97.5137 373.422 98.2296 356.882C100.914 295.24 103.608 233.597 106.313 171.954C108.401 121.891 285.096 121.725 287.87 171.954Z" fill="#03A1F7"/>
<path fill-rule="evenodd" clip-rule="evenodd" d="M282.53 168.469C285.751 226.793 288.953 285.135 292.134 343.495C292.969 359.123 283.693 368.388 273.97 372.012C225.381 390.128 175.093 389.769 123.164 372.012C113.381 368.665 104.314 359.15 105 343.495C107.505 285.135 110.02 226.793 112.546 168.469C114.604 121.062 279.935 120.923 282.53 168.469Z" fill="#03A8F8"/>
<path fill-rule="evenodd" clip-rule="evenodd" d="M277.221 164.956C280.203 219.998 283.186 275.049 286.169 330.108C286.974 344.851 278.324 353.591 269.257 356.993C224.039 374.114 177.181 373.754 128.831 356.993C119.734 353.84 111.263 344.851 111.92 330.108C114.246 275.067 116.592 220.016 118.959 164.956C120.838 120.343 274.745 120.094 277.221 164.956Z" fill="#03AEF9"/>
<path fill-rule="evenodd" clip-rule="evenodd" d="M271.763 161.472C274.547 213.231 277.301 264.981 280.025 316.722C280.771 330.551 272.747 338.849 264.366 342.002C222.608 358.072 179.091 357.768 134.291 342.002C125.879 339.042 118.065 330.579 118.631 316.722L125.163 161.472C127.043 119.43 269.645 119.292 271.763 161.472Z" fill="#03B4FA"/>
<path fill-rule="evenodd" clip-rule="evenodd" d="M193.348 464.282C281.725 464.282 353.37 490.973 353.37 523.943C353.37 556.912 281.785 583.603 193.348 583.603C104.911 583.603 33.3259 556.885 33.3259 523.943C33.3259 491.001 104.97 464.282 193.348 464.282Z" fill="#0267EA"/>
<path opacity="0.2" fill-rule="evenodd" clip-rule="evenodd" d="M322.021 519.905C336.398 509.173 351.133 511.22 354.831 524.496C358.53 537.772 350.059 557.217 335.652 567.976C321.246 578.735 306.541 576.689 302.843 563.412C299.144 550.136 307.555 530.664 322.021 519.905Z" fill="white"/>
<path opacity="0.2" fill-rule="evenodd" clip-rule="evenodd" d="M351.937 184.65C357.903 297.13 363.868 409.61 369.834 522.09C370.681 533.143 368.279 544.203 362.884 554.091L345.853 219.915C344.689 197.262 325.63 180.252 297.563 168.829C300.786 174.66 302.482 181.112 302.514 187.665C302.514 221.989 255.089 249.814 196.539 249.814C137.988 249.814 90.5933 221.989 90.5933 187.665C90.6638 179.619 93.1868 171.756 97.8711 164.984C64.1964 176.407 40.5735 194.718 39.5295 219.915L26.0476 553.87C20.7944 543.967 18.4097 532.967 19.1278 521.951C23.8405 409.471 28.563 296.991 33.2956 184.511C37.1433 93.292 347.046 92.9877 351.937 184.65Z" fill="white"/>
<path opacity="0.2" fill-rule="evenodd" clip-rule="evenodd" d="M351.938 184.65L360.439 344.38C289.331 292.603 224.964 431.423 25.2727 375.829L33.2961 184.594C37.1438 93.2919 347.046 92.9876 351.938 184.65Z" fill="white"/>
<path fill-rule="evenodd" clip-rule="evenodd" d="M66.9113 188.909H318.353C330.731 188.909 340.842 206.113 340.842 227.134V520.624C340.842 560.204 317.16 567.976 303.141 555.142C289.122 542.308 279.667 583.603 258.401 583.603C237.134 583.603 220.431 558.71 190.813 558.71C161.194 558.71 123.254 578.486 102.614 578.486C67.9254 578.486 42.6321 525.796 42.9602 468.238L44.4217 226.996C44.4217 205.975 54.533 188.771 66.8814 188.771L66.9113 188.909ZM275.939 507.569C272.956 497.003 267.14 504.277 259.683 510.556C252.226 516.835 245.873 519.822 248.945 530.36C252.018 540.898 260.548 544.328 268.005 538.049C275.462 531.77 279.011 518.107 275.939 507.624V507.569ZM56.7402 471.612C52.2364 475.54 50.7748 486.244 53.7575 495.482C56.7402 504.72 62.467 509.035 66.9709 505.079C71.4748 501.124 68.4921 494.68 65.6883 485.414C62.8846 476.148 61.274 467.574 56.7402 471.612Z" fill="#532B0F"/>
<path fill-rule="evenodd" clip-rule="evenodd" d="M187.681 163.822C213.571 163.822 340.842 168.303 340.842 224.036V517.526C340.842 557.106 317.16 564.878 303.141 552.044C289.122 539.211 279.667 580.505 258.401 580.505C237.134 580.505 220.431 555.612 190.813 555.612C161.194 555.612 123.254 575.416 102.614 575.416C67.9254 575.416 42.6321 522.698 42.9602 465.14L44.4217 223.898C44.7796 168.884 162.865 163.684 187.591 163.684L187.681 163.822ZM275.939 504.415C272.956 493.877 267.14 501.124 259.683 507.403C252.226 513.681 245.873 516.668 248.945 527.207C252.018 537.745 260.548 541.202 268.005 534.896C275.462 528.59 279.011 514.954 275.939 504.471V504.415ZM56.7402 468.459C52.2364 472.414 50.7748 483.09 53.7575 492.329C56.7402 501.567 62.467 505.881 66.9709 501.926C71.4748 497.971 68.4921 491.526 65.6883 482.288C62.8846 473.05 61.2739 464.476 56.7402 468.431V468.459Z" fill="#844517"/>
<path fill-rule="evenodd" clip-rule="evenodd" d="M102.614 569.359C78.7524 569.359 59.156 544.162 49.5219 509.615C48.5376 506.103 47.6428 502.479 46.8971 498.801C44.7616 488.536 43.4951 478.132 43.1091 467.684C43.1091 466.965 43.1091 466.218 43.1091 465.499V470.395C43.2782 478.547 43.9554 486.683 45.1373 494.763C45.9725 500.294 46.9866 505.494 48.12 510.583C57.0681 547.812 77.4102 575.554 102.584 575.554C123.224 575.554 161.164 555.751 190.783 555.751C220.401 555.751 237.134 580.644 258.371 580.644C279.607 580.644 289.122 539.349 303.111 552.183C303.558 552.57 303.976 552.957 304.423 553.289C317.696 563.827 338.098 556.995 340.544 524.385C340.723 522.246 340.812 520.006 340.812 517.664V512.686C340.792 516.601 340.473 520.511 339.858 524.385C335.682 550.136 318.979 556.276 306.601 548.615C305.366 547.835 304.208 546.956 303.141 545.987C289.152 533.153 279.667 574.476 258.4 574.476C237.134 574.476 220.431 549.583 190.812 549.583C161.194 549.583 123.254 569.359 102.614 569.359Z" fill="#9B511C"/>
</g>
<defs>
<filter id="filter0_d_1_2501" x="-97" y="0" width="583" height="719" filterUnits="userSpaceOnUse" color-interpolation-filters="sRGB">
<feFlood flood-opacity="0" result="BackgroundImageFix"/>
<feColorMatrix in="SourceAlpha" type="matrix" values="0 0 0 0 0 0 0 0 0 0 0 0 0 0 0 0 0 0 127 0" result="hardAlpha"/>
<feOffset/>
<feGaussianBlur stdDeviation="58"/>
<feComposite in2="hardAlpha" operator="out"/>
<feColorMatrix type="matrix" values="0 0 0 0 0 0 0 0 0 0.46383 0 0 0 0 1 0 0 0 0.33 0"/>
<feBlend mode="normal" in2="BackgroundImageFix" result="effect1_dropShadow_1_2501"/>
<feBlend mode="normal" in="SourceGraphic" in2="effect1_dropShadow_1_2501" result="shape"/>
</filter>
</defs>
</svg>
