<svg width="390" height="618" viewBox="0 0 390 618" fill="none" xmlns="http://www.w3.org/2000/svg">
<g filter="url(#filter0_d_1_2161)">
<path fill-rule="evenodd" clip-rule="evenodd" d="M351.937 170.413C357.903 259.565 363.868 348.718 369.834 437.87C371.444 461.722 353.995 475.884 335.801 481.431C244.739 509.141 150.456 508.571 53.1007 481.431C34.8168 476.323 17.7856 461.7 19.0681 437.87C23.7808 348.718 28.5034 259.565 33.2359 170.413C37.1433 98.0017 347.046 97.7605 351.937 170.413Z" fill="#0471EF"/>
<path fill-rule="evenodd" clip-rule="evenodd" d="M330.462 182.557C335.652 252.316 340.822 322.074 345.972 391.832C347.374 410.51 332.311 421.581 316.592 425.922C237.938 447.604 156.511 447.165 72.4285 425.922C56.65 421.932 41.9453 410.576 43.0489 391.832C47.1451 322.074 51.2215 252.316 55.278 182.557C58.6186 125.887 326.256 125.69 330.462 182.557Z" fill="#0471EF"/>
<path fill-rule="evenodd" clip-rule="evenodd" d="M325.153 179.773L340.066 381.222C341.379 399.198 326.972 409.853 311.91 414.106C236.626 434.976 158.629 434.538 78.1257 414.106C63.0034 410.247 48.9251 399.286 49.9989 381.222L61.7209 179.773C64.8229 125.23 321.096 125.054 325.153 179.773Z" fill="#0477F0"/>
<path fill-rule="evenodd" clip-rule="evenodd" d="M319.814 177.011C324.547 241.537 329.279 306.07 334.012 370.611C335.294 387.886 321.514 398.124 307.167 402.136C235.225 422.195 160.687 421.866 83.7633 402.136C69.327 398.453 55.875 387.908 56.919 370.611C60.6772 306.07 64.4155 241.537 68.134 177.011C71.057 124.572 315.966 124.418 319.814 177.011Z" fill="#047DF1"/>
<path fill-rule="evenodd" clip-rule="evenodd" d="M314.505 174.249L328.016 360.022C329.239 376.596 316.086 386.329 302.365 390.276C233.763 409.524 162.715 409.129 89.3406 390.276C75.5606 386.724 62.7349 376.618 63.6894 360.022C67.1891 298.068 70.7485 236.144 74.3675 174.249C77.2607 123.936 310.806 123.826 314.505 174.249Z" fill="#0483F2"/>
<path fill-rule="evenodd" clip-rule="evenodd" d="M309.166 171.443L322.051 349.368C323.185 365.262 310.687 374.667 297.653 378.371C232.361 396.787 164.773 396.414 94.9782 378.371C81.8544 374.973 69.655 365.218 70.5797 349.368C73.98 290.074 77.3703 230.766 80.7507 171.443C83.4948 123.278 305.676 123.125 309.166 171.443Z" fill="#0489F3"/>
<path fill-rule="evenodd" clip-rule="evenodd" d="M303.857 168.68C307.834 225.373 311.9 282.065 316.056 338.757C317.159 353.95 305.288 362.872 292.91 366.468C230.989 384.006 166.831 383.743 100.615 366.468C88.1776 363.223 76.6047 353.972 77.4697 338.757C80.6711 282.065 83.8825 225.373 87.1038 168.68C89.8181 122.621 300.516 122.467 303.857 168.68Z" fill="#048FF4"/>
<path fill-rule="evenodd" clip-rule="evenodd" d="M298.607 165.896C302.445 219.972 306.302 274.049 310.18 328.125C311.194 342.616 299.979 351.187 288.257 354.564C229.677 371.378 168.949 371.027 106.312 354.564C94.5307 351.472 83.5842 342.638 84.3895 328.125L93.5166 165.896C95.9325 121.985 295.386 121.832 298.607 165.896Z" fill="#0395F5"/>
<path fill-rule="evenodd" clip-rule="evenodd" d="M293.179 163.134L304.095 317.536C305.08 331.325 294.491 339.459 283.425 342.681C228.186 358.685 170.948 358.356 111.89 342.681C100.795 339.744 90.4446 331.347 91.2201 317.536C94.0835 266.061 96.9567 214.594 99.84 163.134C102.167 121.327 290.226 121.196 293.179 163.134Z" fill="#039BF6"/>
<path fill-rule="evenodd" clip-rule="evenodd" d="M287.87 160.35C291.27 209.223 294.68 258.081 298.1 306.925C299.025 320.079 289.152 327.752 278.713 330.799C226.784 345.992 173.036 345.685 117.647 330.799C107.207 328.015 97.5137 320.035 98.2296 306.925C100.914 258.067 103.608 209.208 106.313 160.35C108.401 120.67 285.096 120.538 287.87 160.35Z" fill="#03A1F7"/>
<path fill-rule="evenodd" clip-rule="evenodd" d="M282.53 157.587C285.751 203.815 288.953 250.058 292.134 296.315C292.969 308.701 283.693 316.045 273.97 318.917C225.381 333.276 175.093 332.991 123.164 318.917C113.381 316.264 104.314 308.723 105 296.315C107.505 250.058 110.02 203.815 112.546 157.587C114.604 120.012 279.935 119.902 282.53 157.587Z" fill="#03A8F8"/>
<path fill-rule="evenodd" clip-rule="evenodd" d="M277.221 154.803C280.203 198.43 283.186 242.063 286.169 285.704C286.974 297.389 278.324 304.316 269.257 307.013C224.039 320.583 177.181 320.298 128.831 307.013C119.734 304.514 111.263 297.389 111.92 285.704C114.246 242.078 116.592 198.444 118.959 154.803C120.838 119.442 274.745 119.245 277.221 154.803Z" fill="#03AEF9"/>
<path fill-rule="evenodd" clip-rule="evenodd" d="M271.763 152.041C274.547 193.066 277.301 234.083 280.025 275.094C280.771 286.055 272.747 292.632 264.366 295.131C222.608 307.868 179.091 307.627 134.291 295.131C125.879 292.785 118.065 286.077 118.631 275.094L125.163 152.041C127.043 118.719 269.645 118.609 271.763 152.041Z" fill="#03B4FA"/>
<path fill-rule="evenodd" clip-rule="evenodd" d="M193.348 392.051C281.725 392.051 353.37 413.207 353.37 439.339C353.37 465.471 281.785 486.626 193.348 486.626C104.911 486.626 33.3259 465.449 33.3259 439.339C33.3259 413.229 104.97 392.051 193.348 392.051Z" fill="#0267EA"/>
<path opacity="0.2" fill-rule="evenodd" clip-rule="evenodd" d="M322.021 436.138C336.398 427.632 351.133 429.254 354.831 439.777C358.53 450.3 350.059 465.712 335.652 474.24C321.246 482.768 306.541 481.145 302.843 470.623C299.144 460.1 307.555 444.666 322.021 436.138Z" fill="white"/>
<path opacity="0.2" fill-rule="evenodd" clip-rule="evenodd" d="M351.937 170.412C357.903 259.565 363.868 348.717 369.834 437.87C370.681 446.631 368.279 455.397 362.884 463.235L345.853 198.364C344.689 180.409 325.63 166.927 297.563 157.872C300.786 162.494 302.482 167.609 302.514 172.802C302.514 200.008 255.089 222.062 196.539 222.062C137.988 222.062 90.5933 200.008 90.5933 172.802C90.6638 166.425 93.1868 160.193 97.8711 154.825C64.1964 163.879 40.5735 178.392 39.5295 198.364L26.0476 463.059C20.7944 455.21 18.4097 446.492 19.1278 437.76C23.8405 348.608 28.563 259.455 33.2956 170.303C37.1433 98.0014 347.046 97.7603 351.937 170.412Z" fill="white"/>
<path opacity="0.2" fill-rule="evenodd" clip-rule="evenodd" d="M351.938 170.413L360.439 297.017C289.331 255.977 224.964 366.007 25.2727 321.943L33.2961 170.369C37.1438 98.0018 347.046 97.7606 351.938 170.413Z" fill="white"/>
<path fill-rule="evenodd" clip-rule="evenodd" d="M66.9113 173.788H318.353C330.731 173.788 340.842 187.424 340.842 204.086V436.708C340.842 468.079 317.16 474.24 303.141 464.068C289.122 453.895 279.667 486.626 258.401 486.626C237.134 486.626 220.431 466.896 190.813 466.896C161.194 466.896 123.254 482.57 102.614 482.57C67.9254 482.57 42.6321 440.808 42.9602 395.186L44.4217 203.976C44.4217 187.315 54.533 173.679 66.8814 173.679L66.9113 173.788ZM275.939 426.36C272.956 417.986 267.14 423.752 259.683 428.728C252.226 433.705 245.873 436.072 248.945 444.425C252.018 452.777 260.548 455.496 268.005 450.519C275.462 445.543 279.011 434.713 275.939 426.404V426.36ZM56.7402 397.861C52.2364 400.974 50.7748 409.458 53.7575 416.78C56.7402 424.102 62.467 427.522 66.9709 424.387C71.4748 421.252 68.4921 416.144 65.6883 408.8C62.8846 401.456 61.274 394.66 56.7402 397.861Z" fill="#532B0F"/>
<path fill-rule="evenodd" clip-rule="evenodd" d="M187.681 153.904C213.571 153.904 340.842 157.456 340.842 201.63V434.253C340.842 465.624 317.16 471.784 303.141 461.612C289.122 451.44 279.667 484.171 258.401 484.171C237.134 484.171 220.431 464.44 190.813 464.44C161.194 464.44 123.254 480.137 102.614 480.137C67.9254 480.137 42.6321 438.352 42.9602 392.731L44.4217 201.521C44.7796 157.916 162.865 153.795 187.591 153.795L187.681 153.904ZM275.939 423.861C272.956 415.509 267.14 421.252 259.683 426.229C252.226 431.205 245.873 433.573 248.945 441.926C252.018 450.278 260.548 453.018 268.005 448.02C275.462 443.022 279.011 432.214 275.939 423.905V423.861ZM56.7402 395.362C52.2364 398.497 50.7748 406.959 53.7575 414.281C56.7402 421.603 62.467 425.023 66.9709 421.888C71.4748 418.753 68.4921 413.645 65.6883 406.323C62.8846 399.001 61.274 392.205 56.7402 395.34V395.362Z" fill="#844517"/>
<path fill-rule="evenodd" clip-rule="evenodd" d="M102.614 475.336C78.7524 475.336 59.156 455.364 49.5219 427.983C48.5376 425.198 47.6428 422.327 46.8971 419.411C44.7616 411.275 43.4951 403.029 43.1091 394.748C43.1091 394.178 43.1091 393.586 43.1091 393.016V396.896C43.2782 403.358 43.9554 409.806 45.1373 416.21C45.9725 420.595 46.9866 424.716 48.12 428.75C57.0681 458.258 77.4102 480.247 102.584 480.247C123.224 480.247 161.164 464.55 190.783 464.55C220.401 464.55 237.134 484.28 258.371 484.28C279.607 484.28 289.122 451.55 303.111 461.722C303.558 462.029 303.976 462.336 304.423 462.599C317.696 470.951 338.098 465.536 340.544 439.689C340.723 437.994 340.812 436.218 340.812 434.362V430.416C340.792 433.52 340.473 436.619 339.858 439.689C335.682 460.099 318.979 464.966 306.601 458.894C305.366 458.276 304.208 457.579 303.141 456.811C289.152 446.639 279.667 479.392 258.4 479.392C237.134 479.392 220.431 459.661 190.812 459.661C161.194 459.661 123.254 475.336 102.614 475.336Z" fill="#9B511C"/>
</g>
<defs>
<filter id="filter0_d_1_2161" x="-97" y="0" width="583" height="618" filterUnits="userSpaceOnUse" color-interpolation-filters="sRGB">
<feFlood flood-opacity="0" result="BackgroundImageFix"/>
<feColorMatrix in="SourceAlpha" type="matrix" values="0 0 0 0 0 0 0 0 0 0 0 0 0 0 0 0 0 0 127 0" result="hardAlpha"/>
<feOffset/>
<feGaussianBlur stdDeviation="58"/>
<feComposite in2="hardAlpha" operator="out"/>
<feColorMatrix type="matrix" values="0 0 0 0 0 0 0 0 0 0.46383 0 0 0 0 1 0 0 0 0.33 0"/>
<feBlend mode="normal" in2="BackgroundImageFix" result="effect1_dropShadow_1_2161"/>
<feBlend mode="normal" in="SourceGraphic" in2="effect1_dropShadow_1_2161" result="shape"/>
</filter>
</defs>
</svg>
