<svg width="80" height="82" viewBox="0 0 80 82" fill="none" xmlns="http://www.w3.org/2000/svg">
<path fill-rule="evenodd" clip-rule="evenodd" d="M39.2473 3.44478C46.9603 3.43823 54.5019 5.71982 60.9178 10.0009C67.3336 14.2819 72.3354 20.3699 75.2901 27.4945C78.2447 34.6192 79.0195 42.4601 77.5164 50.0253C76.0133 57.5904 72.2998 64.5396 66.8458 69.9935C61.3919 75.4474 54.4427 79.1611 46.8776 80.6643C39.3125 82.1674 31.4714 81.3926 24.3468 78.4379C17.2221 75.4833 11.1341 70.4814 6.85309 64.0655C2.57205 57.6497 0.290461 50.108 0.297011 42.3949C0.297011 32.0647 4.4006 22.1576 11.7052 14.853C19.0098 7.54837 28.917 3.44478 39.2473 3.44478Z" fill="#9B511C"/>
<path fill-rule="evenodd" clip-rule="evenodd" d="M39.2473 7.50999e-05C46.9603 -0.00647524 54.5019 2.27512 60.9178 6.55616C67.3336 10.8372 72.3354 16.9254 75.2901 24.05C78.2447 31.1747 79.0195 39.0156 77.5164 46.5808C76.0133 54.1459 72.2998 61.0951 66.8458 66.549C61.3919 72.0029 54.4427 75.7164 46.8776 77.2196C39.3125 78.7227 31.4714 77.9479 24.3468 74.9932C17.2221 72.0386 11.1341 67.0369 6.85309 60.621C2.57205 54.2052 0.290461 46.6635 0.297011 38.9504C0.297011 28.6202 4.4006 18.7131 11.7052 11.4085C19.0098 4.10387 28.917 7.50999e-05 39.2473 7.50999e-05Z" fill="#6B3713"/>
<path fill-rule="evenodd" clip-rule="evenodd" d="M39.2473 8.54539C48.8471 8.54465 58.1097 12.086 65.2603 18.491C72.4109 24.896 76.9468 33.7142 77.999 43.2562C77.999 42.4281 78.1646 41.6001 78.1977 40.7389C78.2308 39.8778 78.1977 39.613 78.1977 39.0168C77.9021 28.8788 73.667 19.255 66.3916 12.1886C59.1161 5.12221 49.3731 1.16937 39.2308 1.16937C29.0884 1.16937 19.3454 5.12221 12.07 12.1886C4.7945 19.255 0.559515 28.8788 0.263916 39.0168C0.263916 39.613 0.263916 40.1759 0.263916 40.7389C0.263916 41.302 0.263876 42.4281 0.429481 43.2562C1.48991 33.7057 6.03737 24.8826 13.2004 18.4775C20.3634 12.0723 29.6382 8.53564 39.2473 8.54539Z" fill="#532B0F"/>
<path fill-rule="evenodd" clip-rule="evenodd" d="M39.5923 63.1976L21.3521 72.7143C20.666 73.1002 19.8816 73.2759 19.0964 73.2197C18.3112 73.1635 17.5599 72.8778 16.9357 72.3981C16.3116 71.9184 15.8422 71.2659 15.5858 70.5216C15.3294 69.7773 15.2974 68.9741 15.4937 68.2118L18.845 48.0785L3.70035 33.164C3.12484 32.7002 2.70694 32.0696 2.50399 31.3589C2.30104 30.6481 2.32295 29.8919 2.56676 29.1941C2.81057 28.4963 3.26427 27.8911 3.8657 27.4614C4.46713 27.0317 5.18684 26.7986 5.92599 26.7941L26.8267 23.6475C28.7965 19.6822 33.5548 3.92341 39.6178 4.00016C45.6808 4.0769 50.3112 19.3497 52.409 23.6475L73.3353 26.7941C74.0723 26.8038 74.7883 27.0405 75.3857 27.4722C75.9831 27.9039 76.4329 28.5093 76.6735 29.206C76.9141 29.9027 76.9339 30.6566 76.7302 31.365C76.5266 32.0733 76.1093 32.7016 75.5354 33.164L60.3907 48.0529L63.742 68.1862C63.9383 68.9485 63.9063 69.7517 63.6499 70.496C63.3936 71.2403 62.9241 71.8928 62.2999 72.3725C61.6758 72.8522 60.9245 73.1379 60.1393 73.1941C59.3541 73.2503 58.5697 73.0746 57.8836 72.6887L39.5923 63.1976Z" stroke="#FD9F00" stroke-width="4.73272" stroke-miterlimit="22.93"/>
<path fill-rule="evenodd" clip-rule="evenodd" d="M39.5923 63.1976L21.3521 72.7143C20.666 73.1002 19.8816 73.2759 19.0964 73.2197C18.3112 73.1635 17.5599 72.8778 16.9357 72.3981C16.3116 71.9184 15.8422 71.2659 15.5858 70.5216C15.3294 69.7773 15.2974 68.9741 15.4937 68.2118L18.845 48.0785L3.70035 33.164C3.12484 32.7002 2.70694 32.0696 2.50399 31.3589C2.30104 30.6481 2.32295 29.8919 2.56676 29.1941C2.81057 28.4963 3.26427 27.8911 3.8657 27.4614C4.46713 27.0317 5.18684 26.7986 5.92599 26.7941L26.8267 23.6475C28.7965 19.6822 33.5548 3.92341 39.6178 4.00016C45.6808 4.0769 50.3112 19.3497 52.409 23.6475L73.3353 26.7941C74.0723 26.8038 74.7883 27.0405 75.3857 27.4722C75.9831 27.9039 76.4329 28.5093 76.6735 29.206C76.9141 29.9027 76.9339 30.6566 76.7302 31.365C76.5266 32.0733 76.1093 32.7016 75.5354 33.164L60.3907 48.0529L63.742 68.1862C63.9383 68.9485 63.9063 69.7517 63.6499 70.496C63.3936 71.2403 62.9241 71.8928 62.2999 72.3725C61.6758 72.8522 60.9245 73.1379 60.1393 73.1941C59.3541 73.2503 58.5697 73.0746 57.8836 72.6887L39.5923 63.1976Z" fill="url(#paint0_linear_1_2812)"/>
<path fill-rule="evenodd" clip-rule="evenodd" d="M34.2711 28.508C38.7736 23.3916 39.1829 5.25375 47.753 13.1587C45.4762 8.45153 42.6365 4.12818 39.5155 4.1026C33.5548 4.1026 28.7965 19.7845 26.7243 23.7498L5.82358 26.8963C5.08442 26.9009 4.36479 27.134 3.76336 27.5637C3.16193 27.9934 2.70815 28.5988 2.46434 29.2966C2.22053 29.9944 2.19862 30.7504 2.40157 31.4612C2.60452 32.1719 3.02242 32.8025 3.59793 33.2663L5.64448 35.2874C5.92589 26.8197 29.436 34.6734 34.2711 28.508Z" fill="#FFFF00"/>
<path fill-rule="evenodd" clip-rule="evenodd" d="M52.3323 23.673C57.4487 36.4642 61.6698 31.3478 76.7889 29.9919C76.6459 29.1419 76.2189 28.3654 75.5777 27.7892C74.9366 27.2131 74.1191 26.8714 73.2586 26.8198L52.3323 23.673Z" fill="#FFFF00"/>
<path fill-rule="evenodd" clip-rule="evenodd" d="M15.9032 71.1283C22.1964 61.0489 27.9524 55.3952 18.8451 48.1042L15.4939 68.2375C15.3205 69.2201 15.4638 70.2324 15.9032 71.1283Z" fill="#FFFF00"/>
<path fill-rule="evenodd" clip-rule="evenodd" d="M2.85655 32.1154C1.70535 30.0432 2.52402 27.485 5.92646 26.8198L26.8271 23.6731C28.797 19.7078 33.5553 3.94917 39.6183 4.02591C45.6813 4.10266 50.3117 19.3753 52.4094 23.6731L73.3358 26.8198C76.7383 27.485 77.5313 30.0432 76.3801 32.1154C76.025 31.6217 75.5708 31.2074 75.0467 30.899C74.5225 30.5907 73.9398 30.3951 73.3358 30.3246L52.4094 27.1779C50.2861 22.9056 45.5534 7.60742 39.6183 7.53067C33.6832 7.45393 28.8993 23.2126 26.8271 27.1779L5.92646 30.3246C5.32003 30.3992 4.7351 30.5963 4.20734 30.9042C3.67957 31.212 3.21997 31.6242 2.85655 32.1154Z" fill="white"/>
<path fill-rule="evenodd" clip-rule="evenodd" d="M39.9505 6.40491C42.5087 6.40491 42.9436 9.62827 41.1528 13.5935C39.3621 17.5588 35.8573 20.7567 33.4781 20.7567C31.099 20.7567 30.4594 17.5588 32.2758 13.5935C34.0921 9.62827 37.469 6.40491 39.9505 6.40491Z" fill="white"/>
<defs>
<linearGradient id="paint0_linear_1_2812" x1="39.5923" y1="70.9491" x2="39.5923" y2="4.89554" gradientUnits="userSpaceOnUse">
<stop stop-color="#FFCB11"/>
<stop offset="1" stop-color="#FEEF2F"/>
</linearGradient>
</defs>
</svg>
