<svg width="43" height="37" viewBox="0 0 43 37" fill="none" xmlns="http://www.w3.org/2000/svg">
<path fill-rule="evenodd" clip-rule="evenodd" d="M21.4409 0C38.1161 0 42.8586 14.5641 42.8586 23.4066C42.8586 32.249 33.2513 36.2572 21.4409 36.2572C9.63055 36.2572 0.0231628 32.2796 0.0231628 23.4066C0.0231628 14.5335 4.79626 0 21.4409 0Z" fill="#F8B802"/>
<path fill-rule="evenodd" clip-rule="evenodd" d="M7.09136 21.7544C-2.36304 26.7416 0.727189 0.520212 21.1046 0.581406C43.2567 0.581406 44.3583 25.426 36.0971 21.7544C29.9166 19.0007 13.6391 18.2663 7.09136 21.7544Z" fill="#F8B802"/>
<path opacity="0.95" fill-rule="evenodd" clip-rule="evenodd" d="M7.21397 20.8058C-1.65909 25.6401 0.910972 0.887287 20.2481 0.642513C41.2681 0.336545 42.645 23.6513 34.7511 20.3162C28.8459 17.9603 13.3945 17.5319 7.21397 20.8058Z" fill="#F8BD02"/>
<path opacity="0.91" fill-rule="evenodd" clip-rule="evenodd" d="M7.36618 20.1021C-0.986739 24.814 1.2468 1.52984 19.3907 0.948499C39.2786 0.305966 40.8085 22.1215 33.4041 19.3066C27.7743 16.9506 13.149 16.8283 7.36618 20.1021Z" fill="#F9C202"/>
<path opacity="0.86" fill-rule="evenodd" clip-rule="evenodd" d="M7.48878 19.2453C-0.282801 23.8349 1.36938 2.04996 18.5342 1.13206C37.3206 0.122367 39.187 20.4998 32.058 17.8685C26.7035 15.9103 12.9044 16.0939 7.48878 19.2453Z" fill="#F9C602"/>
<path opacity="0.82" fill-rule="evenodd" clip-rule="evenodd" d="M7.64203 18.4192C0.390594 22.8558 1.5227 2.57011 17.7084 1.31564C35.3015 -0.0306132 37.4739 18.8476 30.712 16.614C25.6636 14.87 12.6599 15.3596 7.64203 18.4192Z" fill="#FACB02"/>
<path opacity="0.77" fill-rule="evenodd" clip-rule="evenodd" d="M7.85599 17.7461C1.18589 22.0297 1.73663 3.24327 17.035 1.65223C33.5267 -0.0611858 35.9438 17.379 29.5491 15.4208C24.5924 13.8297 12.4149 14.6864 7.85599 17.7461Z" fill="#FAD002"/>
<path opacity="0.73" fill-rule="evenodd" clip-rule="evenodd" d="M7.85586 16.767C1.7365 20.9282 1.73655 3.61041 15.9334 1.68282C31.2318 -0.397763 33.9549 15.5738 27.958 13.9215C23.5214 12.7894 12.17 13.8909 7.85586 16.767Z" fill="#FBD503"/>
<path opacity="0.68" fill-rule="evenodd" clip-rule="evenodd" d="M8.07029 15.941C2.47108 19.9492 1.95093 4.1306 15.1381 1.86644C29.3656 -0.550705 32.3029 13.9522 26.6731 12.6977C22.4507 11.7798 11.9255 13.1567 8.07029 15.941Z" fill="#FBDA03"/>
<path opacity="0.64" fill-rule="evenodd" clip-rule="evenodd" d="M8.19247 15.1148C3.144 18.97 2.2261 4.62005 14.3118 2.04993C27.4072 -0.734381 30.62 12.2998 25.3573 11.4125C19.3982 10.9626 13.4363 12.2486 8.19247 15.1148Z" fill="#FCDF03"/>
<path opacity="0.59" fill-rule="evenodd" clip-rule="evenodd" d="M8.34598 14.2887C3.84825 18.0215 2.41021 5.10971 13.425 2.26421C25.3884 -0.795469 28.8764 10.6477 23.9809 10.1276C18.48 10.0036 13.0575 11.4468 8.34598 14.2887Z" fill="#FCE303"/>
<path opacity="0.55" fill-rule="evenodd" clip-rule="evenodd" d="M8.46779 13.4626C4.52081 17.0425 2.5932 5.66044 12.5677 2.44778C23.399 -1.07085 27.1317 9.02609 22.634 8.81191C17.5786 9.05459 12.6833 10.6617 8.46779 13.4626Z" fill="#FDE803"/>
<path opacity="0.5" fill-rule="evenodd" clip-rule="evenodd" d="M8.62126 12.6364C5.19442 16.0633 2.77728 6.1805 11.6809 2.63127C21.3801 -1.25452 25.3883 7.37379 21.2577 7.52677C16.6735 8.10443 12.3186 9.86537 8.62126 12.6364Z" fill="#FDED03"/>
<path fill-rule="evenodd" clip-rule="evenodd" d="M21.4413 0C38.1165 0 42.859 14.5641 42.859 23.4066C42.8904 23.8752 42.8904 24.3454 42.859 24.814C42.1553 15.9409 36.8927 3.39624 21.4413 3.39624C5.98992 3.39624 0.819068 15.8491 0.0235521 24.814C-0.00785069 24.3454 -0.00785069 23.8752 0.0235521 23.4066C0.0235521 14.6865 4.79665 0 21.4413 0Z" fill="#FDED03"/>
<path fill-rule="evenodd" clip-rule="evenodd" d="M21.4412 19.3983C31.018 19.3983 38.7895 22.7334 38.7895 26.8639C38.7895 30.9945 31.018 34.3296 21.4412 34.3296C11.8644 34.3296 4.1234 30.9945 4.1234 26.8639C4.1234 22.7334 11.8644 19.3983 21.4412 19.3983Z" fill="#F19D00"/>
<path fill-rule="evenodd" clip-rule="evenodd" d="M12.5988 25.9461V10.2805C12.6065 10.1759 12.6348 10.0739 12.6821 9.98033C12.7294 9.88674 12.7948 9.80346 12.8744 9.73522C12.954 9.66697 13.0464 9.61513 13.1461 9.58269C13.2458 9.55026 13.3509 9.53788 13.4555 9.54623H16.2398C16.4491 9.5372 16.654 9.60799 16.8131 9.74432C16.9721 9.88066 17.0734 10.0723 17.0965 10.2805V25.9461C17.0734 26.1543 16.9721 26.346 16.8131 26.4823C16.654 26.6186 16.4491 26.6894 16.2398 26.6804H13.4555C13.3509 26.6887 13.2458 26.6764 13.1461 26.6439C13.0464 26.6115 12.954 26.5596 12.8744 26.4914C12.7948 26.4232 12.7294 26.3398 12.6821 26.2463C12.6348 26.1527 12.6065 26.0506 12.5988 25.9461Z" stroke="#F19D00" stroke-width="2.96789" stroke-miterlimit="22.93"/>
<path fill-rule="evenodd" clip-rule="evenodd" d="M12.5988 25.9461V10.2805C12.6065 10.1759 12.6348 10.0739 12.6821 9.98033C12.7294 9.88674 12.7948 9.80346 12.8744 9.73522C12.954 9.66697 13.0464 9.61513 13.1461 9.58269C13.2458 9.55026 13.3509 9.53788 13.4555 9.54623H16.2398C16.4491 9.5372 16.654 9.60799 16.8131 9.74432C16.9721 9.88066 17.0734 10.0723 17.0965 10.2805V25.9461C17.0734 26.1543 16.9721 26.346 16.8131 26.4823C16.654 26.6186 16.4491 26.6894 16.2398 26.6804H13.4555C13.3509 26.6887 13.2458 26.6764 13.1461 26.6439C13.0464 26.6115 12.954 26.5596 12.8744 26.4914C12.7948 26.4232 12.7294 26.3398 12.6821 26.2463C12.6348 26.1527 12.6065 26.0506 12.5988 25.9461Z" fill="#E5E5E5"/>
<path fill-rule="evenodd" clip-rule="evenodd" d="M12.5988 25.9461V10.2805C12.6065 10.1759 12.6348 10.0739 12.6821 9.98033C12.7294 9.88674 12.7948 9.80346 12.8744 9.73522C12.954 9.66697 13.0464 9.61513 13.1461 9.58269C13.2458 9.55026 13.3509 9.53788 13.4555 9.54623H14.8324V26.6804H13.4555C13.3509 26.6887 13.2458 26.6764 13.1461 26.6439C13.0464 26.6115 12.954 26.5596 12.8744 26.4914C12.7948 26.4232 12.7294 26.3398 12.6821 26.2463C12.6348 26.1527 12.6065 26.0506 12.5988 25.9461Z" fill="white"/>
<path fill-rule="evenodd" clip-rule="evenodd" d="M19.2074 25.9461V10.2805C19.2151 10.1759 19.2435 10.0739 19.2908 9.98033C19.3381 9.88674 19.4034 9.80346 19.483 9.73522C19.5627 9.66697 19.655 9.61513 19.7548 9.58269C19.8545 9.55026 19.9596 9.53788 20.0641 9.54623H22.8484C23.0577 9.5372 23.2627 9.60799 23.4217 9.74432C23.5808 9.88066 23.682 10.0723 23.7051 10.2805V25.9461C23.682 26.1543 23.5808 26.346 23.4217 26.4823C23.2627 26.6186 23.0577 26.6894 22.8484 26.6804H20.0947C19.9878 26.6931 19.8794 26.6839 19.7761 26.6535C19.6728 26.6231 19.5767 26.5719 19.4938 26.5033C19.4108 26.4346 19.3427 26.3498 19.2935 26.254C19.2443 26.1583 19.2149 26.0535 19.2074 25.9461Z" stroke="#F19D00" stroke-width="2.96789" stroke-miterlimit="22.93"/>
<path fill-rule="evenodd" clip-rule="evenodd" d="M19.2074 25.9461V10.2805C19.2151 10.1759 19.2435 10.0739 19.2908 9.98033C19.3381 9.88674 19.4034 9.80346 19.483 9.73522C19.5627 9.66697 19.655 9.61513 19.7548 9.58269C19.8545 9.55026 19.9596 9.53788 20.0641 9.54623H22.8484C23.0577 9.5372 23.2627 9.60799 23.4217 9.74432C23.5808 9.88066 23.682 10.0723 23.7051 10.2805V25.9461C23.682 26.1543 23.5808 26.346 23.4217 26.4823C23.2627 26.6186 23.0577 26.6894 22.8484 26.6804H20.0947C19.9878 26.6931 19.8794 26.6839 19.7761 26.6535C19.6728 26.6231 19.5767 26.5719 19.4938 26.5033C19.4108 26.4346 19.3427 26.3498 19.2935 26.254C19.2443 26.1583 19.2149 26.0535 19.2074 25.9461Z" fill="#E5E5E5"/>
<path fill-rule="evenodd" clip-rule="evenodd" d="M19.2074 25.9461V10.2805C19.2151 10.1759 19.2435 10.0739 19.2908 9.98033C19.3381 9.88674 19.4034 9.80346 19.483 9.73522C19.5627 9.66697 19.655 9.61513 19.7548 9.58269C19.8545 9.55026 19.9596 9.53788 20.0641 9.54623H21.441V26.6804H20.0947C19.9878 26.6931 19.8794 26.6839 19.7761 26.6535C19.6728 26.6231 19.5767 26.5719 19.4938 26.5033C19.4108 26.4346 19.3427 26.3498 19.2935 26.254C19.2443 26.1583 19.2149 26.0535 19.2074 25.9461Z" fill="white"/>
<path fill-rule="evenodd" clip-rule="evenodd" d="M25.8168 25.9461V10.2806C25.8325 10.075 25.9274 9.88353 26.0815 9.74654C26.2356 9.60955 26.4369 9.53777 26.6429 9.5463H29.4578C29.6671 9.53727 29.872 9.60806 30.031 9.74439C30.1901 9.88073 30.2914 10.0724 30.3145 10.2806V25.9461C30.2914 26.1543 30.1901 26.346 30.031 26.4824C29.872 26.6187 29.6671 26.6895 29.4578 26.6805H26.6429C26.4369 26.689 26.2356 26.6172 26.0815 26.4802C25.9274 26.3432 25.8325 26.1517 25.8168 25.9461Z" stroke="#F19D00" stroke-width="2.96789" stroke-miterlimit="22.93"/>
<path fill-rule="evenodd" clip-rule="evenodd" d="M25.8168 25.9461V10.2806C25.8325 10.075 25.9274 9.88353 26.0815 9.74654C26.2356 9.60955 26.4369 9.53777 26.6429 9.5463H29.4578C29.6671 9.53727 29.872 9.60806 30.031 9.74439C30.1901 9.88073 30.2914 10.0724 30.3145 10.2806V25.9461C30.2914 26.1543 30.1901 26.346 30.031 26.4824C29.872 26.6187 29.6671 26.6895 29.4578 26.6805H26.6429C26.4369 26.689 26.2356 26.6172 26.0815 26.4802C25.9274 26.3432 25.8325 26.1517 25.8168 25.9461Z" fill="#E5E5E5"/>
<path fill-rule="evenodd" clip-rule="evenodd" d="M25.8168 25.946V10.2805C25.8325 10.0749 25.9274 9.88344 26.0815 9.74645C26.2356 9.60947 26.4369 9.53769 26.6429 9.54621H28.0504V26.6804H26.6429C26.4369 26.6889 26.2356 26.6171 26.0815 26.4801C25.9274 26.3431 25.8325 26.1516 25.8168 25.946Z" fill="white"/>
<path opacity="0.2" fill-rule="evenodd" clip-rule="evenodd" d="M21.4409 0C36.1885 0 41.6348 11.4126 42.6751 20.1633C22.8484 15.2984 15.9335 32.402 0.0231628 23.6819V23.4066C0.0231628 14.6865 4.79626 0 21.4409 0Z" fill="white"/>
<path opacity="0.2" fill-rule="evenodd" clip-rule="evenodd" d="M10.9162 3.30443C17.4027 -0.489574 24.3175 -0.734326 26.3675 2.75371C28.4175 6.24174 24.8683 12.2081 18.4124 16.0021C11.9565 19.7961 5.04163 20.0715 3.11403 16.5528C1.18644 13.0342 4.49085 7.12902 10.9162 3.30443Z" fill="white"/>
<path opacity="0.5" fill-rule="evenodd" clip-rule="evenodd" d="M40.3809 23.0088C41.36 23.223 41.8802 24.5693 41.5436 26.0685C41.207 27.5678 40.1361 28.5163 39.1876 28.2715C38.2391 28.0267 37.6883 26.7111 38.0249 25.2118C38.3614 23.7126 39.4018 22.7641 40.3809 23.0088Z" fill="white"/>
<path opacity="0.5" fill-rule="evenodd" clip-rule="evenodd" d="M12.5988 3.45748C15.4137 2.11123 18.2898 2.26421 19.0241 3.79405C19.7585 5.32389 18.0451 7.67983 15.2302 8.99549C12.4153 10.3112 9.50856 10.1888 8.80484 8.65893C8.10111 7.12909 9.7839 4.80374 12.5988 3.45748Z" fill="white"/>
<path opacity="0.5" fill-rule="evenodd" clip-rule="evenodd" d="M5.31639 10.7701C6.1731 9.54627 7.42748 8.96493 8.10061 9.42388C8.77374 9.88283 8.55964 11.2903 7.70293 12.4836C6.84622 13.6768 5.56115 14.3194 4.91862 13.8298C4.27608 13.3403 4.42908 11.994 5.31639 10.7701Z" fill="white"/>
</svg>
