<svg width="58" height="33" viewBox="0 0 58 33" fill="none" xmlns="http://www.w3.org/2000/svg">
<path fill-rule="evenodd" clip-rule="evenodd" d="M6.66102 0.026881H50.4466C51.2593 -0.0483823 52.0788 0.0400128 52.8568 0.286822C53.6348 0.533631 54.3554 0.933881 54.9763 1.46393C55.5972 1.99397 56.1056 2.64306 56.4717 3.37294C56.8378 4.10282 57.054 4.89867 57.1076 5.71353V23.599C57.0579 24.4165 56.8445 25.2156 56.4802 25.9491C56.1158 26.6825 55.608 27.3352 54.9867 27.8684C54.3655 28.4017 53.6434 28.8046 52.8635 29.0533C52.0836 29.302 51.2617 29.3914 50.4466 29.3162H6.66102C5.84593 29.3914 5.02404 29.302 4.24414 29.0533C3.46425 28.8046 2.74219 28.4017 2.12091 27.8684C1.49962 27.3352 0.991805 26.6825 0.62746 25.9491C0.263115 25.2156 0.0497453 24.4165 0 23.599V5.59125C0.0690544 4.78706 0.296511 4.00452 0.669328 3.28874C1.04215 2.57295 1.55286 1.93811 2.1721 1.42082C2.79134 0.903531 3.50682 0.514023 4.27725 0.274786C5.04768 0.0355481 5.85789 -0.048726 6.66102 0.026881Z" fill="#532B0F"/>
<path fill-rule="evenodd" clip-rule="evenodd" d="M6.66102 2.77866H50.4466C51.2617 2.70343 52.0836 2.7928 52.8635 3.04149C53.6434 3.29018 54.3655 3.69313 54.9867 4.22638C55.608 4.75964 56.1158 5.41234 56.4802 6.14576C56.8445 6.87918 57.0579 7.67834 57.1076 8.49586V26.3813C57.054 27.1961 56.8378 27.992 56.4717 28.7219C56.1056 29.4518 55.5972 30.1008 54.9763 30.6309C54.3554 31.1609 53.6348 31.5612 52.8568 31.808C52.0788 32.0548 51.2593 32.1432 50.4466 32.0679H6.66102C5.84835 32.1432 5.02884 32.0548 4.25086 31.808C3.47288 31.5612 2.75222 31.1609 2.13135 30.6309C1.51048 30.1008 1.00201 29.4518 0.635946 28.7219C0.269883 27.992 0.0536565 27.1961 0 26.3813V8.64874C0.0298098 7.81804 0.22852 7.00215 0.5841 6.25091C0.939681 5.49967 1.44461 4.82887 2.06804 4.27947C2.69146 3.73008 3.42032 3.31362 4.21002 3.05558C4.99971 2.79754 5.8337 2.70331 6.66102 2.77866Z" fill="#9B511C"/>
<path fill-rule="evenodd" clip-rule="evenodd" d="M6.66102 1.58608H50.4466C51.2593 1.51082 52.0788 1.59921 52.8568 1.84602C53.6348 2.09283 54.3554 2.49303 54.9763 3.02308C55.5972 3.55312 56.1056 4.20226 56.4717 4.93214C56.8378 5.66202 57.054 6.45787 57.1076 7.27273V25.1887C57.054 26.0036 56.8378 26.7994 56.4717 27.5293C56.1056 28.2592 55.5972 28.9083 54.9763 29.4383C54.3554 29.9684 53.6348 30.3686 52.8568 30.6154C52.0788 30.8622 51.2593 30.9506 50.4466 30.8754H6.66102C5.84835 30.9506 5.02884 30.8622 4.25086 30.6154C3.47288 30.3686 2.75222 29.9684 2.13135 29.4383C1.51048 28.9083 1.00201 28.2592 0.635946 27.5293C0.269883 26.7994 0.0536565 26.0036 0 25.1887V7.27273C0.0536565 6.45787 0.269883 5.66202 0.635946 4.93214C1.00201 4.20226 1.51048 3.55312 2.13135 3.02308C2.75222 2.49303 3.47288 2.09283 4.25086 1.84602C5.02884 1.59921 5.84835 1.51082 6.66102 1.58608Z" fill="#09AE11"/>
<path fill-rule="evenodd" clip-rule="evenodd" d="M6.66102 1.58608H50.4466C51.2593 1.51082 52.0788 1.59921 52.8568 1.84602C53.6348 2.09283 54.3554 2.49303 54.9763 3.02308C55.5972 3.55312 56.1056 4.20226 56.4717 4.93214C56.8378 5.66202 57.054 6.45787 57.1076 7.27273V16.2307H0V7.27273C0.0536565 6.45787 0.269883 5.66202 0.635946 4.93214C1.00201 4.20226 1.51048 3.55312 2.13135 3.02308C2.75222 2.49303 3.47288 2.09283 4.25086 1.84602C5.02884 1.59921 5.84835 1.51082 6.66102 1.58608Z" fill="#02D913"/>
</svg>
