<svg width="58" height="33" viewBox="0 0 58 33" fill="none" xmlns="http://www.w3.org/2000/svg">
<path fill-rule="evenodd" clip-rule="evenodd" d="M6.67007 0.0260494H50.5152C51.329 -0.0492715 52.1496 0.0391446 52.9286 0.286143C53.7077 0.53314 54.4293 0.933697 55.051 1.46415C55.6727 1.9946 56.1819 2.64419 56.5485 3.37463C56.915 4.10506 57.1315 4.90152 57.1853 5.717V23.6467C57.1315 24.4622 56.915 25.2587 56.5485 25.9891C56.1819 26.7196 55.6727 27.3692 55.051 27.8996C54.4293 28.4301 53.7077 28.8306 52.9286 29.0776C52.1496 29.3246 51.329 29.413 50.5152 29.3377H6.67007C5.8563 29.413 5.03567 29.3246 4.25664 29.0776C3.4776 28.8306 2.75596 28.4301 2.13425 27.8996C1.51254 27.3692 1.00337 26.7196 0.63681 25.9891C0.27025 25.2587 0.0537294 24.4622 0 23.6467V5.717C0.0537294 4.90152 0.27025 4.10506 0.63681 3.37463C1.00337 2.64419 1.51254 1.9946 2.13425 1.46415C2.75596 0.933697 3.4776 0.53314 4.25664 0.286143C5.03567 0.0391446 5.8563 -0.0492715 6.67007 0.0260494Z" fill="#532B0F"/>
<path fill-rule="evenodd" clip-rule="evenodd" d="M6.6701 2.87157H50.5152C51.3314 2.79629 52.1544 2.88572 52.9354 3.13461C53.7164 3.38349 54.4394 3.78675 55.0615 4.32041C55.6836 4.85407 56.1922 5.50727 56.557 6.24125C56.9218 6.97523 57.1355 7.77501 57.1853 8.59315V26.4923C57.1316 27.3078 56.9151 28.1042 56.5485 28.8347C56.1819 29.5651 55.6728 30.2147 55.0511 30.7451C54.4294 31.2756 53.7077 31.6761 52.9287 31.9231C52.1496 32.1701 51.329 32.2586 50.5152 32.1833H6.6701C5.85633 32.2586 5.0357 32.1701 4.25667 31.9231C3.47763 31.6761 2.75599 31.2756 2.13428 30.7451C1.51257 30.2147 1.0034 29.5651 0.636841 28.8347C0.270281 28.1042 0.0537599 27.3078 3.05176e-05 26.4923V8.59315C0.0498435 7.77501 0.263503 6.97523 0.628344 6.24125C0.993184 5.50727 1.50169 4.85407 2.12382 4.32041C2.74595 3.78675 3.46899 3.38349 4.24995 3.13461C5.0309 2.88572 5.85391 2.79629 6.6701 2.87157Z" fill="#9B511C"/>
<path fill-rule="evenodd" clip-rule="evenodd" d="M6.6701 1.58642H50.5152C51.3314 1.51113 52.1544 1.60057 52.9354 1.84945C53.7164 2.09833 54.4394 2.50159 55.0615 3.03525C55.6836 3.56891 56.1922 4.22211 56.557 4.95609C56.9218 5.69008 57.1355 6.48986 57.1853 7.308V25.2071C57.1316 26.0226 56.9151 26.8191 56.5485 27.5495C56.1819 28.2799 55.6728 28.9295 55.0511 29.46C54.4294 29.9904 53.7077 30.391 52.9287 30.638C52.1496 30.885 51.329 30.9735 50.5152 30.8981H6.6701C5.85633 30.9735 5.0357 30.885 4.25667 30.638C3.47763 30.391 2.75599 29.9904 2.13428 29.46C1.51257 28.9295 1.0034 28.2799 0.636841 27.5495C0.270281 26.8191 0.0537599 26.0226 3.05176e-05 25.2071V7.308C0.0498435 6.48986 0.263503 5.69008 0.628344 4.95609C0.993184 4.22211 1.50169 3.56891 2.12382 3.03525C2.74595 2.50159 3.46899 2.09833 4.24995 1.84945C5.0309 1.60057 5.85391 1.51113 6.6701 1.58642Z" fill="#FF4A11"/>
<path fill-rule="evenodd" clip-rule="evenodd" d="M6.6701 1.58642H50.5152C51.3314 1.51113 52.1544 1.60057 52.9354 1.84945C53.7164 2.09833 54.4394 2.50159 55.0615 3.03525C55.6836 3.56891 56.1922 4.22211 56.557 4.95609C56.9218 5.69008 57.1355 6.48986 57.1853 7.308V16.2422H3.05176e-05V7.308C0.0498435 6.48986 0.263503 5.69008 0.628344 4.95609C0.993184 4.22211 1.50169 3.56891 2.12382 3.03525C2.74595 2.50159 3.46899 2.09833 4.24995 1.84945C5.0309 1.60057 5.85391 1.51113 6.6701 1.58642Z" fill="#FF8E6B"/>
</svg>
